<?xml version="1.0" encoding="utf-8"?>
<!-- Generator: Adobe Illustrator 25.2.3, SVG Export Plug-In . SVG Version: 6.00 Build 0)  -->
<svg version="1.1" id="Layer_1" xmlns="http://www.w3.org/2000/svg" xmlns:xlink="http://www.w3.org/1999/xlink" x="0px" y="0px"
	 viewBox="0 0 450 450" style="enable-background:new 0 0 450 450;" xml:space="preserve">
<style type="text/css">
	.st0{display:none;}
	.st1{display:inline;fill:#5688D1;}
	.st2{display:inline;fill:#FFE578;}
	.st3{display:inline;fill:#FFFFFF;}
	.st4{display:inline;fill:#EA326F;}
	.st5{display:inline;fill:#FFA6B9;}
	.st6{display:inline;fill:#6D8DE8;}
	.st7{display:inline;fill:#C7FFA9;}
	.st8{display:inline;fill:#3C73EF;}
	.st9{display:inline;fill:#AFABFF;}
</style>
<g class="st0">
	<path id="XMLID_33_" class="st1" d="M141.4,127.4H52.5c-3.1,0-5.5-2.5-5.5-5.6V2.9c0-3.1,2.5-5.6,5.5-5.6h88.9
		c3.1,0,5.6,2.5,5.6,5.6v118.9C146.9,124.9,144.4,127.4,141.4,127.4z"/>
	<path class="st2" d="M51.8,2.6c0,0.6-0.5,1.1-1.1,1.1s-1.1-0.5-1.1-1.1s0.5-1.1,1.1-1.1C51.3,1.4,51.8,2,51.8,2.6z"/>
	<path class="st2" d="M75.6-0.8c0,0.6-0.5,1.1-1.1,1.1s-1.1-0.5-1.1-1.1S73.8-2,74.4-2C75.1-2,75.6-1.5,75.6-0.8z"/>
	<path class="st2" d="M54.1,30.5c0,0.6-0.5,1.1-1.1,1.1s-1.1-0.5-1.1-1.1s0.5-1.1,1.1-1.1C53.6,29.4,54.1,29.9,54.1,30.5z"/>
	<path class="st2" d="M53.7,115.4c0,0.6-0.5,1.1-1.1,1.1s-1.1-0.5-1.1-1.1s0.5-1.1,1.1-1.1C53.2,114.3,53.7,114.8,53.7,115.4z"/>
	<path class="st2" d="M107.5,1.8c0,0.6-0.5,1.1-1.1,1.1s-1.1-0.5-1.1-1.1s0.5-1.1,1.1-1.1C107,0.6,107.5,1.1,107.5,1.8z"/>
	<path class="st2" d="M141.2,0.3c0,0.6-0.5,1.1-1.1,1.1s-1.1-0.5-1.1-1.1s0.5-1.1,1.1-1.1C140.7-0.8,141.2-0.3,141.2,0.3z"/>
	<path class="st3" d="M54.1,9.6c0,0.6-0.5,1.1-1.1,1.1s-1.1-0.5-1.1-1.1s0.5-1.1,1.1-1.1C53.6,8.5,54.1,9,54.1,9.6z"/>
	<path class="st3" d="M49.5,34.5c0,0.6-0.5,1.1-1.1,1.1s-1.1-0.5-1.1-1.1s0.5-1.1,1.1-1.1S49.5,33.9,49.5,34.5z"/>
	<path class="st3" d="M118.5,0.1c0,0.6-0.5,1.1-1.1,1.1s-1.1-0.5-1.1-1.1s0.5-1.1,1.1-1.1S118.5-0.5,118.5,0.1z"/>
	<path class="st3" d="M120.5,125.6c0,0.6-0.5,1.1-1.1,1.1s-1.1-0.5-1.1-1.1s0.5-1.1,1.1-1.1S120.5,124.9,120.5,125.6z"/>
	<path class="st4" d="M124.2,1.8c0,0.6-0.5,1.1-1.1,1.1s-1.1-0.5-1.1-1.1s0.5-1.1,1.1-1.1C123.7,0.6,124.2,1.1,124.2,1.8z"/>
	<path class="st4" d="M146.2,84.3c0,0.6-0.5,1.1-1.1,1.1s-1.1-0.5-1.1-1.1s0.5-1.1,1.1-1.1C145.6,83.2,146.2,83.7,146.2,84.3z"/>
	<path class="st4" d="M53,125.2c0,0.6-0.5,1.1-1.1,1.1s-1.1-0.5-1.1-1.1s0.5-1.1,1.1-1.1C52.4,124,53,124.6,53,125.2z"/>
	<path class="st4" d="M103.6-0.8c0,0.6-0.5,1.1-1.1,1.1s-1.1-0.5-1.1-1.1s0.5-1.1,1.1-1.1S103.6-1.5,103.6-0.8z"/>
	<path class="st4" d="M51.8,61.2c0,0.6-0.5,1.1-1.1,1.1s-1.1-0.5-1.1-1.1s0.5-1.1,1.1-1.1C51.3,60.1,51.8,60.6,51.8,61.2z"/>
	<path class="st4" d="M64.6-0.8c0,0.6-0.5,1.1-1.1,1.1c-0.6,0-1.1-0.5-1.1-1.1S62.8-2,63.5-2C64.1-2,64.6-1.5,64.6-0.8z"/>
	<path class="st5" d="M70.3,2.4c0,0.6-0.5,1.1-1.1,1.1S68.1,3,68.1,2.4s0.5-1.1,1.1-1.1C69.8,1.3,70.3,1.8,70.3,2.4z"/>
	<path class="st5" d="M144.9,40.1c0,0.6-0.5,1.1-1.1,1.1s-1.1-0.5-1.1-1.1s0.5-1.1,1.1-1.1C144.3,39,144.9,39.5,144.9,40.1z"/>
	<path class="st5" d="M54.1,39c0,0.6-0.5,1.1-1.1,1.1s-1.1-0.5-1.1-1.1s0.5-1.1,1.1-1.1S54.1,38.3,54.1,39z"/>
	<path class="st5" d="M133.7,3.7c0,0.6-0.5,1.1-1.1,1.1s-1.1-0.5-1.1-1.1s0.5-1.1,1.1-1.1C133.2,2.6,133.7,3.1,133.7,3.7z"/>
	<path class="st6" d="M49.5,14.4c0,0.6-0.5,1.1-1.1,1.1s-1.1-0.5-1.1-1.1s0.5-1.1,1.1-1.1C49,13.3,49.5,13.8,49.5,14.4z"/>
	<path class="st6" d="M97,3.7c0,0.6-0.5,1.1-1.1,1.1s-1.1-0.5-1.1-1.1s0.5-1.1,1.1-1.1S97,3.1,97,3.7z"/>
	<path class="st6" d="M54.1,44.2c0,0.6-0.5,1.1-1.1,1.1s-1.1-0.5-1.1-1.1S52.3,43,53,43C53.6,43,54.1,43.5,54.1,44.2z"/>
	<path class="st6" d="M142.6,55c0,0.6-0.5,1.1-1.1,1.1s-1.1-0.5-1.1-1.1s0.5-1.1,1.1-1.1C142.1,53.9,142.6,54.4,142.6,55z"/>
	<path class="st7" d="M87.5,3.7c0,0.6-0.5,1.1-1.1,1.1s-1.1-0.5-1.1-1.1s0.5-1.1,1.1-1.1C87,2.6,87.5,3.1,87.5,3.7z"/>
	<path class="st7" d="M53,87.9c0,0.6-0.5,1.1-1.1,1.1s-1.1-0.5-1.1-1.1s0.5-1.1,1.1-1.1C52.4,86.8,53,87.3,53,87.9z"/>
	<path class="st7" d="M54.9,64.7c0,0.6-0.5,1.1-1.1,1.1s-1.1-0.5-1.1-1.1s0.5-1.1,1.1-1.1C54.3,63.6,54.9,64.1,54.9,64.7z"/>
	<path class="st7" d="M129.9-0.8c0,0.6-0.5,1.1-1.1,1.1s-1.1-0.5-1.1-1.1s0.5-1.1,1.1-1.1C129.4-2,129.9-1.5,129.9-0.8z"/>
	<path class="st7" d="M60,1.3c0,0.6-0.5,1.1-1.1,1.1s-1.1-0.5-1.1-1.1s0.5-1.1,1.1-1.1C59.5,0.1,60,0.6,60,1.3z"/>
	<path class="st7" d="M53,51.2c0,0.6-0.5,1.1-1.1,1.1s-1.1-0.5-1.1-1.1s0.5-1.1,1.1-1.1C52.4,50.1,53,50.6,53,51.2z"/>
	<path class="st7" d="M144.9,19.5c0,0.6-0.5,1.1-1.1,1.1s-1.1-0.5-1.1-1.1s0.5-1.1,1.1-1.1C144.3,18.3,144.9,18.8,144.9,19.5z"/>
	<path class="st7" d="M72.9,124.4c0,0.6-0.5,1.1-1.1,1.1s-1.1-0.5-1.1-1.1s0.5-1.1,1.1-1.1S72.9,123.8,72.9,124.4z"/>
	<path class="st8" d="M92.6-0.8c0,0.6-0.5,1.1-1.1,1.1s-1.1-0.5-1.1-1.1S90.9-2,91.5-2S92.6-1.5,92.6-0.8z"/>
	<path class="st2" d="M143.7,60.8c-0.6,0-1.1-0.5-1.1-1.1s0.5-1.1,1.1-1.1s1.1,0.5,1.1,1.1C144.9,60.2,144.3,60.8,143.7,60.8z"/>
	<path class="st2" d="M50.7,82.2c-0.6,0-1.1-0.5-1.1-1.1s0.5-1.1,1.1-1.1s1.1,0.5,1.1,1.1C51.8,81.7,51.3,82.2,50.7,82.2z"/>
	<path class="st2" d="M141.4,90.6c-0.6,0-1.1-0.5-1.1-1.1s0.5-1.1,1.1-1.1s1.1,0.5,1.1,1.1C142.6,90.1,142.1,90.6,141.4,90.6z"/>
	<path class="st2" d="M143.9,28.6c-0.6,0-1.1-0.5-1.1-1.1s0.5-1.1,1.1-1.1s1.1,0.5,1.1,1.1S144.5,28.6,143.9,28.6z"/>
	<path class="st3" d="M142.6,102.5c-0.6,0-1.1-0.5-1.1-1.1s0.5-1.1,1.1-1.1s1.1,0.5,1.1,1.1S143.2,102.5,142.6,102.5z"/>
	<path class="st3" d="M141.4,46.9c-0.6,0-1.1-0.5-1.1-1.1s0.5-1.1,1.1-1.1s1.1,0.5,1.1,1.1S142.1,46.9,141.4,46.9z"/>
	<path class="st3" d="M49.5,103.7c-0.6,0-1.1-0.5-1.1-1.1s0.5-1.1,1.1-1.1s1.1,0.5,1.1,1.1S50.2,103.7,49.5,103.7z"/>
	<path class="st4" d="M142.7,120.7c-0.6,0-1.1-0.5-1.1-1.1s0.5-1.1,1.1-1.1s1.1,0.5,1.1,1.1C143.9,120.2,143.4,120.7,142.7,120.7z"
		/>
	<path class="st5" d="M145,52.4c-0.6,0-1.1-0.5-1.1-1.1s0.5-1.1,1.1-1.1s1.1,0.5,1.1,1.1C146.2,51.8,145.6,52.4,145,52.4z"/>
	<path class="st5" d="M141.2,114.3c-0.6,0-1.1-0.5-1.1-1.1s0.5-1.1,1.1-1.1s1.1,0.5,1.1,1.1C142.4,113.8,141.8,114.3,141.2,114.3z"
		/>
	<path class="st6" d="M142.7,79c-0.6,0-1.1-0.5-1.1-1.1s0.5-1.1,1.1-1.1s1.1,0.5,1.1,1.1S143.4,79,142.7,79z"/>
	<path class="st6" d="M143.7,14.4c-0.6,0-1.1-0.5-1.1-1.1s0.5-1.1,1.1-1.1s1.1,0.5,1.1,1.1S144.3,14.4,143.7,14.4z"/>
	<path class="st7" d="M140.3,71.6c-0.6,0-1.1-0.5-1.1-1.1s0.5-1.1,1.1-1.1s1.1,0.5,1.1,1.1C141.4,71.1,140.9,71.6,140.3,71.6z"/>
	<path class="st8" d="M143.9,67c-0.6,0-1.1-0.5-1.1-1.1s0.5-1.1,1.1-1.1s1.1,0.5,1.1,1.1S144.5,67,143.9,67z"/>
	<path class="st4" d="M142.4,32.8c0,0.6-0.5,1.1-1.1,1.1s-1.1-0.5-1.1-1.1s0.5-1.1,1.1-1.1C141.8,31.7,142.4,32.2,142.4,32.8z"/>
	<path class="st6" d="M51.8,96.7c0,0.6-0.5,1.1-1.1,1.1s-1.1-0.5-1.1-1.1s0.5-1.1,1.1-1.1C51.3,95.6,51.8,96.1,51.8,96.7z"/>
	<path class="st2" d="M64.6,126.7c-0.6,0-1.1-0.5-1.1-1.1s0.5-1.1,1.1-1.1c0.6,0,1.1,0.5,1.1,1.1C65.7,126.2,65.2,126.7,64.6,126.7z
		"/>
	<path class="st5" d="M48.4,92.3c-0.6,0-1.1-0.5-1.1-1.1s0.5-1.1,1.1-1.1s1.1,0.5,1.1,1.1S49,92.3,48.4,92.3z"/>
	<path class="st6" d="M50.7,109.2c-0.6,0-1.1-0.5-1.1-1.1s0.5-1.1,1.1-1.1s1.1,0.5,1.1,1.1C51.8,108.7,51.3,109.2,50.7,109.2z"/>
	<path class="st6" d="M48.4,56.2c-0.6,0-1.1-0.5-1.1-1.1s0.5-1.1,1.1-1.1s1.1,0.5,1.1,1.1C49.5,55.6,49,56.2,48.4,56.2z"/>
	<path class="st7" d="M49.5,121c-0.6,0-1.1-0.5-1.1-1.1s0.5-1.1,1.1-1.1s1.1,0.5,1.1,1.1S50.2,121,49.5,121z"/>
	<path class="st8" d="M49.5,72.7c-0.6,0-1.1-0.5-1.1-1.1s0.5-1.1,1.1-1.1s1.1,0.5,1.1,1.1C50.7,72.2,50.2,72.7,49.5,72.7z"/>
	<path class="st4" d="M48.4,87.3c-0.6,0-1.1-0.5-1.1-1.1s0.5-1.1,1.1-1.1s1.1,0.5,1.1,1.1C49.5,86.8,49,87.3,48.4,87.3z"/>
	<path class="st7" d="M131.3,126.3c-0.6,0-1.1-0.5-1.1-1.1s0.5-1.1,1.1-1.1s1.1,0.5,1.1,1.1S131.9,126.3,131.3,126.3z"/>
	<path class="st7" d="M143.9,97.8c-0.6,0-1.1-0.5-1.1-1.1s0.5-1.1,1.1-1.1s1.1,0.5,1.1,1.1C145,97.3,144.5,97.8,143.9,97.8z"/>
	<path class="st2" d="M137.1,121.8c0-0.6,0.5-1.1,1.1-1.1s1.1,0.5,1.1,1.1s-0.5,1.1-1.1,1.1S137.1,122.4,137.1,121.8z"/>
	<path class="st6" d="M122.6,125.2c-0.6,0-1.1-0.5-1.1-1.1s0.5-1.1,1.1-1.1s1.1,0.5,1.1,1.1S123.2,125.2,122.6,125.2z"/>
	<path class="st5" d="M126.9,121.8c0-0.6,0.5-1.1,1.1-1.1s1.1,0.5,1.1,1.1s-0.5,1.1-1.1,1.1S126.9,122.4,126.9,121.8z"/>
	<path class="st8" d="M142.6,124.4c0-0.6,0.5-1.1,1.1-1.1s1.1,0.5,1.1,1.1s-0.5,1.1-1.1,1.1S142.6,125.1,142.6,124.4z"/>
	<path class="st8" d="M54.1,24.3c0,0.6-0.5,1.1-1.1,1.1s-1.1-0.5-1.1-1.1s0.5-1.1,1.1-1.1C53.6,23.1,54.1,23.7,54.1,24.3z"/>
	<path class="st8" d="M146.4,35.5c0,0.6-0.5,1.1-1.1,1.1s-1.1-0.5-1.1-1.1s0.5-1.1,1.1-1.1C145.9,34.4,146.4,34.9,146.4,35.5z"/>
	<path class="st8" d="M114.8,121.8c0,0.6-0.5,1.1-1.1,1.1s-1.1-0.5-1.1-1.1s0.5-1.1,1.1-1.1C114.3,120.7,114.8,121.2,114.8,121.8z"
		/>
	<path class="st8" d="M141.2,6.3c0,0.6-0.5,1.1-1.1,1.1s-1.1-0.5-1.1-1.1s0.5-1.1,1.1-1.1C140.7,5.2,141.2,5.7,141.2,6.3z"/>
	<path class="st8" d="M56,5.2c0,0.6-0.5,1.1-1.1,1.1s-1.1-0.5-1.1-1.1S54.2,4,54.9,4S56,4.5,56,5.2z"/>
	<path class="st9" d="M50.7,26.3c0,0.6-0.5,1.1-1.1,1.1s-1.1-0.5-1.1-1.1s0.5-1.1,1.1-1.1C50.2,25.1,50.7,25.7,50.7,26.3z"/>
	<path class="st9" d="M81.2,1.3c0,0.6-0.5,1.1-1.1,1.1s-1.1-0.5-1.1-1.1s0.5-1.1,1.1-1.1S81.2,0.6,81.2,1.3z"/>
	<path class="st2" d="M77.8,119.9c0.6,0,1.1,0.5,1.1,1.1s-0.5,1.1-1.1,1.1s-1.1-0.5-1.1-1.1S77.1,119.9,77.8,119.9z"/>
	<path class="st3" d="M82.6,124c0.6,0,1.1,0.5,1.1,1.1s-0.5,1.1-1.1,1.1s-1.1-0.5-1.1-1.1S81.9,124,82.6,124z"/>
	<path class="st4" d="M102.4,122.1c0.6,0,1.1,0.5,1.1,1.1s-0.5,1.1-1.1,1.1s-1.1-0.5-1.1-1.1S101.8,122.1,102.4,122.1z"/>
	<path class="st5" d="M88.2,121c0.6,0,1.1,0.5,1.1,1.1s-0.5,1.1-1.1,1.1s-1.1-0.5-1.1-1.1S87.5,121,88.2,121z"/>
	<path class="st5" d="M144.9,105.7c0.6,0,1.1,0.5,1.1,1.1s-0.5,1.1-1.1,1.1s-1.1-0.5-1.1-1.1C143.7,106.2,144.2,105.7,144.9,105.7z"
		/>
	<path class="st6" d="M58.8,121c0.6,0,1.1,0.5,1.1,1.1s-0.5,1.1-1.1,1.1s-1.1-0.5-1.1-1.1S58.2,121,58.8,121z"/>
	<path class="st6" d="M91.5,124c0.6,0,1.1,0.5,1.1,1.1s-0.5,1.1-1.1,1.1s-1.1-0.5-1.1-1.1S90.9,124,91.5,124z"/>
	<path class="st7" d="M95.6,121c0.6,0,1.1,0.5,1.1,1.1s-0.5,1.1-1.1,1.1s-1.1-0.5-1.1-1.1S95,121,95.6,121z"/>
	<path class="st8" d="M67.6,121c0.6,0,1.1,0.5,1.1,1.1s-0.5,1.1-1.1,1.1s-1.1-0.5-1.1-1.1S66.9,121,67.6,121z"/>
	<path class="st9" d="M107.5,124c0.6,0,1.1,0.5,1.1,1.1s-0.5,1.1-1.1,1.1s-1.1-0.5-1.1-1.1S106.8,124,107.5,124z"/>
	<path class="st9" d="M111.5,1.8c0.6,0,1.1,0.5,1.1,1.1S112.1,4,111.5,4s-1.1-0.5-1.1-1.1S110.9,1.8,111.5,1.8z"/>
	<path class="st9" d="M143.7,1.8c0.6,0,1.1,0.5,1.1,1.1S144.3,4,143.7,4s-1.1-0.5-1.1-1.1S143.1,1.8,143.7,1.8z"/>
	<path id="XMLID_32_" class="st3" d="M135.2,121.1H58.6c-2.7,0-4.9-2.2-4.9-4.9V8.5c0-2.7,2.2-4.9,4.9-4.9h76.5
		c2.7,0,4.9,2.2,4.9,4.9v107.7C140.1,118.9,137.9,121.1,135.2,121.1z"/>
	<path id="XMLID_41_" class="st1" d="M131.7,8.7c1.9,0,3.5,1.6,3.5,3.5v100.2c0,1.9-1.6,3.5-3.5,3.5H62.1c-1.9,0-3.5-1.6-3.5-3.5
		V12.2c0-1.9,1.6-3.5,3.5-3.5H131.7 M131.7,7.7H62.1c-2.5,0-4.5,2-4.5,4.5v100.2c0,2.5,2,4.5,4.5,4.5h69.5c2.5,0,4.5-2,4.5-4.5V12.2
		C136.2,9.8,134.1,7.7,131.7,7.7L131.7,7.7z"/>
</g>
<image style="display:none;overflow:visible;enable-background:new    ;" width="2049" height="2663" xlink:href="B2688A05.png"  transform="matrix(0.2195 0 0 0.1689 8.190000e-02 9.240000e-02)">
</image>
<image style="overflow:visible;" width="2550" height="2588" xlink:href="../../../../12.png"  transform="matrix(0.1755 0 0 0.1738 0.4348 -0.7242)">
</image>
</svg>
