<?xml version="1.0" encoding="utf-8"?>
<!-- Generator: Adobe Illustrator 25.2.3, SVG Export Plug-In . SVG Version: 6.00 Build 0)  -->
<svg version="1.1" id="Layer_1" xmlns="http://www.w3.org/2000/svg" xmlns:xlink="http://www.w3.org/1999/xlink" x="0px" y="0px"
	 viewBox="0 0 1004.6 38.82" style="enable-background:new 0 0 1004.6 38.82;" xml:space="preserve">
<style type="text/css">
	.st0{display:none;}
	.st1{display:inline;fill:#F9C6D8;}
	.st2{display:inline;fill:#F5A5C8;}
	.st3{display:inline;fill:#FFF7A5;}
	.st4{display:inline;fill:#FFDA82;}
	.st5{display:inline;fill:#BEA9D2;}
	.st6{fill:#BEA9D2;}
	.st7{fill:#FFF7A5;}
	.st8{fill:#BCE3E1;}
	.st9{fill:#F9C6D8;}
</style>
<g class="st0">
	<path class="st1" d="M57.46,14.5c-1.25-1.4-3.4-1.53-4.8-0.29l-0.79,0.7c-0.37,0.33-0.93,0.33-1.3,0l-0.79-0.7
		c-0.65-0.57-1.45-0.86-2.26-0.86c-0.94,0-1.87,0.39-2.55,1.14c-0.6,0.68-0.91,1.55-0.85,2.46c0.05,0.91,0.46,1.74,1.14,2.34
		l5.96,5.29l5.96-5.29c0.68-0.6,1.08-1.43,1.14-2.34C58.37,16.05,58.07,15.18,57.46,14.5z"/>
	<path class="st2" d="M51.36,12.74l-0.14,0.13l-0.14-0.13c-2.21-1.96-5.61-1.76-7.57,0.45c-0.95,1.07-1.43,2.45-1.34,3.88
		c0.09,1.43,0.72,2.74,1.79,3.69l6.61,5.87c0.19,0.16,0.42,0.25,0.65,0.25c0.23,0,0.47-0.08,0.65-0.25l6.61-5.87
		c1.07-0.95,1.71-2.26,1.79-3.69c0.08-1.43-0.39-2.81-1.34-3.88C56.97,10.98,53.57,10.78,51.36,12.74z M51.22,24.59l-5.96-5.29
		c-0.68-0.6-1.08-1.43-1.14-2.34c-0.05-0.91,0.25-1.78,0.85-2.46c0.67-0.76,1.61-1.14,2.55-1.14c0.8,0,1.61,0.28,2.26,0.86l0.79,0.7
		c0.37,0.33,0.93,0.33,1.3,0l0.79-0.7c1.4-1.25,3.56-1.12,4.8,0.29c0.6,0.68,0.91,1.55,0.85,2.46c-0.05,0.91-0.46,1.74-1.14,2.34
		L51.22,24.59z"/>
	<path class="st1" d="M139.09,16.96c0.05-0.91-0.25-1.78-0.85-2.46c-1.25-1.4-3.4-1.53-4.8-0.29l-0.79,0.7
		c-0.37,0.33-0.93,0.33-1.3,0l-0.79-0.7c-0.65-0.57-1.45-0.86-2.26-0.86c-0.94,0-1.87,0.39-2.55,1.14c-0.6,0.68-0.91,1.55-0.85,2.46
		c0.05,0.91,0.46,1.74,1.14,2.34l5.96,5.29l5.96-5.29C138.63,18.69,139.03,17.86,139.09,16.96z"/>
	<path class="st2" d="M132.13,12.74l-0.14,0.13l-0.14-0.13c-2.21-1.96-5.61-1.76-7.57,0.45c-0.95,1.07-1.43,2.45-1.34,3.88
		c0.08,1.43,0.72,2.74,1.79,3.69l6.61,5.87c0.19,0.16,0.42,0.25,0.65,0.25c0.23,0,0.47-0.08,0.65-0.25l6.61-5.87
		c1.07-0.95,1.71-2.26,1.79-3.69c0.09-1.43-0.39-2.81-1.34-3.88C137.74,10.98,134.34,10.78,132.13,12.74z M126.03,19.3
		c-0.68-0.6-1.08-1.43-1.14-2.34c-0.05-0.91,0.25-1.78,0.85-2.46c0.67-0.76,1.61-1.14,2.55-1.14c0.8,0,1.61,0.28,2.26,0.86l0.79,0.7
		c0.37,0.33,0.93,0.33,1.3,0l0.79-0.7c1.4-1.25,3.56-1.12,4.8,0.29c0.6,0.68,0.91,1.55,0.85,2.46c-0.05,0.91-0.46,1.74-1.14,2.34
		l-5.96,5.29L126.03,19.3z"/>
	<path class="st1" d="M219.01,14.5c-1.25-1.4-3.4-1.53-4.8-0.29l-0.79,0.7c-0.37,0.33-0.93,0.33-1.3,0l-0.79-0.7
		c-0.65-0.57-1.45-0.86-2.26-0.86c-0.94,0-1.87,0.39-2.55,1.14c-0.6,0.68-0.91,1.55-0.85,2.46c0.05,0.91,0.46,1.74,1.14,2.34
		l5.96,5.29l5.96-5.29c0.68-0.6,1.08-1.43,1.14-2.34C219.91,16.05,219.61,15.18,219.01,14.5z"/>
	<path class="st2" d="M212.9,12.74l-0.14,0.13l-0.14-0.13c-2.21-1.96-5.61-1.76-7.57,0.45c-0.95,1.07-1.43,2.45-1.34,3.88
		c0.08,1.43,0.72,2.74,1.79,3.69l6.61,5.87c0.19,0.16,0.42,0.25,0.65,0.25c0.23,0,0.47-0.08,0.65-0.25l6.61-5.87
		c1.07-0.95,1.71-2.26,1.79-3.69c0.08-1.43-0.39-2.81-1.34-3.88C218.51,10.98,215.11,10.78,212.9,12.74z M212.76,24.59l-5.96-5.29
		c-0.68-0.6-1.08-1.43-1.14-2.34c-0.05-0.91,0.25-1.78,0.85-2.46c0.67-0.76,1.61-1.14,2.55-1.14c0.8,0,1.61,0.28,2.26,0.86l0.79,0.7
		c0.37,0.33,0.93,0.33,1.3,0l0.79-0.7c1.4-1.25,3.56-1.12,4.8,0.29c0.6,0.68,0.91,1.55,0.85,2.46c-0.05,0.91-0.46,1.74-1.14,2.34
		L212.76,24.59z"/>
	<path class="st1" d="M380.55,14.5c-1.25-1.4-3.4-1.53-4.8-0.29l-0.79,0.7c-0.37,0.33-0.93,0.33-1.3,0l-0.79-0.7
		c-0.65-0.57-1.45-0.86-2.26-0.86c-0.94,0-1.87,0.39-2.55,1.14c-0.6,0.68-0.91,1.55-0.85,2.46c0.05,0.91,0.46,1.74,1.14,2.34
		l5.96,5.29l5.96-5.29c0.68-0.6,1.08-1.43,1.14-2.34C381.46,16.05,381.15,15.18,380.55,14.5z"/>
	<path class="st2" d="M374.45,12.74l-0.14,0.13l-0.14-0.13c-2.21-1.96-5.61-1.76-7.57,0.45c-0.95,1.07-1.43,2.45-1.34,3.88
		c0.08,1.43,0.72,2.74,1.79,3.69l6.61,5.87c0.19,0.16,0.42,0.25,0.65,0.25c0.23,0,0.47-0.08,0.65-0.25l6.61-5.87
		c1.07-0.95,1.71-2.26,1.79-3.69c0.08-1.43-0.39-2.81-1.34-3.88C380.05,10.98,376.66,10.78,374.45,12.74z M374.3,24.59l-5.96-5.29
		c-0.68-0.6-1.08-1.43-1.14-2.34c-0.05-0.91,0.25-1.78,0.85-2.46c0.67-0.76,1.61-1.14,2.55-1.14c0.8,0,1.61,0.28,2.26,0.86l0.79,0.7
		c0.37,0.33,0.93,0.33,1.3,0l0.79-0.7c1.4-1.25,3.56-1.12,4.8,0.29c0.6,0.68,0.91,1.55,0.85,2.46c-0.05,0.91-0.46,1.74-1.14,2.34
		L374.3,24.59z"/>
	<path class="st1" d="M300.63,16.96c0.05-0.91-0.25-1.78-0.85-2.46c-1.25-1.4-3.4-1.53-4.8-0.29l-0.79,0.7
		c-0.37,0.33-0.93,0.33-1.3,0l-0.79-0.7c-0.65-0.57-1.45-0.86-2.26-0.86c-0.94,0-1.87,0.39-2.55,1.14c-0.6,0.68-0.91,1.55-0.85,2.46
		c0.05,0.91,0.46,1.74,1.14,2.34l5.96,5.29l5.96-5.29C300.17,18.69,300.58,17.86,300.63,16.96z"/>
	<path class="st2" d="M293.67,12.74l-0.14,0.13l-0.14-0.13c-2.21-1.96-5.61-1.76-7.57,0.45c-0.95,1.07-1.43,2.45-1.34,3.88
		c0.09,1.43,0.72,2.74,1.79,3.69l6.61,5.87c0.19,0.16,0.42,0.25,0.65,0.25c0.23,0,0.47-0.08,0.65-0.25l6.61-5.87
		c1.07-0.95,1.71-2.26,1.79-3.69c0.08-1.43-0.39-2.81-1.34-3.88C299.28,10.98,295.89,10.78,293.67,12.74z M287.57,19.3
		c-0.68-0.6-1.08-1.43-1.14-2.34c-0.05-0.91,0.25-1.78,0.85-2.46c0.67-0.76,1.61-1.14,2.55-1.14c0.8,0,1.61,0.28,2.26,0.86l0.79,0.7
		c0.37,0.33,0.93,0.33,1.3,0l0.79-0.7c1.4-1.25,3.56-1.12,4.8,0.29c0.6,0.68,0.91,1.55,0.85,2.46c-0.05,0.91-0.46,1.74-1.14,2.34
		l-5.96,5.29L287.57,19.3z"/>
	<path class="st1" d="M462.17,16.96c0.05-0.91-0.25-1.78-0.85-2.46c-1.25-1.4-3.4-1.53-4.8-0.29l-0.79,0.7
		c-0.37,0.33-0.93,0.33-1.3,0l-0.79-0.7c-0.65-0.57-1.45-0.86-2.26-0.86c-0.94,0-1.87,0.39-2.55,1.14c-0.6,0.68-0.91,1.55-0.85,2.46
		c0.05,0.91,0.46,1.74,1.14,2.34l5.96,5.29l5.96-5.29C461.72,18.69,462.12,17.86,462.17,16.96z"/>
	<path class="st2" d="M455.22,12.74l-0.14,0.13l-0.14-0.13c-2.21-1.96-5.61-1.76-7.57,0.45c-0.95,1.07-1.43,2.45-1.34,3.88
		c0.09,1.43,0.72,2.74,1.79,3.69l6.61,5.87c0.19,0.16,0.42,0.25,0.65,0.25c0.23,0,0.47-0.08,0.65-0.25l6.61-5.87
		c1.07-0.95,1.71-2.26,1.79-3.69c0.08-1.43-0.39-2.81-1.34-3.88C460.83,10.98,457.43,10.78,455.22,12.74z M449.12,19.3
		c-0.68-0.6-1.08-1.43-1.14-2.34c-0.05-0.91,0.25-1.78,0.85-2.46c0.67-0.76,1.61-1.14,2.55-1.14c0.8,0,1.61,0.28,2.26,0.86l0.79,0.7
		c0.37,0.33,0.93,0.33,1.3,0l0.79-0.7c1.4-1.25,3.56-1.12,4.8,0.29c0.6,0.68,0.91,1.55,0.85,2.46c-0.05,0.91-0.46,1.74-1.14,2.34
		l-5.96,5.29L449.12,19.3z"/>
	<path class="st3" d="M10.83,13.53c-1.08,2.45-2.88,4.43-5.1,5.59c2.21,1.15,4.01,3.12,5.1,5.54c1.09-2.46,2.91-4.42,5.14-5.57
		C13.72,17.94,11.92,15.99,10.83,13.53z"/>
	<path class="st4" d="M19.11,18.21l-1.15-0.39c-2.95-1.01-5.19-3.63-5.98-7L11.79,10c-0.1-0.44-0.5-0.75-0.95-0.76c0,0,0,0-0.01,0
		c-0.45,0-0.84,0.31-0.95,0.74l-0.26,1.05c-0.87,3.49-3.35,6.18-6.46,7.01l-0.54,0.15c-0.43,0.12-0.73,0.51-0.73,0.96
		c0.01,0.45,0.32,0.84,0.75,0.94l0.33,0.08c3.31,0.79,5.96,3.71,6.76,7.43l0.14,0.66c0.1,0.45,0.5,0.77,0.96,0.77c0,0,0,0,0,0
		c0.46,0,0.86-0.33,0.96-0.78l0.12-0.58c0.81-3.9,3.59-6.87,7.07-7.57c0.43-0.09,0.76-0.45,0.79-0.9
		C19.8,18.76,19.53,18.35,19.11,18.21z M15.97,19.1c-2.24,1.15-4.05,3.12-5.14,5.57c-1.08-2.42-2.89-4.39-5.1-5.54
		c2.22-1.16,4.02-3.14,5.1-5.59C11.92,15.99,13.72,17.94,15.97,19.1z"/>
	<path class="st3" d="M91.6,13.53c-1.08,2.45-2.88,4.43-5.1,5.59c2.21,1.16,4.01,3.12,5.09,5.54c1.09-2.46,2.91-4.42,5.14-5.57
		C94.49,17.94,92.69,15.99,91.6,13.53z"/>
	<path class="st4" d="M99.88,18.21l-1.15-0.39c-2.95-1.01-5.19-3.63-5.98-7L92.56,10c-0.1-0.44-0.5-0.75-0.95-0.76c0,0,0,0-0.01,0
		c-0.45,0-0.84,0.31-0.95,0.74l-0.26,1.05c-0.87,3.49-3.35,6.18-6.46,7.01l-0.54,0.15c-0.43,0.12-0.73,0.51-0.72,0.96
		c0.01,0.45,0.32,0.84,0.75,0.94l0.33,0.08c3.31,0.79,5.96,3.71,6.76,7.43l0.14,0.66c0.1,0.45,0.5,0.77,0.96,0.77c0,0,0,0,0,0
		c0.46,0,0.86-0.33,0.96-0.78l0.12-0.58c0.81-3.9,3.59-6.87,7.07-7.57c0.43-0.09,0.76-0.45,0.79-0.9
		C100.57,18.76,100.3,18.35,99.88,18.21z M96.74,19.1c-2.24,1.15-4.05,3.11-5.14,5.57c-1.08-2.42-2.89-4.38-5.09-5.54
		c2.22-1.16,4.02-3.14,5.1-5.59C92.69,15.99,94.49,17.94,96.74,19.1z"/>
	<path class="st3" d="M253.15,13.53c-1.08,2.45-2.88,4.43-5.1,5.59c2.21,1.16,4.01,3.12,5.1,5.54c1.09-2.46,2.91-4.42,5.14-5.57
		C256.03,17.94,254.23,15.99,253.15,13.53z"/>
	<path class="st4" d="M261.43,18.21l-1.15-0.39c-2.95-1.01-5.19-3.63-5.98-7L254.1,10c-0.1-0.44-0.5-0.75-0.95-0.76
		c-0.46,0.02-0.85,0.3-0.96,0.74l-0.26,1.05c-0.87,3.49-3.35,6.18-6.46,7.01l-0.54,0.15c-0.43,0.12-0.73,0.51-0.73,0.96
		c0.01,0.45,0.32,0.84,0.75,0.94l0.33,0.08c3.31,0.79,5.96,3.71,6.76,7.43l0.14,0.66c0.1,0.45,0.5,0.77,0.96,0.77c0,0,0,0,0,0
		c0.46,0,0.86-0.33,0.96-0.78l0.12-0.58c0.81-3.9,3.59-6.87,7.07-7.57c0.43-0.09,0.76-0.45,0.79-0.9
		C262.12,18.76,261.85,18.35,261.43,18.21z M258.29,19.1c-2.24,1.15-4.05,3.11-5.14,5.57c-1.08-2.42-2.89-4.38-5.1-5.54
		c2.22-1.16,4.02-3.14,5.1-5.59C254.23,15.99,256.03,17.94,258.29,19.1z"/>
	<path class="st3" d="M333.92,13.53c-1.08,2.45-2.88,4.43-5.1,5.59c2.21,1.16,4.01,3.12,5.1,5.54c1.09-2.46,2.91-4.42,5.14-5.57
		C336.8,17.94,335,15.99,333.92,13.53z"/>
	<path class="st4" d="M342.2,18.21l-1.15-0.39c-2.95-1.01-5.19-3.63-5.98-7L334.87,10c-0.1-0.44-0.5-0.75-0.95-0.76
		c-0.44,0.02-0.85,0.3-0.96,0.74l-0.26,1.05c-0.87,3.49-3.35,6.18-6.46,7.01l-0.54,0.15c-0.43,0.12-0.73,0.51-0.73,0.96
		c0.01,0.45,0.32,0.84,0.75,0.94l0.33,0.08c3.31,0.79,5.96,3.71,6.76,7.43l0.14,0.66c0.1,0.45,0.5,0.77,0.96,0.77c0,0,0,0,0,0
		c0.46,0,0.86-0.33,0.96-0.78l0.12-0.59c0.81-3.9,3.59-6.87,7.07-7.57c0.43-0.09,0.76-0.45,0.79-0.9
		C342.89,18.76,342.62,18.35,342.2,18.21z M339.06,19.1c-2.24,1.15-4.05,3.12-5.14,5.57c-1.08-2.42-2.89-4.38-5.1-5.54
		c2.22-1.16,4.02-3.14,5.1-5.59C335,15.99,336.8,17.94,339.06,19.1z"/>
	<path class="st3" d="M414.69,13.53c-1.08,2.45-2.88,4.43-5.1,5.59c2.21,1.15,4.01,3.12,5.1,5.54c1.09-2.46,2.91-4.42,5.14-5.57
		C417.57,17.94,415.77,15.99,414.69,13.53z"/>
	<path class="st4" d="M422.97,18.21l-1.15-0.39c-2.95-1.01-5.19-3.63-5.98-7L415.64,10c-0.1-0.44-0.5-0.75-0.95-0.76c0,0,0,0-0.01,0
		c-0.45,0-0.84,0.31-0.95,0.74l-0.26,1.05c-0.87,3.49-3.35,6.18-6.46,7.01l-0.54,0.15c-0.43,0.12-0.73,0.51-0.73,0.96
		c0.01,0.45,0.32,0.84,0.75,0.94l0.33,0.08c3.31,0.79,5.96,3.71,6.76,7.43l0.14,0.66c0.1,0.45,0.5,0.77,0.96,0.77c0,0,0,0,0,0
		c0.46,0,0.86-0.33,0.96-0.78l0.12-0.58c0.81-3.9,3.59-6.87,7.07-7.57c0.43-0.09,0.76-0.45,0.79-0.9
		C423.66,18.76,423.39,18.35,422.97,18.21z M419.83,19.1c-2.24,1.15-4.05,3.12-5.14,5.57c-1.08-2.42-2.89-4.39-5.1-5.54
		c2.22-1.16,4.02-3.14,5.1-5.59C415.77,15.99,417.57,17.94,419.83,19.1z"/>
	<path class="st3" d="M172.37,13.53c-1.08,2.45-2.88,4.43-5.1,5.59c2.21,1.16,4.01,3.12,5.1,5.54c1.09-2.46,2.91-4.42,5.14-5.57
		C175.26,17.94,173.46,15.99,172.37,13.53z"/>
	<path class="st4" d="M180.66,18.21l-1.15-0.39c-2.95-1.01-5.19-3.63-5.98-7L173.33,10c-0.1-0.44-0.5-0.75-0.95-0.76c0,0,0,0-0.01,0
		c-0.45,0-0.84,0.31-0.95,0.74l-0.26,1.05c-0.87,3.49-3.35,6.18-6.46,7.01l-0.54,0.15c-0.43,0.12-0.73,0.51-0.73,0.96
		c0.01,0.45,0.32,0.84,0.75,0.94l0.33,0.08c3.31,0.79,5.96,3.71,6.76,7.43l0.14,0.66c0.1,0.45,0.5,0.77,0.96,0.77c0,0,0,0,0,0
		c0.46,0,0.86-0.33,0.96-0.78l0.12-0.58c0.81-3.9,3.59-6.87,7.07-7.57c0.43-0.09,0.76-0.45,0.79-0.9
		C181.35,18.76,181.07,18.35,180.66,18.21z M177.51,19.1c-2.24,1.15-4.05,3.11-5.14,5.57c-1.08-2.42-2.89-4.38-5.1-5.54
		c2.22-1.16,4.02-3.14,5.1-5.59C173.46,15.99,175.26,17.94,177.51,19.1z"/>
	<path class="st5" d="M32.35,16.88c-0.97-0.57-2.4-0.44-3.18,0.41c-0.72,0.79-0.96,1.87-0.54,2.86c0.52,1.23,1.8,1.82,3.09,1.52
		c0.02,0,0.04-0.01,0.06-0.01c0.82-0.19,1.57-0.94,1.76-1.76c0-0.02,0.01-0.04,0.01-0.06C33.82,18.7,33.38,17.48,32.35,16.88z"/>
	<path class="st5" d="M72.73,16.88c-0.97-0.57-2.4-0.44-3.18,0.41c-0.72,0.79-0.96,1.87-0.54,2.86c0.52,1.23,1.8,1.82,3.09,1.52
		c0.02,0,0.04-0.01,0.06-0.01c0.82-0.19,1.57-0.94,1.76-1.76c0-0.02,0.01-0.04,0.01-0.06C74.2,18.7,73.77,17.48,72.73,16.88z"/>
	<path class="st5" d="M113.12,16.88c-0.97-0.57-2.4-0.44-3.18,0.41c-0.72,0.79-0.96,1.87-0.54,2.86c0.52,1.23,1.8,1.82,3.09,1.52
		c0.02,0,0.04-0.01,0.06-0.01c0.82-0.19,1.57-0.94,1.76-1.76c0-0.02,0.01-0.04,0.01-0.06C114.59,18.7,114.15,17.48,113.12,16.88z"/>
	<path class="st5" d="M153.51,16.88c-0.97-0.57-2.4-0.44-3.18,0.41c-0.72,0.79-0.96,1.87-0.54,2.86c0.52,1.23,1.8,1.82,3.09,1.52
		c0.02,0,0.04-0.01,0.06-0.01c0.82-0.19,1.57-0.94,1.76-1.76c0-0.02,0.01-0.04,0.01-0.06C154.97,18.7,154.54,17.48,153.51,16.88z"/>
	<path class="st5" d="M193.89,16.88c-0.97-0.57-2.4-0.44-3.18,0.41c-0.72,0.79-0.96,1.87-0.54,2.86c0.52,1.23,1.8,1.82,3.09,1.52
		c0.02,0,0.04-0.01,0.06-0.01c0.82-0.19,1.57-0.94,1.76-1.76c0-0.02,0.01-0.04,0.01-0.06C195.36,18.7,194.93,17.48,193.89,16.88z"/>
	<path class="st5" d="M234.28,16.88c-0.97-0.57-2.4-0.44-3.18,0.41c-0.72,0.79-0.96,1.87-0.54,2.86c0.52,1.23,1.8,1.82,3.09,1.52
		c0.02,0,0.04-0.01,0.06-0.01c0.82-0.19,1.57-0.94,1.76-1.76c0-0.02,0.01-0.04,0.01-0.06C235.74,18.7,235.31,17.48,234.28,16.88z"/>
	<path class="st5" d="M274.66,16.88c-0.97-0.57-2.4-0.44-3.18,0.41c-0.72,0.79-0.96,1.87-0.54,2.86c0.52,1.23,1.8,1.82,3.09,1.52
		c0.02,0,0.04-0.01,0.06-0.01c0.82-0.19,1.57-0.94,1.76-1.76c0-0.02,0.01-0.04,0.01-0.06C276.13,18.7,275.7,17.48,274.66,16.88z"/>
	<path class="st5" d="M315.05,16.88c-0.97-0.57-2.4-0.44-3.18,0.41c-0.72,0.79-0.96,1.87-0.54,2.86c0.52,1.23,1.8,1.82,3.09,1.52
		c0.02,0,0.04-0.01,0.06-0.01c0.82-0.19,1.57-0.94,1.76-1.76c0-0.02,0.01-0.04,0.01-0.06C316.52,18.7,316.08,17.48,315.05,16.88z"/>
	<path class="st5" d="M355.43,16.88c-0.97-0.57-2.4-0.44-3.18,0.41c-0.72,0.79-0.96,1.87-0.54,2.86c0.52,1.23,1.8,1.82,3.09,1.52
		c0.02,0,0.04-0.01,0.06-0.01c0.82-0.19,1.57-0.94,1.76-1.76c0-0.02,0.01-0.04,0.01-0.06C356.9,18.7,356.47,17.48,355.43,16.88z"/>
	<path class="st5" d="M395.82,16.88c-0.97-0.57-2.4-0.44-3.18,0.41c-0.72,0.79-0.96,1.87-0.54,2.86c0.52,1.23,1.8,1.82,3.09,1.52
		c0.02,0,0.04-0.01,0.06-0.01c0.82-0.19,1.57-0.94,1.76-1.76c0-0.02,0.01-0.04,0.01-0.06C397.29,18.7,396.85,17.48,395.82,16.88z"/>
	<path class="st5" d="M436.2,16.88c-0.97-0.57-2.4-0.44-3.18,0.41c-0.72,0.79-0.96,1.87-0.54,2.86c0.52,1.23,1.8,1.82,3.09,1.52
		c0.02,0,0.04-0.01,0.06-0.01c0.82-0.19,1.57-0.94,1.76-1.76c0-0.02,0.01-0.04,0.01-0.06C437.67,18.7,437.24,17.48,436.2,16.88z"/>
	<path class="st5" d="M476.59,16.88c-0.97-0.57-2.4-0.44-3.18,0.41c-0.72,0.79-0.96,1.87-0.54,2.86c0.52,1.23,1.8,1.82,3.09,1.52
		c0.02,0,0.04-0.01,0.06-0.01c0.82-0.19,1.57-0.94,1.76-1.76c0-0.02,0.01-0.04,0.01-0.06C478.06,18.7,477.63,17.48,476.59,16.88z"/>
	<path class="st1" d="M622.86,14.5c-1.25-1.4-3.4-1.53-4.8-0.29l-0.79,0.7c-0.37,0.33-0.93,0.33-1.3,0l-0.79-0.7
		c-0.65-0.57-1.45-0.86-2.26-0.86c-0.94,0-1.87,0.39-2.55,1.14c-0.6,0.68-0.91,1.55-0.85,2.46c0.05,0.91,0.46,1.74,1.14,2.34
		l5.96,5.29l5.96-5.29c0.68-0.6,1.08-1.43,1.14-2.34C623.77,16.05,623.47,15.18,622.86,14.5z"/>
	<path class="st2" d="M616.76,12.74l-0.14,0.13l-0.14-0.13c-2.21-1.96-5.61-1.76-7.57,0.45c-0.95,1.07-1.43,2.45-1.34,3.88
		c0.09,1.43,0.72,2.74,1.79,3.69l6.61,5.87c0.19,0.16,0.42,0.25,0.65,0.25c0.23,0,0.47-0.08,0.65-0.25l6.61-5.87
		c1.07-0.95,1.71-2.26,1.79-3.69c0.09-1.43-0.39-2.81-1.34-3.88C622.37,10.98,618.97,10.78,616.76,12.74z M616.62,24.59l-5.96-5.29
		c-0.68-0.6-1.08-1.43-1.14-2.34c-0.05-0.91,0.25-1.78,0.85-2.46c0.67-0.76,1.61-1.14,2.55-1.14c0.8,0,1.61,0.28,2.26,0.86l0.79,0.7
		c0.37,0.33,0.93,0.33,1.3,0l0.79-0.7c1.4-1.25,3.56-1.12,4.8,0.29c0.6,0.68,0.91,1.55,0.85,2.46c-0.05,0.91-0.46,1.74-1.14,2.34
		L616.62,24.59z"/>
	<path class="st1" d="M542.94,16.96c0.05-0.91-0.25-1.78-0.85-2.46c-1.25-1.4-3.4-1.53-4.8-0.29l-0.79,0.7
		c-0.37,0.33-0.93,0.33-1.3,0l-0.79-0.7c-0.65-0.57-1.45-0.86-2.26-0.86c-0.94,0-1.87,0.39-2.55,1.14c-0.6,0.68-0.91,1.55-0.85,2.46
		c0.05,0.91,0.46,1.74,1.14,2.34l5.96,5.29l5.96-5.29C542.49,18.69,542.89,17.86,542.94,16.96z"/>
	<path class="st2" d="M535.99,12.74l-0.14,0.13l-0.14-0.13c-2.21-1.96-5.61-1.76-7.57,0.45c-0.95,1.07-1.43,2.45-1.34,3.88
		c0.09,1.43,0.72,2.74,1.79,3.69l6.61,5.87c0.19,0.16,0.42,0.25,0.65,0.25s0.47-0.08,0.65-0.25l6.61-5.87
		c1.07-0.95,1.71-2.26,1.79-3.69c0.09-1.43-0.39-2.81-1.34-3.88C541.6,10.98,538.2,10.78,535.99,12.74z M529.89,19.3
		c-0.68-0.6-1.08-1.43-1.14-2.34c-0.05-0.91,0.25-1.78,0.85-2.46c0.67-0.76,1.61-1.14,2.55-1.14c0.8,0,1.61,0.28,2.26,0.86l0.79,0.7
		c0.37,0.33,0.93,0.33,1.3,0l0.79-0.7c1.4-1.25,3.56-1.12,4.8,0.29c0.6,0.68,0.91,1.55,0.85,2.46c-0.05,0.91-0.46,1.74-1.14,2.34
		l-5.96,5.29L529.89,19.3z"/>
	<path class="st3" d="M495.46,13.53c-1.08,2.45-2.88,4.43-5.1,5.59c2.21,1.16,4.01,3.12,5.09,5.54c1.09-2.46,2.91-4.42,5.14-5.57
		C498.35,17.94,496.54,15.99,495.46,13.53z"/>
	<path class="st4" d="M503.74,18.21l-1.15-0.39c-2.95-1.01-5.19-3.63-5.98-7L496.42,10c-0.1-0.44-0.5-0.75-0.95-0.76c0,0,0,0-0.01,0
		c-0.45,0-0.84,0.31-0.95,0.74l-0.26,1.05c-0.87,3.49-3.35,6.18-6.46,7.01l-0.54,0.15c-0.43,0.12-0.73,0.51-0.73,0.96
		c0.01,0.45,0.32,0.84,0.75,0.94l0.33,0.08c3.31,0.79,5.96,3.71,6.76,7.43l0.14,0.66c0.1,0.45,0.5,0.77,0.96,0.77c0,0,0,0,0,0
		c0.46,0,0.86-0.33,0.96-0.78l0.12-0.59c0.81-3.9,3.59-6.87,7.07-7.57c0.43-0.09,0.76-0.45,0.79-0.9
		C504.43,18.76,504.16,18.35,503.74,18.21z M500.6,19.1c-2.24,1.15-4.05,3.11-5.14,5.57c-1.08-2.42-2.89-4.38-5.09-5.54
		c2.22-1.16,4.02-3.14,5.1-5.59C496.54,15.99,498.35,17.94,500.6,19.1z"/>
	<path class="st3" d="M576.23,13.53c-1.08,2.45-2.88,4.43-5.1,5.59c2.21,1.15,4.01,3.12,5.1,5.54c1.09-2.46,2.91-4.42,5.14-5.57
		C579.12,17.94,577.31,15.99,576.23,13.53z"/>
	<path class="st4" d="M584.51,18.21l-1.15-0.39c-2.95-1.01-5.19-3.63-5.98-7L577.19,10c-0.1-0.44-0.5-0.75-0.95-0.76c0,0,0,0-0.01,0
		c-0.45,0-0.84,0.31-0.95,0.74l-0.26,1.05c-0.87,3.49-3.35,6.18-6.46,7.01l-0.54,0.15c-0.43,0.12-0.73,0.51-0.73,0.96
		c0.01,0.45,0.32,0.84,0.75,0.94l0.33,0.08c3.31,0.79,5.96,3.71,6.76,7.43l0.14,0.66c0.1,0.45,0.5,0.77,0.96,0.77c0,0,0,0,0,0
		c0.46,0,0.86-0.33,0.96-0.78l0.12-0.58c0.81-3.9,3.59-6.87,7.07-7.57c0.43-0.09,0.76-0.45,0.79-0.9
		C585.2,18.76,584.93,18.35,584.51,18.21z M581.37,19.1c-2.24,1.15-4.05,3.12-5.14,5.57c-1.08-2.42-2.89-4.39-5.1-5.54
		c2.22-1.16,4.02-3.14,5.1-5.59C577.31,15.99,579.12,17.94,581.37,19.1z"/>
	<path class="st5" d="M516.98,16.88c-0.97-0.57-2.4-0.44-3.18,0.41c-0.72,0.79-0.96,1.87-0.54,2.86c0.52,1.23,1.8,1.82,3.09,1.52
		c0.02,0,0.04-0.01,0.06-0.01c0.82-0.19,1.57-0.94,1.76-1.76c0-0.02,0.01-0.04,0.01-0.06C518.44,18.7,518.01,17.48,516.98,16.88z"/>
	<path class="st5" d="M557.36,16.88c-0.97-0.57-2.4-0.44-3.18,0.41c-0.72,0.79-0.96,1.87-0.54,2.86c0.52,1.23,1.8,1.82,3.09,1.52
		c0.02,0,0.04-0.01,0.06-0.01c0.82-0.19,1.57-0.94,1.76-1.76c0-0.02,0.01-0.04,0.01-0.06C558.83,18.7,558.4,17.48,557.36,16.88z"/>
	<path class="st5" d="M597.75,16.88c-0.97-0.57-2.4-0.44-3.18,0.41c-0.72,0.79-0.96,1.87-0.54,2.86c0.52,1.23,1.8,1.82,3.09,1.52
		c0.02,0,0.04-0.01,0.06-0.01c0.82-0.19,1.57-0.94,1.76-1.76c0-0.02,0.01-0.04,0.01-0.06C599.21,18.7,598.78,17.48,597.75,16.88z"/>
	<path class="st5" d="M638.13,16.88c-0.97-0.57-2.4-0.44-3.18,0.41c-0.72,0.79-0.96,1.87-0.54,2.86c0.52,1.23,1.8,1.82,3.09,1.52
		c0.02,0,0.04-0.01,0.06-0.01c0.82-0.19,1.57-0.94,1.76-1.76c0-0.02,0.01-0.04,0.01-0.06C639.6,18.7,639.17,17.48,638.13,16.88z"/>
</g>
<g>
	<path class="st6" d="M19.93,11.33c-1.07,1.57-2.14,3.12-3.2,4.69c0.81-1.94,1.63-3.88,2.44-5.82c0.41-0.97-0.63-2.06-1.32-1.21
		c-0.64,0.79-1.23,1.63-1.79,2.48c0.34-0.77,0.68-1.54,0.99-2.32c0.33-0.81-0.51-1.73-1.11-1.01c-1.61,1.95-3.08,3.95-4.45,6.02
		c0.92-2.34,1.86-4.68,2.79-7.02c0.44-1.1-0.8-2.53-1.55-1.42c-0.05,0.08-0.1,0.16-0.15,0.24l0,0c0,0,0,0,0,0.01
		c-2.19,3.29-3.75,6.92-5.6,10.47c-1.49,2.86-3.51,5.54-4.04,8.92c-0.19,1.19,1.19,1.65,1.54,0.5c0.56-1.87,1.49-3.51,2.47-5.11
		c-0.78,2.18-1.52,4.38-2.19,6.62c-0.41,1.37,1.36,1.87,1.81,0.59c1.41-4.06,3.28-8.17,5.52-11.9c-0.34,0.74-0.7,1.46-1.03,2.21
		c-1.21,2.69-1.89,5.72-3.28,8.27c-0.6,1.11,0.84,2.04,1.47,1.01c0.88-1.44,1.69-2.94,2.48-4.47c-0.63,1.5-1.28,2.99-1.9,4.5
		c-0.53,1.29,1.02,2.41,1.65,1.14c2.79-5.68,6.47-10.56,10-15.59C22.33,11.87,20.79,10.06,19.93,11.33z"/>
	<path class="st7" d="M41.57,31.27c2.29-4.04,4.38-8.57,6.39-12.82c0.55-1.16-0.43-2.21-1.28-2.06c0.38-1,0.71-2,0.96-3.01
		c0.39-1.57-1.62-2.57-2.27-1.09c-0.68,1.57-1.54,3.01-2.37,4.46c0.62-1.78,1.3-3.54,2.11-5.23c0.73-1.54-1.17-2.75-2-1.34
		c-0.75,1.28-1.49,2.59-2.18,3.92c0.59-1.87,1.22-3.72,1.95-5.53c0.51-1.27-0.93-2.87-1.8-1.62C41,7.08,40.93,7.2,40.85,7.31
		c0.22-0.53,0.44-1.06,0.65-1.58c0.43-1.09-0.83-1.96-1.39-0.93c-1.86,3.44-3.41,7.05-5.03,10.66c-1.16,2.57-2.43,5.09-2.92,7.97
		c-0.21,1.24,1.21,2.57,2.02,1.37c0.81-1.22,1.53-2.5,2.2-3.81c-0.77,2.13-1.61,4.37-1.39,6.63c0.11,1.09,1.1,1.66,1.78,1.05
		c-0.05,0.28-0.1,0.55-0.14,0.83c-0.17,1.33,1.14,2.52,2.06,1.39c0.22-0.28,0.43-0.56,0.64-0.85c-0.01,0.18-0.03,0.35-0.04,0.53
		C39.24,32.1,40.94,32.38,41.57,31.27z"/>
	<path class="st8" d="M74.88,10.52c-3.47,4.81-4.48,11.4-7.41,16.52c0.18-0.97,0.41-1.92,0.69-2.86c2.12-4.02,3.77-8.37,5.31-12.77
		c0.42-1.19-1.29-2.04-1.77-0.88c-0.11,0.26-0.22,0.52-0.33,0.78c0.5-1.03-0.69-2.13-1.41-1.27c-2.83,3.4-4.87,7.46-6.93,11.5
		c1.15-3.43,2.71-6.72,4.21-9.84c0.44-0.92-0.69-1.67-1.19-0.82c-3.1,5.33-6.04,11.37-6.75,17.89c-0.14,1.33,1.42,1.49,1.93,0.62
		c1.55-2.61,2.88-5.39,4.24-8.14c-0.67,2.18-1.26,4.4-1.8,6.65c-0.24,1.02,0.96,1.98,1.58,1.09c0.04-0.05,0.07-0.11,0.11-0.16
		c-0.04,0.56-0.06,1.13-0.06,1.71c0.01,0.93,0.97,1.39,1.53,0.75c4.25-4.82,5.18-12.05,8.49-17.59c0.38,0.01,0.78-0.22,0.9-0.72
		c0.11-0.43,0.21-0.86,0.32-1.28C76.84,10.59,75.55,9.6,74.88,10.52z"/>
	<path class="st9" d="M104.93,12.73c0.15-1.07-1.01-1.77-1.53-0.76c-0.78,1.5-1.65,2.93-2.51,4.38c0.41-1.35,0.78-2.73,1.03-4.15
		c0.2-1.11-1.18-1.97-1.64-0.82c-1.71,4.2-3.63,8.35-5.87,12.22c1.53-3.97,3.15-7.9,4.67-11.88c0.24-0.63-0.44-1.43-0.88-0.8
		c-1.88,2.63-3.52,5.36-5.23,8.14c-0.48,0.78-0.99,1.54-1.5,2.29c1.81-3.6,3.94-7.05,5.19-10.97c0.24-0.76-0.76-1.22-1.09-0.54
		c-3.11,6.34-7.86,11.78-8.92,19.25c-0.16,1.16,1.2,2.07,1.73,0.86c1.44-3.27,3.47-5.99,5.24-9c0.1-0.16,0.18-0.33,0.28-0.49
		c-1.25,3.01-2.4,6.08-3.37,9.25c-0.27,0.87,0.78,1.53,1.29,0.89c1.57-1.95,2.98-4.04,4.28-6.23c-0.46,1.4-0.87,2.82-1.15,4.3
		c-0.25,1.31,1.14,1.93,1.78,0.89c0.38-0.63,0.73-1.28,1.05-1.95c-0.15,0.69-0.28,1.38-0.38,2.08c-0.14,1,1.11,1.87,1.52,0.76
		c0.14-0.37,0.28-0.74,0.41-1.11c0.1-0.27,0.09-0.52,0.02-0.73c0.69-3.01,1.71-5.96,2.98-8.67
		C103.4,17.58,104.55,15.39,104.93,12.73z"/>
	<path class="st6" d="M131.22,11.33c-1.07,1.57-2.14,3.12-3.2,4.69c0.81-1.94,1.63-3.88,2.44-5.82c0.41-0.97-0.63-2.06-1.32-1.21
		c-0.64,0.79-1.23,1.63-1.79,2.48c0.34-0.77,0.68-1.54,0.99-2.32c0.33-0.81-0.51-1.73-1.11-1.01c-1.61,1.95-3.08,3.95-4.45,6.02
		c0.92-2.34,1.86-4.68,2.79-7.02c0.44-1.1-0.8-2.53-1.55-1.42c-0.05,0.08-0.1,0.16-0.15,0.24l0,0c0,0,0,0,0,0.01
		c-2.19,3.29-3.75,6.92-5.6,10.47c-1.49,2.86-3.51,5.54-4.04,8.92c-0.19,1.19,1.19,1.65,1.54,0.5c0.56-1.87,1.49-3.51,2.47-5.11
		c-0.78,2.18-1.52,4.38-2.19,6.62c-0.41,1.37,1.36,1.87,1.81,0.59c1.41-4.06,3.28-8.17,5.52-11.9c-0.34,0.74-0.7,1.46-1.03,2.21
		c-1.21,2.69-1.89,5.72-3.28,8.27c-0.6,1.11,0.84,2.04,1.47,1.01c0.88-1.44,1.69-2.94,2.48-4.47c-0.63,1.5-1.28,2.99-1.9,4.5
		c-0.53,1.29,1.02,2.41,1.65,1.14c2.79-5.68,6.47-10.56,10-15.59C133.62,11.87,132.08,10.06,131.22,11.33z"/>
	<path class="st7" d="M152.86,31.27c2.29-4.04,4.38-8.57,6.39-12.82c0.55-1.16-0.43-2.21-1.28-2.06c0.38-1,0.71-2,0.96-3.01
		c0.39-1.57-1.62-2.57-2.27-1.09c-0.68,1.57-1.54,3.01-2.37,4.46c0.62-1.78,1.3-3.54,2.11-5.23c0.73-1.54-1.17-2.75-2-1.34
		c-0.75,1.28-1.49,2.59-2.18,3.92c0.59-1.87,1.22-3.72,1.95-5.53c0.51-1.27-0.93-2.87-1.8-1.62c-0.08,0.12-0.16,0.24-0.23,0.35
		c0.22-0.53,0.44-1.06,0.65-1.58c0.43-1.09-0.83-1.96-1.39-0.93c-1.86,3.44-3.41,7.05-5.03,10.66c-1.15,2.57-2.43,5.09-2.92,7.97
		c-0.21,1.24,1.21,2.57,2.02,1.37c0.81-1.22,1.53-2.5,2.2-3.81c-0.77,2.13-1.61,4.37-1.39,6.63c0.11,1.09,1.1,1.66,1.78,1.05
		c-0.05,0.28-0.1,0.55-0.14,0.83c-0.17,1.33,1.14,2.52,2.06,1.39c0.22-0.28,0.43-0.56,0.64-0.85c-0.01,0.18-0.03,0.35-0.04,0.53
		C150.53,32.1,152.23,32.38,152.86,31.27z"/>
	<path class="st8" d="M186.18,10.52c-3.47,4.81-4.48,11.4-7.41,16.52c0.18-0.97,0.41-1.92,0.69-2.86c2.12-4.02,3.77-8.37,5.31-12.77
		c0.42-1.19-1.29-2.04-1.77-0.88c-0.11,0.26-0.22,0.52-0.33,0.78c0.5-1.03-0.69-2.13-1.41-1.27c-2.83,3.4-4.87,7.46-6.93,11.5
		c1.15-3.43,2.71-6.72,4.21-9.84c0.44-0.92-0.69-1.67-1.19-0.82c-3.1,5.33-6.04,11.37-6.75,17.89c-0.14,1.33,1.42,1.49,1.93,0.62
		c1.55-2.61,2.88-5.39,4.24-8.14c-0.67,2.18-1.26,4.4-1.8,6.65c-0.24,1.02,0.96,1.98,1.58,1.09c0.04-0.05,0.07-0.11,0.11-0.16
		c-0.04,0.56-0.06,1.13-0.06,1.71c0.01,0.93,0.97,1.39,1.53,0.75c4.25-4.82,5.18-12.05,8.49-17.59c0.38,0.01,0.78-0.22,0.9-0.72
		c0.11-0.43,0.21-0.86,0.32-1.28C188.13,10.59,186.84,9.6,186.18,10.52z"/>
	<path class="st9" d="M216.22,12.73c0.15-1.07-1.01-1.77-1.53-0.76c-0.78,1.5-1.65,2.93-2.51,4.38c0.41-1.35,0.78-2.73,1.03-4.15
		c0.2-1.11-1.18-1.97-1.64-0.82c-1.71,4.2-3.63,8.35-5.87,12.22c1.53-3.97,3.15-7.9,4.67-11.88c0.24-0.63-0.44-1.43-0.88-0.8
		c-1.88,2.63-3.52,5.36-5.23,8.14c-0.48,0.78-0.99,1.54-1.5,2.29c1.81-3.6,3.94-7.05,5.19-10.97c0.24-0.76-0.76-1.22-1.09-0.54
		c-3.11,6.34-7.86,11.78-8.92,19.25c-0.16,1.16,1.2,2.07,1.73,0.86c1.44-3.27,3.47-5.99,5.24-9c0.1-0.16,0.18-0.33,0.28-0.49
		c-1.25,3.01-2.4,6.08-3.37,9.25c-0.27,0.87,0.78,1.53,1.29,0.89c1.57-1.95,2.98-4.04,4.28-6.23c-0.46,1.4-0.87,2.82-1.15,4.3
		c-0.25,1.31,1.14,1.93,1.78,0.89c0.38-0.63,0.73-1.28,1.05-1.95c-0.15,0.69-0.28,1.38-0.38,2.08c-0.14,1,1.11,1.87,1.52,0.76
		c0.14-0.37,0.28-0.74,0.41-1.11c0.1-0.27,0.09-0.52,0.02-0.73c0.69-3.01,1.71-5.96,2.98-8.67
		C214.69,17.58,215.84,15.39,216.22,12.73z"/>
	<path class="st6" d="M242.51,11.33c-1.07,1.57-2.14,3.12-3.2,4.69c0.81-1.94,1.63-3.88,2.44-5.82c0.41-0.97-0.63-2.06-1.32-1.21
		c-0.64,0.79-1.23,1.63-1.79,2.48c0.34-0.77,0.68-1.54,0.99-2.32c0.33-0.81-0.51-1.73-1.11-1.01c-1.61,1.95-3.08,3.95-4.45,6.02
		c0.92-2.34,1.86-4.68,2.79-7.02c0.44-1.1-0.8-2.53-1.55-1.42c-0.05,0.08-0.1,0.16-0.15,0.24l0,0c0,0,0,0,0,0.01
		c-2.19,3.29-3.75,6.92-5.6,10.47c-1.49,2.86-3.51,5.54-4.04,8.92c-0.19,1.19,1.19,1.65,1.54,0.5c0.56-1.87,1.49-3.51,2.47-5.11
		c-0.78,2.18-1.52,4.38-2.19,6.62c-0.41,1.37,1.36,1.87,1.81,0.59c1.41-4.06,3.28-8.17,5.52-11.9c-0.34,0.74-0.7,1.46-1.03,2.21
		c-1.21,2.69-1.89,5.72-3.28,8.27c-0.6,1.11,0.84,2.04,1.47,1.01c0.88-1.44,1.69-2.94,2.48-4.47c-0.63,1.5-1.28,2.99-1.9,4.5
		c-0.53,1.29,1.02,2.41,1.65,1.14c2.79-5.68,6.47-10.56,10-15.59C244.91,11.87,243.38,10.06,242.51,11.33z"/>
	<path class="st7" d="M264.15,31.27c2.29-4.04,4.38-8.57,6.39-12.82c0.55-1.16-0.43-2.21-1.28-2.06c0.38-1,0.71-2,0.96-3.01
		c0.39-1.57-1.62-2.57-2.27-1.09c-0.68,1.57-1.54,3.01-2.37,4.46c0.62-1.78,1.3-3.54,2.11-5.23c0.73-1.54-1.17-2.75-2-1.34
		c-0.75,1.28-1.49,2.59-2.18,3.92c0.59-1.87,1.22-3.72,1.95-5.53c0.51-1.27-0.93-2.87-1.8-1.62c-0.08,0.12-0.16,0.24-0.23,0.35
		c0.22-0.53,0.44-1.06,0.65-1.58c0.43-1.09-0.83-1.96-1.39-0.93c-1.86,3.44-3.41,7.05-5.03,10.66c-1.16,2.57-2.43,5.09-2.92,7.97
		c-0.21,1.24,1.21,2.57,2.02,1.37c0.81-1.22,1.53-2.5,2.2-3.81c-0.77,2.13-1.61,4.37-1.39,6.63c0.11,1.09,1.1,1.66,1.78,1.05
		c-0.05,0.28-0.1,0.55-0.14,0.83c-0.17,1.33,1.14,2.52,2.06,1.39c0.22-0.28,0.44-0.56,0.64-0.85c-0.01,0.18-0.03,0.35-0.04,0.53
		C261.82,32.1,263.52,32.38,264.15,31.27z"/>
	<path class="st8" d="M297.47,10.52c-3.47,4.81-4.48,11.4-7.41,16.52c0.18-0.97,0.41-1.92,0.69-2.86c2.12-4.02,3.77-8.37,5.31-12.77
		c0.42-1.19-1.29-2.04-1.77-0.88c-0.11,0.26-0.22,0.52-0.33,0.78c0.5-1.03-0.69-2.13-1.41-1.27c-2.83,3.4-4.87,7.46-6.93,11.5
		c1.15-3.43,2.71-6.72,4.21-9.84c0.44-0.92-0.69-1.67-1.19-0.82c-3.1,5.33-6.04,11.37-6.75,17.89c-0.14,1.33,1.42,1.49,1.93,0.62
		c1.55-2.61,2.88-5.39,4.24-8.14c-0.67,2.18-1.26,4.4-1.8,6.65c-0.24,1.02,0.96,1.98,1.58,1.09c0.04-0.05,0.07-0.11,0.11-0.16
		c-0.04,0.56-0.06,1.13-0.06,1.71c0.01,0.93,0.97,1.39,1.53,0.75c4.25-4.82,5.18-12.05,8.49-17.59c0.38,0.01,0.78-0.22,0.9-0.72
		c0.11-0.43,0.21-0.86,0.32-1.28C299.42,10.59,298.13,9.6,297.47,10.52z"/>
	<path class="st9" d="M327.51,12.73c0.15-1.07-1.01-1.77-1.53-0.76c-0.78,1.5-1.65,2.93-2.51,4.38c0.41-1.35,0.78-2.73,1.03-4.15
		c0.2-1.11-1.18-1.97-1.64-0.82c-1.71,4.2-3.63,8.35-5.87,12.22c1.53-3.97,3.15-7.9,4.67-11.88c0.24-0.63-0.44-1.43-0.88-0.8
		c-1.88,2.63-3.52,5.36-5.23,8.14c-0.48,0.78-0.99,1.54-1.5,2.29c1.81-3.6,3.94-7.05,5.19-10.97c0.24-0.76-0.76-1.22-1.09-0.54
		c-3.11,6.34-7.86,11.78-8.92,19.25c-0.16,1.16,1.2,2.07,1.73,0.86c1.44-3.27,3.47-5.99,5.24-9c0.1-0.16,0.18-0.33,0.28-0.49
		c-1.25,3.01-2.4,6.08-3.37,9.25c-0.27,0.87,0.78,1.53,1.29,0.89c1.57-1.95,2.98-4.04,4.28-6.23c-0.46,1.4-0.87,2.82-1.15,4.3
		c-0.25,1.31,1.14,1.93,1.78,0.89c0.38-0.63,0.73-1.28,1.05-1.95c-0.15,0.69-0.28,1.38-0.38,2.08c-0.14,1,1.11,1.87,1.52,0.76
		c0.14-0.37,0.28-0.74,0.41-1.11c0.1-0.27,0.09-0.52,0.02-0.73c0.69-3.01,1.71-5.96,2.98-8.67
		C325.99,17.58,327.13,15.39,327.51,12.73z"/>
	<path class="st6" d="M353.81,11.33c-1.07,1.57-2.14,3.12-3.2,4.69c0.81-1.94,1.63-3.88,2.44-5.82c0.41-0.97-0.63-2.06-1.32-1.21
		c-0.64,0.79-1.23,1.63-1.79,2.48c0.34-0.77,0.68-1.54,0.99-2.32c0.33-0.81-0.51-1.73-1.11-1.01c-1.61,1.95-3.08,3.95-4.45,6.02
		c0.92-2.34,1.86-4.68,2.79-7.02c0.44-1.1-0.8-2.53-1.55-1.42c-0.05,0.08-0.1,0.16-0.15,0.24l0,0c0,0,0,0,0,0.01
		c-2.19,3.29-3.75,6.92-5.6,10.47c-1.49,2.86-3.51,5.54-4.04,8.92c-0.19,1.19,1.19,1.65,1.54,0.5c0.56-1.87,1.49-3.51,2.47-5.11
		c-0.78,2.18-1.52,4.38-2.19,6.62c-0.41,1.37,1.36,1.87,1.81,0.59c1.41-4.06,3.28-8.17,5.52-11.9c-0.34,0.74-0.7,1.46-1.03,2.21
		c-1.21,2.69-1.89,5.72-3.28,8.27c-0.6,1.11,0.84,2.04,1.47,1.01c0.88-1.44,1.69-2.94,2.48-4.47c-0.63,1.5-1.28,2.99-1.9,4.5
		c-0.53,1.29,1.02,2.41,1.65,1.14c2.79-5.68,6.47-10.56,10-15.59C356.2,11.87,354.67,10.06,353.81,11.33z"/>
	<path class="st7" d="M375.44,31.27c2.29-4.04,4.38-8.57,6.39-12.82c0.55-1.16-0.43-2.21-1.28-2.06c0.38-1,0.71-2,0.96-3.01
		c0.39-1.57-1.62-2.57-2.27-1.09c-0.68,1.57-1.54,3.01-2.37,4.46c0.62-1.78,1.3-3.54,2.11-5.23c0.73-1.54-1.17-2.75-2-1.34
		c-0.75,1.28-1.49,2.59-2.18,3.92c0.59-1.87,1.22-3.72,1.95-5.53c0.51-1.27-0.93-2.87-1.8-1.62c-0.08,0.12-0.16,0.24-0.23,0.35
		c0.22-0.53,0.44-1.06,0.65-1.58c0.43-1.09-0.83-1.96-1.39-0.93c-1.86,3.44-3.41,7.05-5.03,10.66c-1.16,2.57-2.43,5.09-2.92,7.97
		c-0.21,1.24,1.21,2.57,2.02,1.37c0.81-1.22,1.53-2.5,2.2-3.81c-0.77,2.13-1.61,4.37-1.39,6.63c0.11,1.09,1.1,1.66,1.78,1.05
		c-0.05,0.28-0.1,0.55-0.14,0.83c-0.17,1.33,1.14,2.52,2.06,1.39c0.22-0.28,0.44-0.56,0.64-0.85c-0.01,0.18-0.03,0.35-0.04,0.53
		C373.11,32.1,374.82,32.38,375.44,31.27z"/>
	<path class="st8" d="M408.76,10.52c-3.47,4.81-4.48,11.4-7.41,16.52c0.18-0.97,0.41-1.92,0.69-2.86c2.12-4.02,3.77-8.37,5.31-12.77
		c0.42-1.19-1.29-2.04-1.77-0.88c-0.11,0.26-0.22,0.52-0.33,0.78c0.5-1.03-0.69-2.13-1.41-1.27c-2.83,3.4-4.87,7.46-6.93,11.5
		c1.15-3.43,2.71-6.72,4.21-9.84c0.44-0.92-0.69-1.67-1.19-0.82c-3.1,5.33-6.04,11.37-6.75,17.89c-0.14,1.33,1.42,1.49,1.93,0.62
		c1.55-2.61,2.88-5.39,4.24-8.14c-0.67,2.18-1.26,4.4-1.8,6.65c-0.24,1.02,0.96,1.98,1.58,1.09c0.04-0.05,0.07-0.11,0.11-0.16
		c-0.04,0.56-0.06,1.13-0.06,1.71c0.01,0.93,0.97,1.39,1.53,0.75c4.25-4.82,5.18-12.05,8.49-17.59c0.38,0.01,0.78-0.22,0.9-0.72
		c0.11-0.43,0.21-0.86,0.32-1.28C410.72,10.59,409.42,9.6,408.76,10.52z"/>
	<path class="st9" d="M438.8,12.73c0.15-1.07-1.01-1.77-1.53-0.76c-0.78,1.5-1.65,2.93-2.51,4.38c0.41-1.35,0.78-2.73,1.03-4.15
		c0.2-1.11-1.18-1.97-1.64-0.82c-1.71,4.2-3.63,8.35-5.87,12.22c1.53-3.97,3.15-7.9,4.67-11.88c0.24-0.63-0.44-1.43-0.88-0.8
		c-1.88,2.63-3.52,5.36-5.23,8.14c-0.48,0.78-0.99,1.54-1.5,2.29c1.81-3.6,3.94-7.05,5.19-10.97c0.24-0.76-0.76-1.22-1.09-0.54
		c-3.11,6.34-7.86,11.78-8.92,19.25c-0.16,1.16,1.2,2.07,1.73,0.86c1.44-3.27,3.47-5.99,5.24-9c0.1-0.16,0.18-0.33,0.28-0.49
		c-1.25,3.01-2.4,6.08-3.37,9.25c-0.27,0.87,0.78,1.53,1.29,0.89c1.57-1.95,2.98-4.04,4.28-6.23c-0.46,1.4-0.87,2.82-1.15,4.3
		c-0.25,1.31,1.14,1.93,1.78,0.89c0.38-0.63,0.73-1.28,1.05-1.95c-0.15,0.69-0.28,1.38-0.38,2.08c-0.14,1,1.11,1.87,1.52,0.76
		c0.14-0.37,0.28-0.74,0.41-1.11c0.1-0.27,0.09-0.52,0.02-0.73c0.69-3.01,1.71-5.96,2.98-8.67
		C437.28,17.58,438.43,15.39,438.8,12.73z"/>
	<path class="st6" d="M465.1,11.33c-1.07,1.57-2.14,3.12-3.2,4.69c0.81-1.94,1.63-3.88,2.44-5.82c0.41-0.97-0.63-2.06-1.32-1.21
		c-0.64,0.79-1.23,1.63-1.79,2.48c0.34-0.77,0.68-1.54,0.99-2.32c0.33-0.81-0.51-1.73-1.11-1.01c-1.61,1.95-3.08,3.95-4.45,6.02
		c0.92-2.34,1.86-4.68,2.79-7.02c0.44-1.1-0.8-2.53-1.55-1.42c-0.05,0.08-0.1,0.16-0.15,0.24l0,0c0,0,0,0,0,0.01
		c-2.19,3.29-3.75,6.92-5.6,10.47c-1.49,2.86-3.51,5.54-4.04,8.92c-0.19,1.19,1.19,1.65,1.54,0.5c0.56-1.87,1.49-3.51,2.47-5.11
		c-0.78,2.18-1.52,4.38-2.19,6.62c-0.41,1.37,1.36,1.87,1.81,0.59c1.41-4.06,3.28-8.17,5.52-11.9c-0.34,0.74-0.7,1.46-1.03,2.21
		c-1.21,2.69-1.89,5.72-3.28,8.27c-0.6,1.11,0.84,2.04,1.47,1.01c0.88-1.44,1.69-2.94,2.48-4.47c-0.63,1.5-1.28,2.99-1.9,4.5
		c-0.53,1.29,1.02,2.41,1.65,1.14c2.79-5.68,6.47-10.56,10-15.59C467.5,11.87,465.96,10.06,465.1,11.33z"/>
	<path class="st7" d="M486.74,31.27c2.29-4.04,4.38-8.57,6.39-12.82c0.55-1.16-0.43-2.21-1.28-2.06c0.38-1,0.71-2,0.96-3.01
		c0.39-1.57-1.62-2.57-2.27-1.09c-0.68,1.57-1.54,3.01-2.37,4.46c0.62-1.78,1.3-3.54,2.11-5.23c0.73-1.54-1.17-2.75-2-1.34
		c-0.75,1.28-1.49,2.59-2.18,3.92c0.59-1.87,1.22-3.72,1.95-5.53c0.51-1.27-0.93-2.87-1.8-1.62c-0.08,0.12-0.16,0.24-0.23,0.35
		c0.22-0.53,0.44-1.06,0.65-1.58c0.43-1.09-0.83-1.96-1.39-0.93c-1.86,3.44-3.41,7.05-5.03,10.66c-1.16,2.57-2.43,5.09-2.92,7.97
		c-0.21,1.24,1.21,2.57,2.02,1.37c0.81-1.22,1.53-2.5,2.2-3.81c-0.77,2.13-1.61,4.37-1.39,6.63c0.11,1.09,1.1,1.66,1.78,1.05
		c-0.05,0.28-0.1,0.55-0.14,0.83c-0.17,1.33,1.14,2.52,2.06,1.39c0.22-0.28,0.44-0.56,0.64-0.85c-0.01,0.18-0.03,0.35-0.04,0.53
		C484.4,32.1,486.11,32.38,486.74,31.27z"/>
	<path class="st8" d="M520.05,10.52c-3.47,4.81-4.48,11.4-7.41,16.52c0.18-0.97,0.41-1.92,0.69-2.86c2.12-4.02,3.77-8.37,5.31-12.77
		c0.42-1.19-1.29-2.04-1.77-0.88c-0.11,0.26-0.22,0.52-0.33,0.78c0.5-1.03-0.69-2.13-1.41-1.27c-2.83,3.4-4.87,7.46-6.93,11.5
		c1.15-3.43,2.71-6.72,4.21-9.84c0.44-0.92-0.69-1.67-1.19-0.82c-3.1,5.33-6.04,11.37-6.75,17.89c-0.14,1.33,1.42,1.49,1.93,0.62
		c1.55-2.61,2.88-5.39,4.24-8.14c-0.67,2.18-1.26,4.4-1.8,6.65c-0.24,1.02,0.96,1.98,1.58,1.09c0.04-0.05,0.07-0.11,0.11-0.16
		c-0.04,0.56-0.06,1.13-0.06,1.71c0.01,0.93,0.97,1.39,1.53,0.75c4.25-4.82,5.18-12.05,8.49-17.59c0.38,0.01,0.78-0.22,0.9-0.72
		c0.11-0.43,0.21-0.86,0.32-1.28C522.01,10.59,520.72,9.6,520.05,10.52z"/>
	<path class="st9" d="M550.09,12.73c0.15-1.07-1.01-1.77-1.53-0.76c-0.78,1.5-1.65,2.93-2.51,4.38c0.41-1.35,0.78-2.73,1.03-4.15
		c0.2-1.11-1.18-1.97-1.64-0.82c-1.71,4.2-3.63,8.35-5.87,12.22c1.53-3.97,3.15-7.9,4.67-11.88c0.24-0.63-0.44-1.43-0.88-0.8
		c-1.88,2.63-3.52,5.36-5.23,8.14c-0.48,0.78-0.99,1.54-1.5,2.29c1.81-3.6,3.94-7.05,5.19-10.97c0.24-0.76-0.76-1.22-1.09-0.54
		c-3.11,6.34-7.86,11.78-8.92,19.25c-0.16,1.16,1.2,2.07,1.73,0.86c1.44-3.27,3.47-5.99,5.24-9c0.1-0.16,0.18-0.33,0.28-0.49
		c-1.25,3.01-2.4,6.08-3.37,9.25c-0.27,0.87,0.78,1.53,1.29,0.89c1.57-1.95,2.98-4.04,4.28-6.23c-0.46,1.4-0.87,2.82-1.15,4.3
		c-0.25,1.31,1.14,1.93,1.78,0.89c0.38-0.63,0.73-1.28,1.05-1.95c-0.15,0.69-0.28,1.38-0.38,2.08c-0.14,1,1.11,1.87,1.52,0.76
		c0.14-0.37,0.28-0.74,0.41-1.11c0.1-0.27,0.09-0.52,0.02-0.73c0.69-3.01,1.71-5.96,2.98-8.67
		C548.57,17.58,549.72,15.39,550.09,12.73z"/>
	<path class="st9" d="M661.38,12.73c0.15-1.07-1.01-1.77-1.53-0.76c-0.78,1.5-1.65,2.93-2.51,4.38c0.41-1.35,0.78-2.73,1.03-4.15
		c0.2-1.11-1.18-1.97-1.64-0.82c-1.71,4.2-3.63,8.35-5.87,12.22c1.53-3.97,3.15-7.9,4.67-11.88c0.24-0.63-0.44-1.43-0.88-0.8
		c-1.88,2.63-3.52,5.36-5.23,8.14c-0.48,0.78-0.99,1.54-1.5,2.29c1.81-3.6,3.94-7.05,5.19-10.97c0.24-0.76-0.76-1.22-1.09-0.54
		c-3.11,6.34-7.86,11.78-8.92,19.25c-0.16,1.16,1.2,2.07,1.73,0.86c1.44-3.27,3.47-5.99,5.24-9c0.1-0.16,0.18-0.33,0.28-0.49
		c-1.25,3.01-2.4,6.08-3.37,9.25c-0.27,0.87,0.78,1.53,1.29,0.89c1.57-1.95,2.98-4.04,4.28-6.23c-0.46,1.4-0.87,2.82-1.15,4.3
		c-0.25,1.31,1.14,1.93,1.78,0.89c0.38-0.63,0.73-1.28,1.05-1.95c-0.15,0.69-0.28,1.38-0.38,2.08c-0.14,1,1.11,1.87,1.52,0.76
		c0.14-0.37,0.28-0.74,0.41-1.11c0.1-0.27,0.09-0.52,0.02-0.73c0.69-3.01,1.71-5.96,2.98-8.67
		C659.86,17.58,661.01,15.39,661.38,12.73z"/>
	<path class="st6" d="M576.39,11.33c-1.07,1.57-2.14,3.12-3.2,4.69c0.81-1.94,1.63-3.88,2.44-5.82c0.41-0.97-0.63-2.06-1.32-1.21
		c-0.64,0.79-1.23,1.63-1.79,2.48c0.34-0.77,0.68-1.54,0.99-2.32c0.33-0.81-0.51-1.73-1.11-1.01c-1.61,1.95-3.08,3.95-4.45,6.02
		c0.92-2.34,1.86-4.68,2.79-7.02c0.44-1.1-0.8-2.53-1.55-1.42c-0.05,0.08-0.1,0.16-0.15,0.24l0,0c0,0,0,0,0,0.01
		c-2.19,3.29-3.75,6.92-5.6,10.47c-1.49,2.86-3.51,5.54-4.04,8.92c-0.19,1.19,1.19,1.65,1.54,0.5c0.56-1.87,1.49-3.51,2.47-5.11
		c-0.78,2.18-1.52,4.38-2.19,6.62c-0.41,1.37,1.36,1.87,1.81,0.59c1.41-4.06,3.28-8.17,5.52-11.9c-0.34,0.74-0.7,1.46-1.03,2.21
		c-1.21,2.69-1.89,5.72-3.28,8.27c-0.6,1.11,0.84,2.04,1.47,1.01c0.88-1.44,1.69-2.94,2.48-4.47c-0.63,1.5-1.28,2.99-1.9,4.5
		c-0.53,1.29,1.02,2.41,1.65,1.14c2.79-5.68,6.47-10.56,10-15.59C578.79,11.87,577.25,10.06,576.39,11.33z"/>
	<path class="st7" d="M598.03,31.27c2.29-4.04,4.38-8.57,6.39-12.82c0.55-1.16-0.43-2.21-1.28-2.06c0.38-1,0.71-2,0.96-3.01
		c0.39-1.57-1.62-2.57-2.27-1.09c-0.68,1.57-1.54,3.01-2.37,4.46c0.62-1.78,1.3-3.54,2.11-5.23c0.73-1.54-1.17-2.75-2-1.34
		c-0.75,1.28-1.49,2.59-2.18,3.92c0.59-1.87,1.22-3.72,1.95-5.53c0.51-1.27-0.93-2.87-1.8-1.62c-0.08,0.12-0.16,0.24-0.23,0.35
		c0.22-0.53,0.44-1.06,0.65-1.58c0.43-1.09-0.83-1.96-1.39-0.93c-1.86,3.44-3.41,7.05-5.03,10.66c-1.16,2.57-2.43,5.09-2.92,7.97
		c-0.21,1.24,1.21,2.57,2.02,1.37c0.81-1.22,1.53-2.5,2.2-3.81c-0.77,2.13-1.61,4.37-1.39,6.63c0.11,1.09,1.1,1.66,1.78,1.05
		c-0.05,0.28-0.1,0.55-0.14,0.83c-0.17,1.33,1.14,2.52,2.06,1.39c0.22-0.28,0.43-0.56,0.64-0.85c-0.01,0.18-0.03,0.35-0.04,0.53
		C595.7,32.1,597.4,32.38,598.03,31.27z"/>
	<path class="st8" d="M631.34,10.52c-3.47,4.81-4.48,11.4-7.41,16.52c0.18-0.97,0.41-1.92,0.69-2.86c2.12-4.02,3.77-8.37,5.31-12.77
		c0.42-1.19-1.29-2.04-1.77-0.88c-0.11,0.26-0.22,0.52-0.33,0.78c0.5-1.03-0.69-2.13-1.41-1.27c-2.83,3.4-4.87,7.46-6.93,11.5
		c1.15-3.43,2.71-6.72,4.21-9.84c0.44-0.92-0.69-1.67-1.19-0.82c-3.1,5.33-6.04,11.37-6.75,17.89c-0.14,1.33,1.42,1.49,1.93,0.62
		c1.55-2.61,2.88-5.39,4.24-8.14c-0.67,2.18-1.26,4.4-1.8,6.65c-0.24,1.02,0.96,1.98,1.58,1.09c0.04-0.05,0.07-0.11,0.11-0.16
		c-0.04,0.56-0.06,1.13-0.06,1.71c0.01,0.93,0.97,1.39,1.53,0.75c4.25-4.82,5.18-12.05,8.49-17.59c0.38,0.01,0.78-0.22,0.9-0.72
		c0.11-0.43,0.21-0.86,0.32-1.28C633.3,10.59,632.01,9.6,631.34,10.52z"/>
	<path class="st6" d="M687.68,11.33c-1.07,1.57-2.14,3.12-3.2,4.69c0.81-1.94,1.63-3.88,2.44-5.82c0.41-0.97-0.63-2.06-1.32-1.21
		c-0.64,0.79-1.23,1.63-1.79,2.48c0.34-0.77,0.68-1.54,0.99-2.32c0.33-0.81-0.51-1.73-1.11-1.01c-1.61,1.95-3.08,3.95-4.45,6.02
		c0.92-2.34,1.86-4.68,2.79-7.02c0.44-1.1-0.8-2.53-1.55-1.42c-0.05,0.08-0.1,0.16-0.15,0.24l0,0c0,0,0,0,0,0.01
		c-2.19,3.29-3.75,6.92-5.6,10.47c-1.49,2.86-3.51,5.54-4.04,8.92c-0.19,1.19,1.19,1.65,1.54,0.5c0.56-1.87,1.49-3.51,2.47-5.11
		c-0.78,2.18-1.52,4.38-2.19,6.62c-0.41,1.37,1.36,1.87,1.81,0.59c1.41-4.06,3.28-8.17,5.52-11.9c-0.34,0.74-0.7,1.46-1.03,2.21
		c-1.21,2.69-1.89,5.72-3.28,8.27c-0.6,1.11,0.84,2.04,1.47,1.01c0.88-1.44,1.69-2.94,2.48-4.47c-0.63,1.5-1.28,2.99-1.9,4.5
		c-0.53,1.29,1.02,2.41,1.65,1.14c2.79-5.68,6.47-10.56,10-15.59C690.08,11.87,688.54,10.06,687.68,11.33z"/>
	<path class="st7" d="M709.32,31.27c2.29-4.04,4.38-8.57,6.39-12.82c0.55-1.16-0.43-2.21-1.28-2.06c0.38-1,0.71-2,0.96-3.01
		c0.39-1.57-1.62-2.57-2.27-1.09c-0.68,1.57-1.54,3.01-2.37,4.46c0.62-1.78,1.3-3.54,2.11-5.23c0.73-1.54-1.17-2.75-2-1.34
		c-0.75,1.28-1.49,2.59-2.18,3.92c0.59-1.87,1.22-3.72,1.95-5.53c0.51-1.27-0.93-2.87-1.8-1.62c-0.08,0.12-0.16,0.24-0.23,0.35
		c0.22-0.53,0.44-1.06,0.65-1.58c0.43-1.09-0.83-1.96-1.39-0.93c-1.86,3.44-3.41,7.05-5.03,10.66c-1.15,2.57-2.43,5.09-2.92,7.97
		c-0.21,1.24,1.21,2.57,2.02,1.37c0.81-1.22,1.53-2.5,2.2-3.81c-0.77,2.13-1.61,4.37-1.39,6.63c0.11,1.09,1.1,1.66,1.78,1.05
		c-0.05,0.28-0.1,0.55-0.14,0.83c-0.17,1.33,1.14,2.52,2.06,1.39c0.22-0.28,0.44-0.56,0.64-0.85c-0.01,0.18-0.03,0.35-0.04,0.53
		C706.99,32.1,708.69,32.38,709.32,31.27z"/>
	<path class="st8" d="M742.63,10.52c-3.47,4.81-4.48,11.4-7.41,16.52c0.18-0.97,0.41-1.92,0.69-2.86c2.12-4.02,3.77-8.37,5.31-12.77
		c0.42-1.19-1.29-2.04-1.77-0.88c-0.11,0.26-0.22,0.52-0.33,0.78c0.5-1.03-0.69-2.13-1.41-1.27c-2.83,3.4-4.87,7.46-6.93,11.5
		c1.15-3.43,2.71-6.72,4.21-9.84c0.44-0.92-0.69-1.67-1.19-0.82c-3.1,5.33-6.04,11.37-6.75,17.89c-0.14,1.33,1.42,1.49,1.93,0.62
		c1.55-2.61,2.88-5.39,4.24-8.14c-0.67,2.18-1.26,4.4-1.8,6.65c-0.24,1.02,0.96,1.98,1.58,1.09c0.04-0.05,0.07-0.11,0.11-0.16
		c-0.04,0.56-0.06,1.13-0.06,1.71c0.01,0.93,0.97,1.39,1.53,0.75c4.25-4.82,5.18-12.05,8.49-17.59c0.38,0.01,0.78-0.22,0.9-0.72
		c0.11-0.43,0.21-0.86,0.32-1.28C744.59,10.59,743.3,9.6,742.63,10.52z"/>
	<path class="st9" d="M772.68,12.73c0.15-1.07-1.01-1.77-1.53-0.76c-0.78,1.5-1.65,2.93-2.51,4.38c0.41-1.35,0.78-2.73,1.03-4.15
		c0.2-1.11-1.18-1.97-1.64-0.82c-1.71,4.2-3.63,8.35-5.87,12.22c1.53-3.97,3.15-7.9,4.67-11.88c0.24-0.63-0.44-1.43-0.88-0.8
		c-1.88,2.63-3.52,5.36-5.23,8.14c-0.48,0.78-0.99,1.54-1.5,2.29c1.81-3.6,3.94-7.05,5.19-10.97c0.24-0.76-0.76-1.22-1.09-0.54
		c-3.11,6.34-7.86,11.78-8.92,19.25c-0.16,1.16,1.2,2.07,1.73,0.86c1.44-3.27,3.47-5.99,5.24-9c0.1-0.16,0.18-0.33,0.28-0.49
		c-1.25,3.01-2.4,6.08-3.37,9.25c-0.27,0.87,0.78,1.53,1.29,0.89c1.57-1.95,2.98-4.04,4.28-6.23c-0.46,1.4-0.87,2.82-1.15,4.3
		c-0.25,1.31,1.14,1.93,1.78,0.89c0.38-0.63,0.73-1.28,1.05-1.95c-0.15,0.69-0.28,1.38-0.38,2.08c-0.14,1,1.11,1.87,1.52,0.76
		c0.14-0.37,0.28-0.74,0.41-1.11c0.1-0.27,0.09-0.52,0.02-0.73c0.69-3.01,1.71-5.96,2.98-8.67
		C771.15,17.58,772.3,15.39,772.68,12.73z"/>
	<path class="st9" d="M883.97,12.73c0.15-1.07-1.01-1.77-1.53-0.76c-0.78,1.5-1.65,2.93-2.51,4.38c0.41-1.35,0.78-2.73,1.03-4.15
		c0.2-1.11-1.18-1.97-1.64-0.82c-1.71,4.2-3.63,8.35-5.87,12.22c1.53-3.97,3.15-7.9,4.67-11.88c0.24-0.63-0.44-1.43-0.88-0.8
		c-1.88,2.63-3.52,5.36-5.23,8.14c-0.48,0.78-0.99,1.54-1.5,2.29c1.81-3.6,3.94-7.05,5.19-10.97c0.24-0.76-0.76-1.22-1.09-0.54
		c-3.11,6.34-7.86,11.78-8.92,19.25c-0.16,1.16,1.2,2.07,1.73,0.86c1.44-3.27,3.47-5.99,5.24-9c0.1-0.16,0.18-0.33,0.28-0.49
		c-1.25,3.01-2.4,6.08-3.37,9.25c-0.27,0.87,0.78,1.53,1.29,0.89c1.57-1.95,2.98-4.04,4.28-6.23c-0.46,1.4-0.87,2.82-1.15,4.3
		c-0.25,1.31,1.14,1.93,1.78,0.89c0.38-0.63,0.73-1.28,1.05-1.95c-0.15,0.69-0.28,1.38-0.38,2.08c-0.14,1,1.11,1.87,1.52,0.76
		c0.14-0.37,0.28-0.74,0.41-1.11c0.1-0.27,0.09-0.52,0.02-0.73c0.69-3.01,1.71-5.96,2.98-8.67
		C882.44,17.58,883.59,15.39,883.97,12.73z"/>
	<path class="st6" d="M798.97,11.33c-1.07,1.57-2.14,3.12-3.2,4.69c0.81-1.94,1.63-3.88,2.44-5.82c0.41-0.97-0.63-2.06-1.32-1.21
		c-0.64,0.79-1.23,1.63-1.79,2.48c0.34-0.77,0.68-1.54,0.99-2.32c0.33-0.81-0.51-1.73-1.11-1.01c-1.61,1.95-3.08,3.95-4.45,6.02
		c0.92-2.34,1.86-4.68,2.79-7.02c0.44-1.1-0.8-2.53-1.55-1.42c-0.05,0.08-0.1,0.16-0.15,0.24l0,0c0,0,0,0,0,0.01
		c-2.19,3.29-3.75,6.92-5.6,10.47c-1.49,2.86-3.51,5.54-4.04,8.92c-0.19,1.19,1.19,1.65,1.54,0.5c0.56-1.87,1.49-3.51,2.47-5.11
		c-0.78,2.18-1.52,4.38-2.19,6.62c-0.41,1.37,1.36,1.87,1.81,0.59c1.41-4.06,3.28-8.17,5.52-11.9c-0.34,0.74-0.7,1.46-1.03,2.21
		c-1.21,2.69-1.89,5.72-3.28,8.27c-0.6,1.11,0.84,2.04,1.47,1.01c0.88-1.44,1.69-2.94,2.48-4.47c-0.63,1.5-1.28,2.99-1.9,4.5
		c-0.53,1.29,1.02,2.41,1.65,1.14c2.79-5.68,6.47-10.56,10-15.59C801.37,11.87,799.83,10.06,798.97,11.33z"/>
	<path class="st7" d="M820.61,31.27c2.29-4.04,4.38-8.57,6.39-12.82c0.55-1.16-0.43-2.21-1.28-2.06c0.38-1,0.71-2,0.96-3.01
		c0.39-1.57-1.62-2.57-2.27-1.09c-0.68,1.57-1.54,3.01-2.37,4.46c0.62-1.78,1.3-3.54,2.11-5.23c0.73-1.54-1.17-2.75-2-1.34
		c-0.75,1.28-1.49,2.59-2.18,3.92c0.59-1.87,1.22-3.72,1.95-5.53c0.51-1.27-0.93-2.87-1.8-1.62c-0.08,0.12-0.16,0.24-0.23,0.35
		c0.22-0.53,0.44-1.06,0.65-1.58c0.43-1.09-0.83-1.96-1.39-0.93c-1.86,3.44-3.41,7.05-5.03,10.66c-1.16,2.57-2.43,5.09-2.92,7.97
		c-0.21,1.24,1.21,2.57,2.02,1.37c0.81-1.22,1.53-2.5,2.2-3.81c-0.77,2.13-1.61,4.37-1.39,6.63c0.11,1.09,1.1,1.66,1.78,1.05
		c-0.05,0.28-0.1,0.55-0.14,0.83c-0.17,1.33,1.14,2.52,2.06,1.39c0.22-0.28,0.44-0.56,0.64-0.85c-0.01,0.18-0.03,0.35-0.04,0.53
		C818.28,32.1,819.98,32.38,820.61,31.27z"/>
	<path class="st8" d="M853.92,10.52c-3.47,4.81-4.48,11.4-7.41,16.52c0.18-0.97,0.41-1.92,0.69-2.86c2.12-4.02,3.77-8.37,5.31-12.77
		c0.42-1.19-1.29-2.04-1.77-0.88c-0.11,0.26-0.22,0.52-0.33,0.78c0.5-1.03-0.69-2.13-1.41-1.27c-2.83,3.4-4.87,7.46-6.93,11.5
		c1.15-3.43,2.71-6.72,4.21-9.84c0.44-0.92-0.69-1.67-1.19-0.82c-3.1,5.33-6.04,11.37-6.75,17.89c-0.14,1.33,1.42,1.49,1.93,0.62
		c1.55-2.61,2.88-5.39,4.24-8.14c-0.67,2.18-1.26,4.4-1.8,6.65c-0.24,1.02,0.96,1.98,1.58,1.09c0.04-0.05,0.07-0.11,0.11-0.16
		c-0.04,0.56-0.06,1.13-0.06,1.71c0.01,0.93,0.97,1.39,1.53,0.75c4.25-4.82,5.18-12.05,8.49-17.59c0.38,0.01,0.78-0.22,0.9-0.72
		c0.11-0.43,0.21-0.86,0.32-1.28C855.88,10.59,854.59,9.6,853.92,10.52z"/>
	<path class="st9" d="M995.26,12.73c0.15-1.07-1.01-1.77-1.53-0.76c-0.78,1.5-1.65,2.93-2.51,4.38c0.41-1.35,0.78-2.73,1.03-4.15
		c0.2-1.11-1.18-1.97-1.64-0.82c-1.7,4.2-3.63,8.35-5.87,12.22c1.53-3.97,3.15-7.9,4.67-11.88c0.24-0.63-0.44-1.43-0.88-0.8
		c-1.88,2.63-3.52,5.36-5.23,8.14c-0.48,0.78-0.99,1.54-1.5,2.29c1.81-3.6,3.94-7.05,5.19-10.97c0.24-0.76-0.76-1.22-1.09-0.54
		c-3.11,6.34-7.86,11.78-8.92,19.25c-0.16,1.16,1.2,2.07,1.73,0.86c1.44-3.27,3.47-5.99,5.24-9c0.1-0.16,0.18-0.33,0.28-0.49
		c-1.25,3.01-2.4,6.08-3.37,9.25c-0.27,0.87,0.78,1.53,1.29,0.89c1.57-1.95,2.98-4.04,4.28-6.23c-0.46,1.4-0.87,2.82-1.15,4.3
		c-0.25,1.31,1.14,1.93,1.78,0.89c0.38-0.63,0.73-1.28,1.05-1.95c-0.15,0.69-0.28,1.38-0.38,2.08c-0.14,1,1.11,1.87,1.52,0.76
		c0.14-0.37,0.28-0.74,0.41-1.11c0.1-0.27,0.09-0.52,0.02-0.73c0.69-3.01,1.71-5.96,2.98-8.67
		C993.74,17.58,994.88,15.39,995.26,12.73z"/>
	<path class="st6" d="M910.26,11.33c-1.07,1.57-2.14,3.12-3.2,4.69c0.81-1.94,1.63-3.88,2.44-5.82c0.41-0.97-0.63-2.06-1.32-1.21
		c-0.64,0.79-1.23,1.63-1.79,2.48c0.34-0.77,0.68-1.54,0.99-2.32c0.33-0.81-0.51-1.73-1.11-1.01c-1.61,1.95-3.08,3.95-4.45,6.02
		c0.92-2.34,1.86-4.68,2.79-7.02c0.44-1.1-0.8-2.53-1.55-1.42c-0.05,0.08-0.1,0.16-0.15,0.24l0,0c0,0,0,0,0,0.01
		c-2.19,3.29-3.75,6.92-5.6,10.47c-1.49,2.86-3.51,5.54-4.04,8.92c-0.19,1.19,1.19,1.65,1.54,0.5c0.56-1.87,1.49-3.51,2.47-5.11
		c-0.78,2.18-1.52,4.38-2.19,6.62c-0.41,1.37,1.36,1.87,1.81,0.59c1.41-4.06,3.28-8.17,5.52-11.9c-0.34,0.74-0.7,1.46-1.03,2.21
		c-1.21,2.69-1.89,5.72-3.28,8.27c-0.6,1.11,0.84,2.04,1.47,1.01c0.88-1.44,1.69-2.94,2.48-4.47c-0.63,1.5-1.28,2.99-1.9,4.5
		c-0.53,1.29,1.02,2.41,1.65,1.14c2.79-5.68,6.47-10.56,10-15.59C912.66,11.87,911.13,10.06,910.26,11.33z"/>
	<path class="st7" d="M931.9,31.27c2.29-4.04,4.38-8.57,6.39-12.82c0.55-1.16-0.43-2.21-1.28-2.06c0.38-1,0.71-2,0.96-3.01
		c0.39-1.57-1.62-2.57-2.27-1.09c-0.68,1.57-1.54,3.01-2.37,4.46c0.62-1.78,1.3-3.54,2.11-5.23c0.73-1.54-1.17-2.75-2-1.34
		c-0.75,1.28-1.49,2.59-2.18,3.92c0.59-1.87,1.22-3.72,1.95-5.53c0.51-1.27-0.93-2.87-1.8-1.62c-0.08,0.12-0.16,0.24-0.23,0.35
		c0.22-0.53,0.44-1.06,0.65-1.58c0.43-1.09-0.83-1.96-1.39-0.93c-1.86,3.44-3.41,7.05-5.03,10.66c-1.16,2.57-2.43,5.09-2.92,7.97
		c-0.21,1.24,1.21,2.57,2.02,1.37c0.81-1.22,1.53-2.5,2.2-3.81c-0.77,2.13-1.61,4.37-1.39,6.63c0.11,1.09,1.1,1.66,1.78,1.05
		c-0.05,0.28-0.1,0.55-0.14,0.83c-0.17,1.33,1.14,2.52,2.06,1.39c0.22-0.28,0.44-0.56,0.64-0.85c-0.01,0.18-0.03,0.35-0.04,0.53
		C929.57,32.1,931.27,32.38,931.9,31.27z"/>
	<path class="st8" d="M965.22,10.52c-3.47,4.81-4.48,11.4-7.41,16.52c0.18-0.97,0.41-1.92,0.69-2.86c2.12-4.02,3.77-8.37,5.31-12.77
		c0.42-1.19-1.29-2.04-1.77-0.88c-0.11,0.26-0.22,0.52-0.33,0.78c0.5-1.03-0.69-2.13-1.41-1.27c-2.83,3.4-4.87,7.46-6.93,11.5
		c1.15-3.43,2.71-6.72,4.21-9.84c0.44-0.92-0.69-1.67-1.19-0.82c-3.1,5.33-6.04,11.37-6.75,17.89c-0.14,1.33,1.42,1.49,1.93,0.62
		c1.55-2.61,2.88-5.39,4.24-8.14c-0.67,2.18-1.26,4.4-1.8,6.65c-0.24,1.02,0.96,1.98,1.58,1.09c0.04-0.05,0.07-0.11,0.11-0.16
		c-0.04,0.56-0.06,1.13-0.06,1.71c0.01,0.93,0.97,1.39,1.53,0.75c4.25-4.82,5.18-12.05,8.49-17.59c0.38,0.01,0.78-0.22,0.9-0.72
		c0.11-0.43,0.21-0.86,0.32-1.28C967.17,10.59,965.88,9.6,965.22,10.52z"/>
</g>
</svg>
