<?xml version="1.0" encoding="utf-8"?>
<!-- Generator: Adobe Illustrator 25.2.3, SVG Export Plug-In . SVG Version: 6.00 Build 0)  -->
<svg version="1.1" id="Layer_1" xmlns="http://www.w3.org/2000/svg" xmlns:xlink="http://www.w3.org/1999/xlink" x="0px" y="0px"
	 viewBox="0 0 657.48 22.27" style="enable-background:new 0 0 657.48 22.27;" xml:space="preserve">
<style type="text/css">
	.st0{fill:#F9C6D8;}
	.st1{fill:#F5A5C8;}
	.st2{fill:#FFF7A5;}
	.st3{fill:#FFDA82;}
	.st4{fill:#BEA9D2;}
</style>
<g>
	<path class="st0" d="M57.46,7.21c-1.25-1.4-3.4-1.53-4.8-0.29l-0.79,0.7c-0.37,0.33-0.93,0.33-1.3,0l-0.79-0.7
		c-0.65-0.57-1.45-0.86-2.26-0.86c-0.94,0-1.87,0.39-2.55,1.14c-0.6,0.68-0.91,1.55-0.85,2.46c0.05,0.91,0.46,1.74,1.14,2.34
		l5.96,5.29l5.96-5.29c0.68-0.6,1.08-1.43,1.14-2.34C58.37,8.76,58.07,7.89,57.46,7.21z"/>
	<path class="st1" d="M51.36,5.46l-0.14,0.13l-0.14-0.13c-2.21-1.96-5.61-1.76-7.57,0.45c-0.95,1.07-1.43,2.45-1.34,3.88
		c0.09,1.43,0.72,2.74,1.79,3.69l6.61,5.87c0.19,0.16,0.42,0.25,0.65,0.25c0.23,0,0.47-0.08,0.65-0.25l6.61-5.87
		c1.07-0.95,1.71-2.26,1.79-3.69c0.08-1.43-0.39-2.81-1.34-3.88C56.97,3.7,53.57,3.5,51.36,5.46z M51.22,17.3l-5.96-5.29
		c-0.68-0.6-1.08-1.43-1.14-2.34c-0.05-0.91,0.25-1.78,0.85-2.46c0.67-0.76,1.61-1.14,2.55-1.14c0.8,0,1.61,0.28,2.26,0.86l0.79,0.7
		c0.37,0.33,0.93,0.33,1.3,0l0.79-0.7c1.4-1.25,3.56-1.12,4.8,0.29c0.6,0.68,0.91,1.55,0.85,2.46c-0.05,0.91-0.46,1.74-1.14,2.34
		L51.22,17.3z"/>
	<path class="st0" d="M139.09,9.67c0.05-0.91-0.25-1.78-0.85-2.46c-1.25-1.4-3.4-1.53-4.8-0.29l-0.79,0.7
		c-0.37,0.33-0.93,0.33-1.3,0l-0.79-0.7c-0.65-0.57-1.45-0.86-2.26-0.86c-0.94,0-1.87,0.39-2.55,1.14c-0.6,0.68-0.91,1.55-0.85,2.46
		c0.05,0.91,0.46,1.74,1.14,2.34l5.96,5.29l5.96-5.29C138.63,11.41,139.03,10.58,139.09,9.67z"/>
	<path class="st1" d="M132.13,5.46l-0.14,0.13l-0.14-0.13c-2.21-1.96-5.61-1.76-7.57,0.45c-0.95,1.07-1.43,2.45-1.34,3.88
		c0.08,1.43,0.72,2.74,1.79,3.69l6.61,5.87c0.19,0.16,0.42,0.25,0.65,0.25c0.23,0,0.47-0.08,0.65-0.25l6.61-5.87
		c1.07-0.95,1.71-2.26,1.79-3.69c0.09-1.43-0.39-2.81-1.34-3.88C137.74,3.7,134.34,3.49,132.13,5.46z M126.03,12.01
		c-0.68-0.6-1.08-1.43-1.14-2.34c-0.05-0.91,0.25-1.78,0.85-2.46c0.67-0.76,1.61-1.14,2.55-1.14c0.8,0,1.61,0.28,2.26,0.86l0.79,0.7
		c0.37,0.33,0.93,0.33,1.3,0l0.79-0.7c1.4-1.25,3.56-1.12,4.8,0.29c0.6,0.68,0.91,1.55,0.85,2.46c-0.05,0.91-0.46,1.74-1.14,2.34
		l-5.96,5.29L126.03,12.01z"/>
	<path class="st0" d="M219.01,7.21c-1.25-1.4-3.4-1.53-4.8-0.29l-0.79,0.7c-0.37,0.33-0.93,0.33-1.3,0l-0.79-0.7
		c-0.65-0.57-1.45-0.86-2.26-0.86c-0.94,0-1.87,0.39-2.55,1.14c-0.6,0.68-0.91,1.55-0.85,2.46c0.05,0.91,0.46,1.74,1.14,2.34
		l5.96,5.29l5.96-5.29c0.68-0.6,1.08-1.43,1.14-2.34C219.91,8.76,219.61,7.89,219.01,7.21z"/>
	<path class="st1" d="M212.9,5.46l-0.14,0.13l-0.14-0.13c-2.21-1.96-5.61-1.76-7.57,0.45c-0.95,1.07-1.43,2.45-1.34,3.88
		c0.08,1.43,0.72,2.74,1.79,3.69l6.61,5.87c0.19,0.16,0.42,0.25,0.65,0.25c0.23,0,0.47-0.08,0.65-0.25l6.61-5.87
		c1.07-0.95,1.71-2.26,1.79-3.69c0.08-1.43-0.39-2.81-1.34-3.88C218.51,3.7,215.11,3.5,212.9,5.46z M212.76,17.3l-5.96-5.29
		c-0.68-0.6-1.08-1.43-1.14-2.34c-0.05-0.91,0.25-1.78,0.85-2.46c0.67-0.76,1.61-1.14,2.55-1.14c0.8,0,1.61,0.28,2.26,0.86l0.79,0.7
		c0.37,0.33,0.93,0.33,1.3,0l0.79-0.7c1.4-1.25,3.56-1.12,4.8,0.29c0.6,0.68,0.91,1.55,0.85,2.46c-0.05,0.91-0.46,1.74-1.14,2.34
		L212.76,17.3z"/>
	<path class="st0" d="M380.55,7.21c-1.25-1.4-3.4-1.53-4.8-0.29l-0.79,0.7c-0.37,0.33-0.93,0.33-1.3,0l-0.79-0.7
		c-0.65-0.57-1.45-0.86-2.26-0.86c-0.94,0-1.87,0.39-2.55,1.14c-0.6,0.68-0.91,1.55-0.85,2.46c0.05,0.91,0.46,1.74,1.14,2.34
		l5.96,5.29l5.96-5.29c0.68-0.6,1.08-1.43,1.14-2.34C381.46,8.76,381.15,7.89,380.55,7.21z"/>
	<path class="st1" d="M374.45,5.46l-0.14,0.13l-0.14-0.13c-2.21-1.96-5.61-1.76-7.57,0.45c-0.95,1.07-1.43,2.45-1.34,3.88
		c0.08,1.43,0.72,2.74,1.79,3.69l6.61,5.87c0.19,0.16,0.42,0.25,0.65,0.25c0.23,0,0.47-0.08,0.65-0.25l6.61-5.87
		c1.07-0.95,1.71-2.26,1.79-3.69c0.08-1.43-0.39-2.81-1.34-3.88C380.05,3.7,376.66,3.5,374.45,5.46z M374.3,17.3l-5.96-5.29
		c-0.68-0.6-1.08-1.43-1.14-2.34c-0.05-0.91,0.25-1.78,0.85-2.46c0.67-0.76,1.61-1.14,2.55-1.14c0.8,0,1.61,0.28,2.26,0.86l0.79,0.7
		c0.37,0.33,0.93,0.33,1.3,0l0.79-0.7c1.4-1.25,3.56-1.12,4.8,0.29c0.6,0.68,0.91,1.55,0.85,2.46c-0.05,0.91-0.46,1.74-1.14,2.34
		L374.3,17.3z"/>
	<path class="st0" d="M300.63,9.67c0.05-0.91-0.25-1.78-0.85-2.46c-1.25-1.4-3.4-1.53-4.8-0.29l-0.79,0.7
		c-0.37,0.33-0.93,0.33-1.3,0l-0.79-0.7c-0.65-0.57-1.45-0.86-2.26-0.86c-0.94,0-1.87,0.39-2.55,1.14c-0.6,0.68-0.91,1.55-0.85,2.46
		c0.05,0.91,0.46,1.74,1.14,2.34l5.96,5.29l5.96-5.29C300.17,11.41,300.58,10.58,300.63,9.67z"/>
	<path class="st1" d="M293.67,5.46l-0.14,0.13l-0.14-0.13c-2.21-1.96-5.61-1.76-7.57,0.45c-0.95,1.07-1.43,2.45-1.34,3.88
		c0.09,1.43,0.72,2.74,1.79,3.69l6.61,5.87c0.19,0.16,0.42,0.25,0.65,0.25c0.23,0,0.47-0.08,0.65-0.25l6.61-5.87
		c1.07-0.95,1.71-2.26,1.79-3.69c0.08-1.43-0.39-2.81-1.34-3.88C299.28,3.7,295.89,3.49,293.67,5.46z M287.57,12.01
		c-0.68-0.6-1.08-1.43-1.14-2.34c-0.05-0.91,0.25-1.78,0.85-2.46c0.67-0.76,1.61-1.14,2.55-1.14c0.8,0,1.61,0.28,2.26,0.86l0.79,0.7
		c0.37,0.33,0.93,0.33,1.3,0l0.79-0.7c1.4-1.25,3.56-1.12,4.8,0.29c0.6,0.68,0.91,1.55,0.85,2.46c-0.05,0.91-0.46,1.74-1.14,2.34
		l-5.96,5.29L287.57,12.01z"/>
	<path class="st0" d="M462.17,9.67c0.05-0.91-0.25-1.78-0.85-2.46c-1.25-1.4-3.4-1.53-4.8-0.29l-0.79,0.7
		c-0.37,0.33-0.93,0.33-1.3,0l-0.79-0.7c-0.65-0.57-1.45-0.86-2.26-0.86c-0.94,0-1.87,0.39-2.55,1.14c-0.6,0.68-0.91,1.55-0.85,2.46
		c0.05,0.91,0.46,1.74,1.14,2.34l5.96,5.29l5.96-5.29C461.72,11.41,462.12,10.58,462.17,9.67z"/>
	<path class="st1" d="M455.22,5.46l-0.14,0.13l-0.14-0.13c-2.21-1.96-5.61-1.76-7.57,0.45c-0.95,1.07-1.43,2.45-1.34,3.88
		c0.09,1.43,0.72,2.74,1.79,3.69l6.61,5.87c0.19,0.16,0.42,0.25,0.65,0.25c0.23,0,0.47-0.08,0.65-0.25l6.61-5.87
		c1.07-0.95,1.71-2.26,1.79-3.69c0.08-1.43-0.39-2.81-1.34-3.88C460.83,3.7,457.43,3.5,455.22,5.46z M449.12,12.01
		c-0.68-0.6-1.08-1.43-1.14-2.34c-0.05-0.91,0.25-1.78,0.85-2.46c0.67-0.76,1.61-1.14,2.55-1.14c0.8,0,1.61,0.28,2.26,0.86l0.79,0.7
		c0.37,0.33,0.93,0.33,1.3,0l0.79-0.7c1.4-1.25,3.56-1.12,4.8,0.29c0.6,0.68,0.91,1.55,0.85,2.46c-0.05,0.91-0.46,1.74-1.14,2.34
		l-5.96,5.29L449.12,12.01z"/>
	<path class="st2" d="M10.83,6.25c-1.08,2.45-2.88,4.43-5.1,5.59c2.21,1.15,4.01,3.12,5.1,5.54c1.09-2.46,2.91-4.42,5.14-5.57
		C13.72,10.66,11.92,8.7,10.83,6.25z"/>
	<path class="st3" d="M19.11,10.92l-1.15-0.39c-2.95-1.01-5.19-3.63-5.98-7l-0.19-0.82c-0.1-0.44-0.5-0.75-0.95-0.76c0,0,0,0-0.01,0
		c-0.45,0-0.84,0.31-0.95,0.74L9.62,3.75c-0.87,3.49-3.35,6.18-6.46,7.01L2.62,10.9c-0.43,0.12-0.73,0.51-0.73,0.96
		c0.01,0.45,0.32,0.84,0.75,0.94l0.33,0.08c3.31,0.79,5.96,3.71,6.76,7.43l0.14,0.66c0.1,0.45,0.5,0.77,0.96,0.77c0,0,0,0,0,0
		c0.46,0,0.86-0.33,0.96-0.78l0.12-0.58c0.81-3.9,3.59-6.87,7.07-7.57c0.43-0.09,0.76-0.45,0.79-0.9
		C19.8,11.47,19.53,11.07,19.11,10.92z M15.97,11.81c-2.24,1.15-4.05,3.12-5.14,5.57c-1.08-2.42-2.89-4.39-5.1-5.54
		c2.22-1.16,4.02-3.14,5.1-5.59C11.92,8.7,13.72,10.66,15.97,11.81z"/>
	<path class="st2" d="M91.6,6.25c-1.08,2.45-2.88,4.43-5.1,5.59c2.21,1.16,4.01,3.12,5.09,5.54c1.09-2.46,2.91-4.42,5.14-5.57
		C94.49,10.66,92.69,8.7,91.6,6.25z"/>
	<path class="st3" d="M99.88,10.92l-1.15-0.39c-2.95-1.01-5.19-3.63-5.98-7l-0.19-0.82c-0.1-0.44-0.5-0.75-0.95-0.76c0,0,0,0-0.01,0
		c-0.45,0-0.84,0.31-0.95,0.74l-0.26,1.05c-0.87,3.49-3.35,6.18-6.46,7.01l-0.54,0.15c-0.43,0.12-0.73,0.51-0.72,0.96
		c0.01,0.45,0.32,0.84,0.75,0.94l0.33,0.08c3.31,0.79,5.96,3.71,6.76,7.43l0.14,0.66c0.1,0.45,0.5,0.77,0.96,0.77c0,0,0,0,0,0
		c0.46,0,0.86-0.33,0.96-0.78l0.12-0.58c0.81-3.9,3.59-6.87,7.07-7.57c0.43-0.09,0.76-0.45,0.79-0.9
		C100.57,11.47,100.3,11.07,99.88,10.92z M96.74,11.81c-2.24,1.15-4.05,3.11-5.14,5.57c-1.08-2.42-2.89-4.38-5.09-5.54
		c2.22-1.16,4.02-3.14,5.1-5.59C92.69,8.7,94.49,10.66,96.74,11.81z"/>
	<path class="st2" d="M253.15,6.25c-1.08,2.45-2.88,4.43-5.1,5.59c2.21,1.16,4.01,3.12,5.1,5.54c1.09-2.46,2.91-4.42,5.14-5.57
		C256.03,10.66,254.23,8.7,253.15,6.25z"/>
	<path class="st3" d="M261.43,10.92l-1.15-0.39c-2.95-1.01-5.19-3.63-5.98-7l-0.19-0.82c-0.1-0.44-0.5-0.75-0.95-0.76
		c-0.46,0.02-0.85,0.3-0.96,0.74l-0.26,1.05c-0.87,3.49-3.35,6.18-6.46,7.01l-0.54,0.15c-0.43,0.12-0.73,0.51-0.73,0.96
		c0.01,0.45,0.32,0.84,0.75,0.94l0.33,0.08c3.31,0.79,5.96,3.71,6.76,7.43l0.14,0.66c0.1,0.45,0.5,0.77,0.96,0.77c0,0,0,0,0,0
		c0.46,0,0.86-0.33,0.96-0.78l0.12-0.58c0.81-3.9,3.59-6.87,7.07-7.57c0.43-0.09,0.76-0.45,0.79-0.9
		C262.12,11.47,261.85,11.07,261.43,10.92z M258.29,11.81c-2.24,1.15-4.05,3.11-5.14,5.57c-1.08-2.42-2.89-4.38-5.1-5.54
		c2.22-1.16,4.02-3.14,5.1-5.59C254.23,8.7,256.03,10.66,258.29,11.81z"/>
	<path class="st2" d="M333.92,6.25c-1.08,2.45-2.88,4.43-5.1,5.59c2.21,1.16,4.01,3.12,5.1,5.54c1.09-2.46,2.91-4.42,5.14-5.57
		C336.8,10.66,335,8.7,333.92,6.25z"/>
	<path class="st3" d="M342.2,10.92l-1.15-0.39c-2.95-1.01-5.19-3.63-5.98-7l-0.19-0.82c-0.1-0.44-0.5-0.75-0.95-0.76
		c-0.44,0.02-0.85,0.3-0.96,0.74l-0.26,1.05c-0.87,3.49-3.35,6.18-6.46,7.01l-0.54,0.15c-0.43,0.12-0.73,0.51-0.73,0.96
		c0.01,0.45,0.32,0.84,0.75,0.94l0.33,0.08c3.31,0.79,5.96,3.71,6.76,7.43l0.14,0.66c0.1,0.45,0.5,0.77,0.96,0.77c0,0,0,0,0,0
		c0.46,0,0.86-0.33,0.96-0.78l0.12-0.59c0.81-3.9,3.59-6.87,7.07-7.57c0.43-0.09,0.76-0.45,0.79-0.9
		C342.89,11.47,342.62,11.07,342.2,10.92z M339.06,11.81c-2.24,1.15-4.05,3.12-5.14,5.57c-1.08-2.42-2.89-4.38-5.1-5.54
		c2.22-1.16,4.02-3.14,5.1-5.59C335,8.7,336.8,10.66,339.06,11.81z"/>
	<path class="st2" d="M414.69,6.25c-1.08,2.45-2.88,4.43-5.1,5.59c2.21,1.15,4.01,3.12,5.1,5.54c1.09-2.46,2.91-4.42,5.14-5.57
		C417.57,10.66,415.77,8.7,414.69,6.25z"/>
	<path class="st3" d="M422.97,10.92l-1.15-0.39c-2.95-1.01-5.19-3.63-5.98-7l-0.19-0.82c-0.1-0.44-0.5-0.75-0.95-0.76
		c0,0,0,0-0.01,0c-0.45,0-0.84,0.31-0.95,0.74l-0.26,1.05c-0.87,3.49-3.35,6.18-6.46,7.01l-0.54,0.15
		c-0.43,0.12-0.73,0.51-0.73,0.96c0.01,0.45,0.32,0.84,0.75,0.94l0.33,0.08c3.31,0.79,5.96,3.71,6.76,7.43l0.14,0.66
		c0.1,0.45,0.5,0.77,0.96,0.77c0,0,0,0,0,0c0.46,0,0.86-0.33,0.96-0.78l0.12-0.58c0.81-3.9,3.59-6.87,7.07-7.57
		c0.43-0.09,0.76-0.45,0.79-0.9C423.66,11.47,423.39,11.07,422.97,10.92z M419.83,11.81c-2.24,1.15-4.05,3.12-5.14,5.57
		c-1.08-2.42-2.89-4.39-5.1-5.54c2.22-1.16,4.02-3.14,5.1-5.59C415.77,8.7,417.57,10.66,419.83,11.81z"/>
	<path class="st2" d="M172.37,6.25c-1.08,2.45-2.88,4.43-5.1,5.59c2.21,1.16,4.01,3.12,5.1,5.54c1.09-2.46,2.91-4.42,5.14-5.57
		C175.26,10.66,173.46,8.7,172.37,6.25z"/>
	<path class="st3" d="M180.66,10.92l-1.15-0.39c-2.95-1.01-5.19-3.63-5.98-7l-0.19-0.82c-0.1-0.44-0.5-0.75-0.95-0.76
		c0,0,0,0-0.01,0c-0.45,0-0.84,0.31-0.95,0.74l-0.26,1.05c-0.87,3.49-3.35,6.18-6.46,7.01l-0.54,0.15
		c-0.43,0.12-0.73,0.51-0.73,0.96c0.01,0.45,0.32,0.84,0.75,0.94l0.33,0.08c3.31,0.79,5.96,3.71,6.76,7.43l0.14,0.66
		c0.1,0.45,0.5,0.77,0.96,0.77c0,0,0,0,0,0c0.46,0,0.86-0.33,0.96-0.78l0.12-0.58c0.81-3.9,3.59-6.87,7.07-7.57
		c0.43-0.09,0.76-0.45,0.79-0.9C181.35,11.47,181.07,11.07,180.66,10.92z M177.51,11.81c-2.24,1.15-4.05,3.11-5.14,5.57
		c-1.08-2.42-2.89-4.38-5.1-5.54c2.22-1.16,4.02-3.14,5.1-5.59C173.46,8.7,175.26,10.66,177.51,11.81z"/>
	<path class="st4" d="M32.35,9.59c-0.97-0.57-2.4-0.44-3.18,0.41c-0.72,0.79-0.96,1.87-0.54,2.86c0.52,1.23,1.8,1.82,3.09,1.52
		c0.02,0,0.04-0.01,0.06-0.01c0.82-0.19,1.57-0.94,1.76-1.76c0-0.02,0.01-0.04,0.01-0.06C33.82,11.41,33.38,10.2,32.35,9.59z"/>
	<path class="st4" d="M72.73,9.59c-0.97-0.57-2.4-0.44-3.18,0.41c-0.72,0.79-0.96,1.87-0.54,2.86c0.52,1.23,1.8,1.82,3.09,1.52
		c0.02,0,0.04-0.01,0.06-0.01c0.82-0.19,1.57-0.94,1.76-1.76c0-0.02,0.01-0.04,0.01-0.06C74.2,11.41,73.77,10.2,72.73,9.59z"/>
	<path class="st4" d="M113.12,9.59c-0.97-0.57-2.4-0.44-3.18,0.41c-0.72,0.79-0.96,1.87-0.54,2.86c0.52,1.23,1.8,1.82,3.09,1.52
		c0.02,0,0.04-0.01,0.06-0.01c0.82-0.19,1.57-0.94,1.76-1.76c0-0.02,0.01-0.04,0.01-0.06C114.59,11.41,114.15,10.2,113.12,9.59z"/>
	<path class="st4" d="M153.51,9.59c-0.97-0.57-2.4-0.44-3.18,0.41c-0.72,0.79-0.96,1.87-0.54,2.86c0.52,1.23,1.8,1.82,3.09,1.52
		c0.02,0,0.04-0.01,0.06-0.01c0.82-0.19,1.57-0.94,1.76-1.76c0-0.02,0.01-0.04,0.01-0.06C154.97,11.41,154.54,10.2,153.51,9.59z"/>
	<path class="st4" d="M193.89,9.59c-0.97-0.57-2.4-0.44-3.18,0.41c-0.72,0.79-0.96,1.87-0.54,2.86c0.52,1.23,1.8,1.82,3.09,1.52
		c0.02,0,0.04-0.01,0.06-0.01c0.82-0.19,1.57-0.94,1.76-1.76c0-0.02,0.01-0.04,0.01-0.06C195.36,11.41,194.93,10.2,193.89,9.59z"/>
	<path class="st4" d="M234.28,9.59c-0.97-0.57-2.4-0.44-3.18,0.41c-0.72,0.79-0.96,1.87-0.54,2.86c0.52,1.23,1.8,1.82,3.09,1.52
		c0.02,0,0.04-0.01,0.06-0.01c0.82-0.19,1.57-0.94,1.76-1.76c0-0.02,0.01-0.04,0.01-0.06C235.74,11.41,235.31,10.2,234.28,9.59z"/>
	<path class="st4" d="M274.66,9.59c-0.97-0.57-2.4-0.44-3.18,0.41c-0.72,0.79-0.96,1.87-0.54,2.86c0.52,1.23,1.8,1.82,3.09,1.52
		c0.02,0,0.04-0.01,0.06-0.01c0.82-0.19,1.57-0.94,1.76-1.76c0-0.02,0.01-0.04,0.01-0.06C276.13,11.41,275.7,10.2,274.66,9.59z"/>
	<path class="st4" d="M315.05,9.59c-0.97-0.57-2.4-0.44-3.18,0.41c-0.72,0.79-0.96,1.87-0.54,2.86c0.52,1.23,1.8,1.82,3.09,1.52
		c0.02,0,0.04-0.01,0.06-0.01c0.82-0.19,1.57-0.94,1.76-1.76c0-0.02,0.01-0.04,0.01-0.06C316.52,11.41,316.08,10.2,315.05,9.59z"/>
	<path class="st4" d="M355.43,9.59c-0.97-0.57-2.4-0.44-3.18,0.41c-0.72,0.79-0.96,1.87-0.54,2.86c0.52,1.23,1.8,1.82,3.09,1.52
		c0.02,0,0.04-0.01,0.06-0.01c0.82-0.19,1.57-0.94,1.76-1.76c0-0.02,0.01-0.04,0.01-0.06C356.9,11.41,356.47,10.2,355.43,9.59z"/>
	<path class="st4" d="M395.82,9.59c-0.97-0.57-2.4-0.44-3.18,0.41c-0.72,0.79-0.96,1.87-0.54,2.86c0.52,1.23,1.8,1.82,3.09,1.52
		c0.02,0,0.04-0.01,0.06-0.01c0.82-0.19,1.57-0.94,1.76-1.76c0-0.02,0.01-0.04,0.01-0.06C397.29,11.41,396.85,10.2,395.82,9.59z"/>
	<path class="st4" d="M436.2,9.59c-0.97-0.57-2.4-0.44-3.18,0.41c-0.72,0.79-0.96,1.87-0.54,2.86c0.52,1.23,1.8,1.82,3.09,1.52
		c0.02,0,0.04-0.01,0.06-0.01c0.82-0.19,1.57-0.94,1.76-1.76c0-0.02,0.01-0.04,0.01-0.06C437.67,11.41,437.24,10.2,436.2,9.59z"/>
	<path class="st4" d="M476.59,9.59c-0.97-0.57-2.4-0.44-3.18,0.41c-0.72,0.79-0.96,1.87-0.54,2.86c0.52,1.23,1.8,1.82,3.09,1.52
		c0.02,0,0.04-0.01,0.06-0.01c0.82-0.19,1.57-0.94,1.76-1.76c0-0.02,0.01-0.04,0.01-0.06C478.06,11.41,477.63,10.2,476.59,9.59z"/>
	<path class="st0" d="M622.86,7.21c-1.25-1.4-3.4-1.53-4.8-0.29l-0.79,0.7c-0.37,0.33-0.93,0.33-1.3,0l-0.79-0.7
		c-0.65-0.57-1.45-0.86-2.26-0.86c-0.94,0-1.87,0.39-2.55,1.14c-0.6,0.68-0.91,1.55-0.85,2.46c0.05,0.91,0.46,1.74,1.14,2.34
		l5.96,5.29l5.96-5.29c0.68-0.6,1.08-1.43,1.14-2.34C623.77,8.76,623.47,7.89,622.86,7.21z"/>
	<path class="st1" d="M616.76,5.46l-0.14,0.13l-0.14-0.13c-2.21-1.96-5.61-1.76-7.57,0.45c-0.95,1.07-1.43,2.45-1.34,3.88
		c0.09,1.43,0.72,2.74,1.79,3.69l6.61,5.87c0.19,0.16,0.42,0.25,0.65,0.25c0.23,0,0.47-0.08,0.65-0.25l6.61-5.87
		c1.07-0.95,1.71-2.26,1.79-3.69c0.09-1.43-0.39-2.81-1.34-3.88C622.37,3.7,618.97,3.5,616.76,5.46z M616.62,17.3l-5.96-5.29
		c-0.68-0.6-1.08-1.43-1.14-2.34c-0.05-0.91,0.25-1.78,0.85-2.46c0.67-0.76,1.61-1.14,2.55-1.14c0.8,0,1.61,0.28,2.26,0.86l0.79,0.7
		c0.37,0.33,0.93,0.33,1.3,0l0.79-0.7c1.4-1.25,3.56-1.12,4.8,0.29c0.6,0.68,0.91,1.55,0.85,2.46c-0.05,0.91-0.46,1.74-1.14,2.34
		L616.62,17.3z"/>
	<path class="st0" d="M542.94,9.67c0.05-0.91-0.25-1.78-0.85-2.46c-1.25-1.4-3.4-1.53-4.8-0.29l-0.79,0.7
		c-0.37,0.33-0.93,0.33-1.3,0l-0.79-0.7c-0.65-0.57-1.45-0.86-2.26-0.86c-0.94,0-1.87,0.39-2.55,1.14c-0.6,0.68-0.91,1.55-0.85,2.46
		c0.05,0.91,0.46,1.74,1.14,2.34l5.96,5.29l5.96-5.29C542.49,11.41,542.89,10.58,542.94,9.67z"/>
	<path class="st1" d="M535.99,5.46l-0.14,0.13l-0.14-0.13c-2.21-1.96-5.61-1.76-7.57,0.45c-0.95,1.07-1.43,2.45-1.34,3.88
		c0.09,1.43,0.72,2.74,1.79,3.69l6.61,5.87c0.19,0.16,0.42,0.25,0.65,0.25s0.47-0.08,0.65-0.25l6.61-5.87
		c1.07-0.95,1.71-2.26,1.79-3.69c0.09-1.43-0.39-2.81-1.34-3.88C541.6,3.7,538.2,3.49,535.99,5.46z M529.89,12.01
		c-0.68-0.6-1.08-1.43-1.14-2.34c-0.05-0.91,0.25-1.78,0.85-2.46c0.67-0.76,1.61-1.14,2.55-1.14c0.8,0,1.61,0.28,2.26,0.86l0.79,0.7
		c0.37,0.33,0.93,0.33,1.3,0l0.79-0.7c1.4-1.25,3.56-1.12,4.8,0.29c0.6,0.68,0.91,1.55,0.85,2.46c-0.05,0.91-0.46,1.74-1.14,2.34
		l-5.96,5.29L529.89,12.01z"/>
	<path class="st2" d="M495.46,6.25c-1.08,2.45-2.88,4.43-5.1,5.59c2.21,1.16,4.01,3.12,5.09,5.54c1.09-2.46,2.91-4.42,5.14-5.57
		C498.35,10.66,496.54,8.7,495.46,6.25z"/>
	<path class="st3" d="M503.74,10.92l-1.15-0.39c-2.95-1.01-5.19-3.63-5.98-7l-0.19-0.82c-0.1-0.44-0.5-0.75-0.95-0.76
		c0,0,0,0-0.01,0c-0.45,0-0.84,0.31-0.95,0.74l-0.26,1.05c-0.87,3.49-3.35,6.18-6.46,7.01l-0.54,0.15
		c-0.43,0.12-0.73,0.51-0.73,0.96c0.01,0.45,0.32,0.84,0.75,0.94l0.33,0.08c3.31,0.79,5.96,3.71,6.76,7.43l0.14,0.66
		c0.1,0.45,0.5,0.77,0.96,0.77c0,0,0,0,0,0c0.46,0,0.86-0.33,0.96-0.78l0.12-0.59c0.81-3.9,3.59-6.87,7.07-7.57
		c0.43-0.09,0.76-0.45,0.79-0.9C504.43,11.47,504.16,11.07,503.74,10.92z M500.6,11.81c-2.24,1.15-4.05,3.11-5.14,5.57
		c-1.08-2.42-2.89-4.38-5.09-5.54c2.22-1.16,4.02-3.14,5.1-5.59C496.54,8.7,498.35,10.66,500.6,11.81z"/>
	<path class="st2" d="M576.23,6.25c-1.08,2.45-2.88,4.43-5.1,5.59c2.21,1.15,4.01,3.12,5.1,5.54c1.09-2.46,2.91-4.42,5.14-5.57
		C579.12,10.66,577.31,8.7,576.23,6.25z"/>
	<path class="st3" d="M584.51,10.92l-1.15-0.39c-2.95-1.01-5.19-3.63-5.98-7l-0.19-0.82c-0.1-0.44-0.5-0.75-0.95-0.76
		c0,0,0,0-0.01,0c-0.45,0-0.84,0.31-0.95,0.74l-0.26,1.05c-0.87,3.49-3.35,6.18-6.46,7.01l-0.54,0.15
		c-0.43,0.12-0.73,0.51-0.73,0.96c0.01,0.45,0.32,0.84,0.75,0.94l0.33,0.08c3.31,0.79,5.96,3.71,6.76,7.43l0.14,0.66
		c0.1,0.45,0.5,0.77,0.96,0.77c0,0,0,0,0,0c0.46,0,0.86-0.33,0.96-0.78l0.12-0.58c0.81-3.9,3.59-6.87,7.07-7.57
		c0.43-0.09,0.76-0.45,0.79-0.9C585.2,11.47,584.93,11.07,584.51,10.92z M581.37,11.81c-2.24,1.15-4.05,3.12-5.14,5.57
		c-1.08-2.42-2.89-4.39-5.1-5.54c2.22-1.16,4.02-3.14,5.1-5.59C577.31,8.7,579.12,10.66,581.37,11.81z"/>
	<path class="st4" d="M516.98,9.59c-0.97-0.57-2.4-0.44-3.18,0.41c-0.72,0.79-0.96,1.87-0.54,2.86c0.52,1.23,1.8,1.82,3.09,1.52
		c0.02,0,0.04-0.01,0.06-0.01c0.82-0.19,1.57-0.94,1.76-1.76c0-0.02,0.01-0.04,0.01-0.06C518.44,11.41,518.01,10.2,516.98,9.59z"/>
	<path class="st4" d="M557.36,9.59c-0.97-0.57-2.4-0.44-3.18,0.41c-0.72,0.79-0.96,1.87-0.54,2.86c0.52,1.23,1.8,1.82,3.09,1.52
		c0.02,0,0.04-0.01,0.06-0.01c0.82-0.19,1.57-0.94,1.76-1.76c0-0.02,0.01-0.04,0.01-0.06C558.83,11.41,558.4,10.2,557.36,9.59z"/>
	<path class="st4" d="M597.75,9.59c-0.97-0.57-2.4-0.44-3.18,0.41c-0.72,0.79-0.96,1.87-0.54,2.86c0.52,1.23,1.8,1.82,3.09,1.52
		c0.02,0,0.04-0.01,0.06-0.01c0.82-0.19,1.57-0.94,1.76-1.76c0-0.02,0.01-0.04,0.01-0.06C599.21,11.41,598.78,10.2,597.75,9.59z"/>
	<path class="st4" d="M638.13,9.59c-0.97-0.57-2.4-0.44-3.18,0.41c-0.72,0.79-0.96,1.87-0.54,2.86c0.52,1.23,1.8,1.82,3.09,1.52
		c0.02,0,0.04-0.01,0.06-0.01c0.82-0.19,1.57-0.94,1.76-1.76c0-0.02,0.01-0.04,0.01-0.06C639.6,11.41,639.17,10.2,638.13,9.59z"/>
</g>
</svg>
