<?xml version="1.0" encoding="utf-8"?>
<!-- Generator: Adobe Illustrator 25.2.3, SVG Export Plug-In . SVG Version: 6.00 Build 0)  -->
<svg version="1.1" id="Layer_1" xmlns="http://www.w3.org/2000/svg" xmlns:xlink="http://www.w3.org/1999/xlink" x="0px" y="0px"
	 viewBox="0 0 446.99 152.69" style="enable-background:new 0 0 446.99 152.69;" xml:space="preserve">
<style type="text/css">
	.st0{display:none;}
	.st1{display:inline;fill:#F9C6D8;}
	.st2{display:inline;fill:#F5A5C8;}
	.st3{display:inline;fill:#FFF7A5;}
	.st4{display:inline;fill:#FFDA82;}
	.st5{display:inline;fill:#BEA9D2;}
	.st6{display:inline;fill:#BCE3E1;}
	.st7{display:inline;fill:#8055A3;}
	.st8{display:inline;fill:#FFF6DF;}
	.st9{fill:#F9C6D8;}
	.st10{fill:#8055A3;}
	.st11{fill:#FFF6DF;}
</style>
<g class="st0">
	<path class="st1" d="M-182.01-19.55c-1.25-1.4-3.4-1.53-4.8-0.29l-0.79,0.7c-0.37,0.33-0.93,0.33-1.3,0l-0.79-0.7
		c-0.65-0.57-1.45-0.86-2.26-0.86c-0.94,0-1.87,0.39-2.55,1.14c-0.6,0.68-0.91,1.55-0.85,2.46c0.05,0.91,0.46,1.74,1.14,2.34
		l5.96,5.29l5.96-5.29c0.68-0.6,1.08-1.43,1.14-2.34C-181.11-17.99-181.41-18.87-182.01-19.55z"/>
	<path class="st2" d="M-188.12-21.3l-0.14,0.13l-0.14-0.13c-2.21-1.96-5.61-1.76-7.57,0.45c-0.95,1.07-1.43,2.45-1.34,3.88
		c0.09,1.43,0.72,2.74,1.79,3.69l6.61,5.87c0.19,0.16,0.42,0.25,0.65,0.25c0.23,0,0.47-0.08,0.65-0.25l6.61-5.87
		c1.07-0.95,1.71-2.26,1.79-3.69c0.08-1.43-0.39-2.81-1.34-3.88C-182.51-23.06-185.91-23.26-188.12-21.3z M-188.26-9.45l-5.96-5.29
		c-0.68-0.6-1.08-1.43-1.14-2.34c-0.05-0.91,0.25-1.78,0.85-2.46c0.67-0.76,1.61-1.14,2.55-1.14c0.8,0,1.61,0.28,2.26,0.86l0.79,0.7
		c0.37,0.33,0.93,0.33,1.3,0l0.79-0.7c1.4-1.25,3.56-1.12,4.8,0.29c0.6,0.68,0.91,1.55,0.85,2.46c-0.05,0.91-0.46,1.74-1.14,2.34
		L-188.26-9.45z"/>
	<path class="st1" d="M-100.39-17.09c0.05-0.91-0.25-1.78-0.85-2.46c-1.25-1.4-3.4-1.53-4.8-0.29l-0.79,0.7
		c-0.37,0.33-0.93,0.33-1.3,0l-0.79-0.7c-0.65-0.57-1.45-0.86-2.26-0.86c-0.94,0-1.87,0.39-2.55,1.14c-0.6,0.68-0.91,1.55-0.85,2.46
		c0.05,0.91,0.46,1.74,1.14,2.34l5.96,5.29l5.96-5.29C-100.85-15.35-100.44-16.18-100.39-17.09z"/>
	<path class="st2" d="M-107.35-21.3l-0.14,0.13l-0.14-0.13c-2.21-1.96-5.61-1.76-7.57,0.45c-0.95,1.07-1.43,2.45-1.34,3.88
		c0.08,1.43,0.72,2.74,1.79,3.69l6.61,5.87c0.19,0.16,0.42,0.25,0.65,0.25c0.23,0,0.47-0.08,0.65-0.25l6.61-5.87
		c1.07-0.95,1.71-2.26,1.79-3.69c0.08-1.43-0.39-2.81-1.34-3.88C-101.74-23.06-105.13-23.26-107.35-21.3z M-113.45-14.75
		c-0.68-0.6-1.08-1.43-1.14-2.34c-0.05-0.91,0.25-1.78,0.85-2.46c0.67-0.76,1.61-1.14,2.55-1.14c0.8,0,1.61,0.28,2.26,0.86l0.79,0.7
		c0.37,0.33,0.93,0.33,1.3,0l0.79-0.7c1.4-1.25,3.56-1.12,4.8,0.29c0.6,0.68,0.91,1.55,0.85,2.46c-0.05,0.91-0.46,1.74-1.14,2.34
		l-5.96,5.29L-113.45-14.75z"/>
	<path class="st1" d="M-20.47-19.55c-1.25-1.4-3.4-1.53-4.8-0.29l-0.79,0.7c-0.37,0.33-0.93,0.33-1.3,0l-0.79-0.7
		c-0.65-0.57-1.45-0.86-2.26-0.86c-0.94,0-1.87,0.39-2.55,1.14c-0.6,0.68-0.91,1.55-0.85,2.46c0.05,0.91,0.46,1.74,1.14,2.34
		l5.96,5.29l5.96-5.29c0.68-0.6,1.08-1.43,1.14-2.34C-19.57-17.99-19.87-18.87-20.47-19.55z"/>
	<path class="st2" d="M-26.58-21.3l-0.14,0.13l-0.14-0.13c-2.21-1.96-5.61-1.76-7.57,0.45c-0.95,1.07-1.43,2.45-1.34,3.88
		c0.08,1.43,0.72,2.74,1.79,3.69l6.61,5.87c0.19,0.16,0.42,0.25,0.65,0.25c0.23,0,0.47-0.08,0.65-0.25l6.61-5.87
		c1.07-0.95,1.71-2.26,1.79-3.69c0.08-1.43-0.39-2.81-1.34-3.88C-20.97-23.06-24.36-23.26-26.58-21.3z M-26.72-9.45l-5.96-5.29
		c-0.68-0.6-1.08-1.43-1.14-2.34c-0.05-0.91,0.25-1.78,0.85-2.46c0.67-0.76,1.61-1.14,2.55-1.14c0.8,0,1.61,0.28,2.26,0.86l0.79,0.7
		c0.37,0.33,0.93,0.33,1.3,0l0.79-0.7c1.4-1.25,3.56-1.12,4.8,0.29c0.6,0.68,0.91,1.55,0.85,2.46c-0.05,0.91-0.46,1.74-1.14,2.34
		L-26.72-9.45z"/>
	<path class="st1" d="M141.07-19.55c-1.25-1.4-3.4-1.53-4.8-0.29l-0.79,0.7c-0.37,0.33-0.93,0.33-1.3,0l-0.79-0.7
		c-0.65-0.57-1.45-0.86-2.26-0.86c-0.94,0-1.87,0.39-2.55,1.14c-0.6,0.68-0.91,1.55-0.85,2.46c0.05,0.91,0.46,1.74,1.14,2.34
		l5.96,5.29l5.96-5.29c0.68-0.6,1.08-1.43,1.14-2.34C141.98-17.99,141.67-18.87,141.07-19.55z"/>
	<path class="st2" d="M134.97-21.3l-0.14,0.13l-0.14-0.13c-2.21-1.96-5.61-1.76-7.57,0.45c-0.95,1.07-1.43,2.45-1.34,3.88
		c0.08,1.43,0.72,2.74,1.79,3.69l6.61,5.87c0.19,0.16,0.42,0.25,0.65,0.25c0.23,0,0.47-0.08,0.65-0.25l6.61-5.87
		c1.07-0.95,1.71-2.26,1.79-3.69c0.08-1.43-0.39-2.81-1.34-3.88C140.58-23.06,137.18-23.26,134.97-21.3z M134.83-9.45l-5.96-5.29
		c-0.68-0.6-1.08-1.43-1.14-2.34c-0.05-0.91,0.25-1.78,0.85-2.46c0.67-0.76,1.61-1.14,2.55-1.14c0.8,0,1.61,0.28,2.26,0.86l0.79,0.7
		c0.37,0.33,0.93,0.33,1.3,0l0.79-0.7c1.4-1.25,3.56-1.12,4.8,0.29c0.6,0.68,0.91,1.55,0.85,2.46c-0.05,0.91-0.46,1.74-1.14,2.34
		L134.83-9.45z"/>
	<path class="st1" d="M61.15-17.09c0.05-0.91-0.25-1.78-0.85-2.46c-1.25-1.4-3.4-1.53-4.8-0.29l-0.79,0.7
		c-0.37,0.33-0.93,0.33-1.3,0l-0.79-0.7c-0.65-0.57-1.45-0.86-2.26-0.86c-0.94,0-1.87,0.39-2.55,1.14c-0.6,0.68-0.91,1.55-0.85,2.46
		c0.05,0.91,0.46,1.74,1.14,2.34l5.96,5.29l5.96-5.29C60.69-15.35,61.1-16.18,61.15-17.09z"/>
	<path class="st2" d="M54.2-21.3l-0.14,0.13l-0.14-0.13c-2.21-1.96-5.61-1.76-7.57,0.45c-0.95,1.07-1.43,2.45-1.34,3.88
		c0.08,1.43,0.72,2.74,1.79,3.69l6.61,5.87c0.19,0.16,0.42,0.25,0.65,0.25c0.23,0,0.47-0.08,0.65-0.25l6.61-5.87
		c1.07-0.95,1.71-2.26,1.79-3.69c0.08-1.43-0.39-2.81-1.34-3.88C59.8-23.06,56.41-23.26,54.2-21.3z M48.09-14.75
		c-0.68-0.6-1.08-1.43-1.14-2.34c-0.05-0.91,0.25-1.78,0.85-2.46c0.67-0.76,1.61-1.14,2.55-1.14c0.8,0,1.61,0.28,2.26,0.86l0.79,0.7
		c0.37,0.33,0.93,0.33,1.3,0l0.79-0.7c1.4-1.25,3.56-1.12,4.8,0.29c0.6,0.68,0.91,1.55,0.85,2.46c-0.05,0.91-0.46,1.74-1.14,2.34
		l-5.96,5.29L48.09-14.75z"/>
	<path class="st1" d="M222.69-17.09c0.05-0.91-0.25-1.78-0.85-2.46c-1.25-1.4-3.4-1.53-4.8-0.29l-0.79,0.7
		c-0.37,0.33-0.93,0.33-1.3,0l-0.79-0.7c-0.65-0.57-1.45-0.86-2.26-0.86c-0.94,0-1.87,0.39-2.55,1.14c-0.6,0.68-0.91,1.55-0.85,2.46
		c0.05,0.91,0.46,1.74,1.14,2.34l5.96,5.29l5.96-5.29C222.24-15.35,222.64-16.18,222.69-17.09z"/>
	<path class="st2" d="M215.74-21.3l-0.14,0.13l-0.14-0.13c-2.21-1.96-5.61-1.76-7.57,0.45c-0.95,1.07-1.43,2.45-1.34,3.88
		c0.09,1.43,0.72,2.74,1.79,3.69l6.61,5.87c0.19,0.16,0.42,0.25,0.65,0.25s0.47-0.08,0.65-0.25l6.61-5.87
		c1.07-0.95,1.71-2.26,1.79-3.69c0.09-1.43-0.39-2.81-1.34-3.88C221.35-23.06,217.95-23.26,215.74-21.3z M209.64-14.75
		c-0.68-0.6-1.08-1.43-1.14-2.34c-0.05-0.91,0.25-1.78,0.85-2.46c0.67-0.76,1.61-1.14,2.55-1.14c0.8,0,1.61,0.28,2.26,0.86l0.79,0.7
		c0.37,0.33,0.93,0.33,1.3,0l0.79-0.7c1.4-1.25,3.56-1.12,4.8,0.29c0.6,0.68,0.91,1.55,0.85,2.46c-0.05,0.91-0.46,1.74-1.14,2.34
		l-5.96,5.29L209.64-14.75z"/>
	<path class="st3" d="M-228.65-20.51c-1.08,2.45-2.88,4.43-5.1,5.59c2.21,1.15,4.01,3.12,5.1,5.54c1.09-2.46,2.91-4.42,5.14-5.57
		C-225.76-16.1-227.56-18.06-228.65-20.51z"/>
	<path class="st4" d="M-220.37-15.83l-1.15-0.39c-2.95-1.01-5.19-3.63-5.98-7l-0.19-0.82c-0.1-0.44-0.5-0.75-0.95-0.76
		c0,0,0,0-0.01,0c-0.45,0-0.84,0.31-0.95,0.74l-0.26,1.05c-0.87,3.49-3.35,6.18-6.46,7.01l-0.54,0.15
		c-0.43,0.12-0.73,0.51-0.73,0.96c0.01,0.45,0.32,0.84,0.75,0.94l0.33,0.08c3.31,0.79,5.96,3.71,6.76,7.43l0.14,0.66
		c0.1,0.45,0.5,0.77,0.96,0.77c0,0,0,0,0,0c0.46,0,0.86-0.33,0.96-0.78l0.12-0.58c0.81-3.9,3.59-6.87,7.07-7.57
		c0.43-0.09,0.76-0.45,0.79-0.9C-219.68-15.28-219.95-15.69-220.37-15.83z M-223.51-14.95c-2.24,1.15-4.05,3.12-5.14,5.57
		c-1.08-2.42-2.89-4.39-5.1-5.54c2.22-1.16,4.02-3.14,5.1-5.59C-227.56-18.06-225.76-16.1-223.51-14.95z"/>
	<path class="st3" d="M-147.88-20.51c-1.08,2.45-2.88,4.43-5.1,5.59c2.21,1.16,4.01,3.12,5.09,5.54c1.09-2.46,2.91-4.42,5.14-5.57
		C-144.99-16.1-146.79-18.06-147.88-20.51z"/>
	<path class="st4" d="M-139.59-15.83l-1.15-0.39c-2.95-1.01-5.19-3.63-5.98-7l-0.19-0.82c-0.1-0.44-0.5-0.75-0.95-0.76
		c0,0,0,0-0.01,0c-0.45,0-0.84,0.31-0.95,0.74l-0.26,1.05c-0.87,3.49-3.35,6.18-6.46,7.01l-0.54,0.15
		c-0.43,0.12-0.73,0.51-0.72,0.96c0.01,0.45,0.32,0.84,0.75,0.94l0.33,0.08c3.31,0.79,5.96,3.71,6.76,7.43l0.14,0.66
		c0.1,0.45,0.5,0.77,0.96,0.77c0,0,0,0,0,0c0.46,0,0.86-0.33,0.96-0.78l0.12-0.58c0.81-3.9,3.59-6.87,7.07-7.57
		c0.43-0.09,0.76-0.45,0.79-0.9C-138.9-15.28-139.18-15.69-139.59-15.83z M-142.74-14.95c-2.24,1.15-4.05,3.11-5.14,5.57
		c-1.08-2.42-2.89-4.38-5.09-5.54c2.22-1.16,4.02-3.14,5.1-5.59C-146.79-18.06-144.99-16.1-142.74-14.95z"/>
	<path class="st3" d="M13.67-20.51c-1.08,2.45-2.88,4.43-5.1,5.59c2.21,1.16,4.01,3.12,5.1,5.54c1.09-2.46,2.91-4.42,5.14-5.57
		C16.55-16.1,14.75-18.06,13.67-20.51z"/>
	<path class="st4" d="M21.95-15.83l-1.15-0.39c-2.95-1.01-5.19-3.63-5.98-7l-0.19-0.82c-0.1-0.44-0.5-0.75-0.95-0.76
		c-0.46,0.02-0.85,0.3-0.96,0.74l-0.26,1.05c-0.87,3.49-3.35,6.18-6.46,7.01l-0.54,0.15c-0.43,0.12-0.73,0.51-0.73,0.96
		c0.01,0.45,0.32,0.84,0.75,0.94l0.33,0.08c3.31,0.79,5.96,3.71,6.76,7.43l0.14,0.66c0.1,0.45,0.5,0.77,0.96,0.77c0,0,0,0,0,0
		c0.46,0,0.86-0.33,0.96-0.78l0.12-0.58c0.81-3.9,3.59-6.87,7.07-7.57c0.43-0.09,0.76-0.45,0.79-0.9
		C22.64-15.28,22.37-15.69,21.95-15.83z M18.81-14.95c-2.24,1.15-4.05,3.11-5.14,5.57c-1.08-2.42-2.89-4.38-5.1-5.54
		c2.22-1.16,4.02-3.14,5.1-5.59C14.75-18.06,16.55-16.1,18.81-14.95z"/>
	<path class="st3" d="M94.44-20.51c-1.08,2.45-2.88,4.43-5.1,5.59c2.21,1.16,4.01,3.12,5.1,5.54c1.09-2.46,2.91-4.42,5.14-5.57
		C97.33-16.1,95.52-18.06,94.44-20.51z"/>
	<path class="st4" d="M102.72-15.83l-1.15-0.39c-2.95-1.01-5.19-3.63-5.98-7l-0.19-0.82c-0.1-0.44-0.5-0.75-0.95-0.76
		c-0.44,0.02-0.85,0.3-0.96,0.74l-0.26,1.05c-0.87,3.49-3.35,6.18-6.46,7.01l-0.54,0.15c-0.43,0.12-0.73,0.51-0.73,0.96
		c0.01,0.45,0.32,0.84,0.75,0.94l0.33,0.08c3.31,0.79,5.96,3.71,6.76,7.43l0.14,0.66c0.1,0.45,0.5,0.77,0.96,0.77c0,0,0,0,0,0
		c0.46,0,0.86-0.33,0.96-0.78l0.12-0.59c0.81-3.9,3.59-6.87,7.07-7.57c0.43-0.09,0.76-0.45,0.79-0.9
		C103.41-15.28,103.14-15.69,102.72-15.83z M99.58-14.95c-2.24,1.15-4.05,3.12-5.14,5.57c-1.08-2.42-2.89-4.38-5.1-5.54
		c2.22-1.16,4.02-3.14,5.1-5.59C95.52-18.06,97.33-16.1,99.58-14.95z"/>
	<path class="st3" d="M175.21-20.51c-1.08,2.45-2.88,4.43-5.1,5.59c2.21,1.15,4.01,3.12,5.1,5.54c1.09-2.46,2.91-4.42,5.14-5.57
		C178.1-16.1,176.29-18.06,175.21-20.51z"/>
	<path class="st4" d="M183.49-15.83l-1.15-0.39c-2.95-1.01-5.19-3.63-5.98-7l-0.19-0.82c-0.1-0.44-0.5-0.75-0.95-0.76
		c0,0,0,0-0.01,0c-0.45,0-0.84,0.31-0.95,0.74L174-23.01c-0.87,3.49-3.35,6.18-6.46,7.01l-0.54,0.15c-0.43,0.12-0.73,0.51-0.73,0.96
		c0.01,0.45,0.32,0.84,0.75,0.94l0.33,0.08c3.31,0.79,5.96,3.71,6.76,7.43l0.14,0.66c0.1,0.45,0.5,0.77,0.96,0.77c0,0,0,0,0,0
		c0.46,0,0.86-0.33,0.96-0.78l0.12-0.58c0.81-3.9,3.59-6.87,7.07-7.57c0.43-0.09,0.76-0.45,0.79-0.9
		C184.18-15.28,183.91-15.69,183.49-15.83z M180.35-14.95c-2.24,1.15-4.05,3.12-5.14,5.57c-1.08-2.42-2.89-4.39-5.1-5.54
		c2.22-1.16,4.02-3.14,5.1-5.59C176.29-18.06,178.1-16.1,180.35-14.95z"/>
	<path class="st3" d="M-67.1-20.51c-1.08,2.45-2.88,4.43-5.1,5.59c2.21,1.16,4.01,3.12,5.1,5.54c1.09-2.46,2.91-4.42,5.14-5.57
		C-64.22-16.1-66.02-18.06-67.1-20.51z"/>
	<path class="st4" d="M-58.82-15.83l-1.15-0.39c-2.95-1.01-5.19-3.63-5.98-7l-0.19-0.82c-0.1-0.44-0.5-0.75-0.95-0.76
		c0,0,0,0-0.01,0c-0.45,0-0.84,0.31-0.95,0.74l-0.26,1.05c-0.87,3.49-3.35,6.18-6.46,7.01l-0.54,0.15
		c-0.43,0.12-0.73,0.51-0.73,0.96c0.01,0.45,0.32,0.84,0.75,0.94l0.33,0.08c3.31,0.79,5.96,3.71,6.76,7.43l0.14,0.66
		c0.1,0.45,0.5,0.77,0.96,0.77c0,0,0,0,0,0c0.46,0,0.86-0.33,0.96-0.78l0.12-0.58c0.81-3.9,3.59-6.87,7.07-7.57
		c0.44-0.09,0.76-0.45,0.79-0.9C-58.13-15.28-58.4-15.69-58.82-15.83z M-61.96-14.95c-2.24,1.15-4.05,3.11-5.14,5.57
		c-1.08-2.42-2.89-4.38-5.1-5.54c2.22-1.16,4.02-3.14,5.1-5.59C-66.02-18.06-64.22-16.1-61.96-14.95z"/>
	<path class="st5" d="M-207.13-17.17c-0.97-0.57-2.4-0.44-3.18,0.41c-0.72,0.79-0.96,1.87-0.54,2.86c0.52,1.23,1.8,1.82,3.09,1.52
		c0.02,0,0.04-0.01,0.06-0.01c0.82-0.19,1.57-0.94,1.76-1.76c0-0.02,0.01-0.04,0.01-0.06C-205.66-15.35-206.1-16.56-207.13-17.17z"
		/>
	<path class="st5" d="M-166.74-17.17c-0.97-0.57-2.4-0.44-3.18,0.41c-0.72,0.79-0.96,1.87-0.54,2.86c0.52,1.23,1.8,1.82,3.09,1.52
		c0.02,0,0.04-0.01,0.06-0.01c0.82-0.19,1.57-0.94,1.76-1.76c0-0.02,0.01-0.04,0.01-0.06C-165.28-15.35-165.71-16.56-166.74-17.17z"
		/>
	<path class="st5" d="M-126.36-17.17c-0.97-0.57-2.4-0.44-3.18,0.41c-0.72,0.79-0.96,1.87-0.54,2.86c0.52,1.23,1.8,1.82,3.09,1.52
		c0.02,0,0.04-0.01,0.06-0.01c0.82-0.19,1.57-0.94,1.76-1.76c0-0.02,0.01-0.04,0.01-0.06C-124.89-15.35-125.32-16.56-126.36-17.17z"
		/>
	<path class="st5" d="M-85.97-17.17c-0.97-0.57-2.4-0.44-3.18,0.41c-0.72,0.79-0.96,1.87-0.54,2.86c0.52,1.23,1.8,1.82,3.09,1.52
		c0.02,0,0.04-0.01,0.06-0.01c0.82-0.19,1.57-0.94,1.76-1.76c0-0.02,0.01-0.04,0.01-0.06C-84.51-15.35-84.94-16.56-85.97-17.17z"/>
	<path class="st5" d="M-45.59-17.17c-0.97-0.57-2.4-0.44-3.18,0.41c-0.72,0.79-0.96,1.87-0.54,2.86c0.52,1.23,1.8,1.82,3.09,1.52
		c0.02,0,0.04-0.01,0.06-0.01c0.82-0.19,1.57-0.94,1.76-1.76c0-0.02,0.01-0.04,0.01-0.06C-44.12-15.35-44.55-16.56-45.59-17.17z"/>
	<path class="st5" d="M-5.2-17.17c-0.97-0.57-2.4-0.44-3.18,0.41c-0.72,0.79-0.96,1.87-0.54,2.86c0.52,1.23,1.8,1.82,3.09,1.52
		c0.02,0,0.04-0.01,0.06-0.01c0.82-0.19,1.57-0.94,1.76-1.76c0-0.02,0.01-0.04,0.01-0.06C-3.73-15.35-4.17-16.56-5.2-17.17z"/>
	<path class="st5" d="M35.18-17.17c-0.97-0.57-2.4-0.44-3.18,0.41c-0.72,0.79-0.96,1.87-0.54,2.86c0.52,1.23,1.8,1.82,3.09,1.52
		c0.02,0,0.04-0.01,0.06-0.01c0.82-0.19,1.57-0.94,1.76-1.76c0-0.02,0.01-0.04,0.01-0.06C36.65-15.35,36.22-16.56,35.18-17.17z"/>
	<path class="st5" d="M75.57-17.17c-0.97-0.57-2.4-0.44-3.18,0.41c-0.72,0.79-0.96,1.87-0.54,2.86c0.52,1.23,1.8,1.82,3.09,1.52
		c0.02,0,0.04-0.01,0.06-0.01c0.82-0.19,1.57-0.94,1.76-1.76c0-0.02,0.01-0.04,0.01-0.06C77.04-15.35,76.6-16.56,75.57-17.17z"/>
	<path class="st5" d="M115.96-17.17c-0.97-0.57-2.4-0.44-3.18,0.41c-0.72,0.79-0.96,1.87-0.54,2.86c0.52,1.23,1.8,1.82,3.09,1.52
		c0.02,0,0.04-0.01,0.06-0.01c0.82-0.19,1.57-0.94,1.76-1.76c0-0.02,0.01-0.04,0.01-0.06C117.42-15.35,116.99-16.56,115.96-17.17z"
		/>
	<path class="st5" d="M156.34-17.17c-0.97-0.57-2.4-0.44-3.18,0.41c-0.72,0.79-0.96,1.87-0.54,2.86c0.52,1.23,1.8,1.82,3.09,1.52
		c0.02,0,0.04-0.01,0.06-0.01c0.82-0.19,1.57-0.94,1.76-1.76c0-0.02,0.01-0.04,0.01-0.06C157.81-15.35,157.38-16.56,156.34-17.17z"
		/>
	<path class="st5" d="M196.73-17.17c-0.97-0.57-2.4-0.44-3.18,0.41c-0.72,0.79-0.96,1.87-0.54,2.86c0.52,1.23,1.8,1.82,3.09,1.52
		c0.02,0,0.04-0.01,0.06-0.01c0.82-0.19,1.57-0.94,1.76-1.76c0-0.02,0.01-0.04,0.01-0.06C198.19-15.35,197.76-16.56,196.73-17.17z"
		/>
	<path class="st5" d="M237.11-17.17c-0.97-0.57-2.4-0.44-3.18,0.41c-0.72,0.79-0.96,1.87-0.54,2.86c0.52,1.23,1.8,1.82,3.09,1.52
		c0.02,0,0.04-0.01,0.06-0.01c0.82-0.19,1.57-0.94,1.76-1.76c0-0.02,0.01-0.04,0.01-0.06C238.58-15.35,238.15-16.56,237.11-17.17z"
		/>
	<path class="st1" d="M383.39-19.55c-1.25-1.4-3.4-1.53-4.8-0.29l-0.79,0.7c-0.37,0.33-0.93,0.33-1.3,0l-0.79-0.7
		c-0.65-0.57-1.45-0.86-2.26-0.86c-0.94,0-1.87,0.39-2.55,1.14c-0.6,0.68-0.91,1.55-0.85,2.46c0.05,0.91,0.46,1.74,1.14,2.34
		l5.96,5.29l5.96-5.29c0.68-0.6,1.08-1.43,1.14-2.34C384.29-17.99,383.99-18.87,383.39-19.55z"/>
	<path class="st2" d="M377.28-21.3l-0.14,0.13L377-21.3c-2.21-1.96-5.61-1.76-7.57,0.45c-0.95,1.07-1.43,2.45-1.34,3.88
		c0.09,1.43,0.72,2.74,1.79,3.69l6.61,5.87c0.19,0.16,0.42,0.25,0.65,0.25c0.23,0,0.47-0.08,0.65-0.25l6.61-5.87
		c1.07-0.95,1.71-2.26,1.79-3.69c0.08-1.43-0.39-2.81-1.34-3.88C382.89-23.06,379.49-23.26,377.28-21.3z M377.14-9.45l-5.96-5.29
		c-0.68-0.6-1.08-1.43-1.14-2.34c-0.05-0.91,0.25-1.78,0.85-2.46c0.67-0.76,1.61-1.14,2.55-1.14c0.8,0,1.61,0.28,2.26,0.86l0.79,0.7
		c0.37,0.33,0.93,0.33,1.3,0l0.79-0.7c1.4-1.25,3.56-1.12,4.8,0.29c0.6,0.68,0.91,1.55,0.85,2.46c-0.05,0.91-0.46,1.74-1.14,2.34
		L377.14-9.45z"/>
	<path class="st1" d="M303.47-17.09c0.05-0.91-0.25-1.78-0.85-2.46c-1.25-1.4-3.4-1.53-4.8-0.29l-0.79,0.7
		c-0.37,0.33-0.93,0.33-1.3,0l-0.79-0.7c-0.65-0.57-1.45-0.86-2.26-0.86c-0.94,0-1.87,0.39-2.55,1.14c-0.6,0.68-0.91,1.55-0.85,2.46
		c0.05,0.91,0.46,1.74,1.14,2.34l5.96,5.29l5.96-5.29C303.01-15.35,303.41-16.18,303.47-17.09z"/>
	<path class="st2" d="M296.51-21.3l-0.14,0.13l-0.14-0.13c-2.21-1.96-5.61-1.76-7.57,0.45c-0.95,1.07-1.43,2.45-1.34,3.88
		c0.09,1.43,0.72,2.74,1.79,3.69l6.61,5.87c0.19,0.16,0.42,0.25,0.65,0.25c0.23,0,0.47-0.08,0.65-0.25l6.61-5.87
		c1.07-0.95,1.71-2.26,1.79-3.69c0.09-1.43-0.39-2.81-1.34-3.88C302.12-23.06,298.72-23.26,296.51-21.3z M290.41-14.75
		c-0.68-0.6-1.08-1.43-1.14-2.34c-0.05-0.91,0.25-1.78,0.85-2.46c0.67-0.76,1.61-1.14,2.55-1.14c0.8,0,1.61,0.28,2.26,0.86l0.79,0.7
		c0.37,0.33,0.93,0.33,1.3,0l0.79-0.7c1.4-1.25,3.56-1.12,4.8,0.29c0.6,0.68,0.91,1.55,0.85,2.46c-0.05,0.91-0.46,1.74-1.14,2.34
		l-5.96,5.29L290.41-14.75z"/>
	<path class="st3" d="M255.98-20.51c-1.08,2.45-2.88,4.43-5.1,5.59c2.21,1.16,4.01,3.12,5.09,5.54c1.09-2.46,2.91-4.42,5.14-5.57
		C258.87-16.1,257.07-18.06,255.98-20.51z"/>
	<path class="st4" d="M264.26-15.83l-1.15-0.39c-2.95-1.01-5.19-3.63-5.98-7l-0.19-0.82c-0.1-0.44-0.5-0.75-0.95-0.76
		c0,0,0,0-0.01,0c-0.45,0-0.84,0.31-0.95,0.74l-0.26,1.05c-0.87,3.49-3.35,6.18-6.46,7.01l-0.54,0.15
		c-0.43,0.12-0.73,0.51-0.73,0.96c0.01,0.45,0.32,0.84,0.75,0.94l0.33,0.08c3.31,0.79,5.96,3.71,6.76,7.43l0.14,0.66
		c0.1,0.45,0.5,0.77,0.96,0.77c0,0,0,0,0,0c0.46,0,0.86-0.33,0.96-0.78l0.12-0.59c0.81-3.9,3.59-6.87,7.07-7.57
		c0.43-0.09,0.76-0.45,0.79-0.9C264.95-15.28,264.68-15.69,264.26-15.83z M261.12-14.95c-2.24,1.15-4.05,3.11-5.14,5.57
		c-1.08-2.42-2.89-4.38-5.09-5.54c2.22-1.16,4.02-3.14,5.1-5.59C257.07-18.06,258.87-16.1,261.12-14.95z"/>
	<path class="st3" d="M336.75-20.51c-1.08,2.45-2.88,4.43-5.1,5.59c2.21,1.15,4.01,3.12,5.1,5.54c1.09-2.46,2.91-4.42,5.14-5.57
		C339.64-16.1,337.84-18.06,336.75-20.51z"/>
	<path class="st4" d="M345.03-15.83l-1.15-0.39c-2.95-1.01-5.19-3.63-5.98-7l-0.19-0.82c-0.1-0.44-0.5-0.75-0.95-0.76
		c0,0,0,0-0.01,0c-0.45,0-0.84,0.31-0.95,0.74l-0.26,1.05c-0.87,3.49-3.35,6.18-6.46,7.01l-0.54,0.15
		c-0.43,0.12-0.73,0.51-0.73,0.96c0.01,0.45,0.32,0.84,0.75,0.94l0.33,0.08c3.31,0.79,5.96,3.71,6.76,7.43l0.14,0.66
		c0.1,0.45,0.5,0.77,0.96,0.77c0,0,0,0,0,0c0.46,0,0.86-0.33,0.96-0.78l0.12-0.58c0.81-3.9,3.59-6.87,7.07-7.57
		c0.43-0.09,0.76-0.45,0.79-0.9C345.72-15.28,345.45-15.69,345.03-15.83z M341.89-14.95c-2.24,1.15-4.05,3.12-5.14,5.57
		c-1.08-2.42-2.89-4.39-5.1-5.54c2.22-1.16,4.02-3.14,5.1-5.59C337.84-18.06,339.64-16.1,341.89-14.95z"/>
	<path class="st5" d="M277.5-17.17c-0.97-0.57-2.4-0.44-3.18,0.41c-0.72,0.79-0.96,1.87-0.54,2.86c0.52,1.23,1.8,1.82,3.09,1.52
		c0.02,0,0.04-0.01,0.06-0.01c0.82-0.19,1.57-0.94,1.76-1.76c0-0.02,0.01-0.04,0.01-0.06C278.97-15.35,278.53-16.56,277.5-17.17z"/>
	<path class="st5" d="M317.88-17.17c-0.97-0.57-2.4-0.44-3.18,0.41c-0.72,0.79-0.96,1.87-0.54,2.86c0.52,1.23,1.8,1.82,3.09,1.52
		c0.02,0,0.04-0.01,0.06-0.01c0.82-0.19,1.57-0.94,1.76-1.76c0-0.02,0.01-0.04,0.01-0.06C319.35-15.35,318.92-16.56,317.88-17.17z"
		/>
	<path class="st5" d="M358.27-17.17c-0.97-0.57-2.4-0.44-3.18,0.41c-0.72,0.79-0.96,1.87-0.54,2.86c0.52,1.23,1.8,1.82,3.09,1.52
		c0.02,0,0.04-0.01,0.06-0.01c0.82-0.19,1.57-0.94,1.76-1.76c0-0.02,0.01-0.04,0.01-0.06C359.74-15.35,359.3-16.56,358.27-17.17z"/>
	<path class="st5" d="M398.65-17.17c-0.97-0.57-2.4-0.44-3.18,0.41c-0.72,0.79-0.96,1.87-0.54,2.86c0.52,1.23,1.8,1.82,3.09,1.52
		c0.02,0,0.04-0.01,0.06-0.01c0.82-0.19,1.57-0.94,1.76-1.76c0-0.02,0.01-0.04,0.01-0.06C400.12-15.35,399.69-16.56,398.65-17.17z"
		/>
</g>
<g class="st0">
	<path class="st5" d="M-219.55-22.72c-1.07,1.57-2.14,3.12-3.2,4.69c0.81-1.94,1.63-3.88,2.44-5.82c0.41-0.97-0.63-2.06-1.32-1.21
		c-0.64,0.79-1.23,1.63-1.79,2.48c0.34-0.77,0.68-1.54,0.99-2.32c0.33-0.81-0.51-1.73-1.11-1.01c-1.61,1.95-3.08,3.95-4.45,6.02
		c0.92-2.34,1.86-4.68,2.79-7.02c0.44-1.1-0.8-2.53-1.55-1.42c-0.05,0.08-0.1,0.16-0.15,0.24l0,0c0,0,0,0,0,0.01
		c-2.19,3.29-3.75,6.92-5.6,10.47c-1.49,2.86-3.51,5.54-4.04,8.92c-0.19,1.19,1.19,1.65,1.54,0.5c0.56-1.87,1.49-3.51,2.47-5.11
		c-0.78,2.18-1.52,4.38-2.19,6.62c-0.41,1.37,1.36,1.87,1.81,0.59c1.41-4.06,3.28-8.17,5.52-11.9c-0.34,0.74-0.7,1.46-1.03,2.21
		c-1.21,2.69-1.89,5.72-3.28,8.27c-0.6,1.11,0.84,2.04,1.47,1.01c0.88-1.44,1.69-2.94,2.48-4.47c-0.63,1.5-1.28,2.99-1.9,4.5
		c-0.53,1.29,1.02,2.41,1.65,1.14c2.79-5.68,6.47-10.56,10-15.59C-217.15-22.18-218.69-23.98-219.55-22.72z"/>
	<path class="st3" d="M-197.91-2.77c2.29-4.04,4.38-8.57,6.39-12.82c0.55-1.16-0.43-2.21-1.28-2.06c0.38-1,0.71-2,0.96-3.01
		c0.39-1.57-1.62-2.57-2.27-1.09c-0.68,1.57-1.54,3.01-2.37,4.46c0.62-1.78,1.3-3.54,2.11-5.23c0.73-1.54-1.17-2.75-2-1.34
		c-0.75,1.28-1.49,2.59-2.18,3.92c0.59-1.87,1.22-3.72,1.95-5.53c0.51-1.27-0.93-2.87-1.8-1.62c-0.08,0.12-0.16,0.24-0.23,0.35
		c0.22-0.53,0.44-1.06,0.65-1.58c0.43-1.09-0.83-1.96-1.39-0.93c-1.86,3.44-3.41,7.05-5.03,10.66c-1.15,2.57-2.43,5.09-2.92,7.97
		c-0.21,1.24,1.21,2.57,2.02,1.37c0.81-1.22,1.53-2.5,2.2-3.81c-0.77,2.13-1.61,4.37-1.39,6.63c0.11,1.09,1.1,1.66,1.78,1.05
		c-0.05,0.28-0.1,0.55-0.14,0.83c-0.17,1.33,1.14,2.52,2.06,1.39c0.22-0.28,0.43-0.56,0.64-0.85c-0.01,0.18-0.03,0.35-0.04,0.53
		C-200.24-1.95-198.54-1.66-197.91-2.77z"/>
	<path class="st6" d="M-164.59-23.52c-3.47,4.81-4.48,11.4-7.41,16.52c0.18-0.97,0.41-1.92,0.69-2.86
		c2.12-4.02,3.77-8.37,5.31-12.77c0.42-1.19-1.29-2.04-1.77-0.88c-0.11,0.26-0.22,0.52-0.33,0.78c0.5-1.03-0.69-2.13-1.41-1.27
		c-2.83,3.4-4.87,7.46-6.93,11.5c1.15-3.43,2.71-6.72,4.21-9.84c0.44-0.92-0.69-1.67-1.19-0.82c-3.1,5.33-6.04,11.37-6.75,17.89
		c-0.14,1.33,1.42,1.49,1.93,0.62c1.55-2.61,2.88-5.39,4.24-8.14c-0.67,2.18-1.26,4.4-1.8,6.65c-0.24,1.02,0.96,1.98,1.58,1.09
		c0.04-0.05,0.07-0.11,0.11-0.16c-0.04,0.56-0.06,1.13-0.06,1.71c0.01,0.93,0.97,1.39,1.53,0.75c4.25-4.82,5.18-12.05,8.49-17.59
		c0.38,0.01,0.78-0.22,0.9-0.72c0.11-0.43,0.21-0.86,0.32-1.28C-162.64-23.46-163.93-24.44-164.59-23.52z"/>
	<path class="st1" d="M-134.55-21.31c0.15-1.07-1.01-1.77-1.53-0.76c-0.78,1.5-1.65,2.93-2.51,4.38c0.41-1.35,0.78-2.73,1.03-4.15
		c0.2-1.11-1.18-1.97-1.64-0.82c-1.71,4.2-3.63,8.35-5.87,12.22c1.53-3.97,3.15-7.9,4.67-11.88c0.24-0.63-0.44-1.43-0.88-0.8
		c-1.88,2.63-3.52,5.36-5.23,8.14c-0.48,0.78-0.99,1.54-1.5,2.29c1.81-3.6,3.94-7.05,5.19-10.97c0.24-0.76-0.76-1.22-1.09-0.54
		c-3.11,6.34-7.86,11.78-8.92,19.25c-0.16,1.16,1.2,2.07,1.73,0.86c1.44-3.27,3.47-5.99,5.24-9c0.1-0.16,0.18-0.33,0.28-0.49
		c-1.25,3.01-2.4,6.08-3.37,9.25c-0.27,0.87,0.78,1.53,1.29,0.89c1.57-1.95,2.98-4.04,4.28-6.23c-0.46,1.4-0.87,2.82-1.15,4.3
		c-0.25,1.31,1.14,1.93,1.78,0.89c0.38-0.63,0.73-1.28,1.05-1.95c-0.15,0.69-0.28,1.38-0.38,2.08c-0.14,1,1.11,1.87,1.52,0.76
		c0.14-0.37,0.28-0.74,0.41-1.11c0.1-0.27,0.09-0.52,0.02-0.73c0.69-3.01,1.71-5.96,2.98-8.67
		C-136.08-16.47-134.93-18.66-134.55-21.31z"/>
	<path class="st5" d="M-108.26-22.72c-1.07,1.57-2.14,3.12-3.2,4.69c0.81-1.94,1.63-3.88,2.44-5.82c0.41-0.97-0.63-2.06-1.32-1.21
		c-0.64,0.79-1.23,1.63-1.79,2.48c0.34-0.77,0.68-1.54,0.99-2.32c0.33-0.81-0.51-1.73-1.11-1.01c-1.61,1.95-3.08,3.95-4.45,6.02
		c0.92-2.34,1.86-4.68,2.79-7.02c0.44-1.1-0.8-2.53-1.55-1.42c-0.05,0.08-0.1,0.16-0.15,0.24l0,0c0,0,0,0,0,0.01
		c-2.19,3.29-3.75,6.92-5.6,10.47c-1.49,2.86-3.51,5.54-4.04,8.92c-0.19,1.19,1.19,1.65,1.54,0.5c0.56-1.87,1.49-3.51,2.47-5.11
		c-0.78,2.18-1.52,4.38-2.19,6.62c-0.41,1.37,1.36,1.87,1.81,0.59c1.41-4.06,3.28-8.17,5.52-11.9c-0.34,0.74-0.7,1.46-1.03,2.21
		c-1.21,2.69-1.89,5.72-3.28,8.27c-0.6,1.11,0.84,2.04,1.47,1.01c0.88-1.44,1.69-2.94,2.48-4.47c-0.63,1.5-1.28,2.99-1.9,4.5
		c-0.53,1.29,1.02,2.41,1.65,1.14c2.79-5.68,6.47-10.56,10-15.59C-105.86-22.18-107.39-23.98-108.26-22.72z"/>
	<path class="st3" d="M-86.62-2.77c2.29-4.04,4.38-8.57,6.39-12.82c0.55-1.16-0.43-2.21-1.28-2.06c0.38-1,0.71-2,0.96-3.01
		c0.39-1.57-1.62-2.57-2.27-1.09c-0.68,1.57-1.54,3.01-2.37,4.46c0.62-1.78,1.3-3.54,2.11-5.23c0.73-1.54-1.17-2.75-2-1.34
		c-0.75,1.28-1.49,2.59-2.18,3.92c0.59-1.87,1.22-3.72,1.95-5.53c0.51-1.27-0.93-2.87-1.8-1.62c-0.08,0.12-0.16,0.24-0.23,0.35
		c0.22-0.53,0.44-1.06,0.65-1.58c0.43-1.09-0.83-1.96-1.39-0.93c-1.86,3.44-3.41,7.05-5.03,10.66c-1.15,2.57-2.43,5.09-2.92,7.97
		C-96.23-9.38-94.8-8.05-94-9.25c0.81-1.22,1.53-2.5,2.2-3.81c-0.77,2.13-1.61,4.37-1.39,6.63c0.11,1.09,1.1,1.66,1.78,1.05
		c-0.05,0.28-0.1,0.55-0.14,0.83c-0.17,1.33,1.14,2.52,2.06,1.39c0.22-0.28,0.43-0.56,0.64-0.85c-0.01,0.18-0.03,0.35-0.04,0.53
		C-88.95-1.95-87.25-1.66-86.62-2.77z"/>
	<path class="st6" d="M-53.3-23.52c-3.47,4.81-4.48,11.4-7.41,16.52c0.18-0.97,0.41-1.92,0.69-2.86c2.12-4.02,3.77-8.37,5.31-12.77
		c0.42-1.19-1.29-2.04-1.77-0.88c-0.11,0.26-0.22,0.52-0.33,0.78c0.5-1.03-0.69-2.13-1.41-1.27c-2.83,3.4-4.87,7.46-6.93,11.5
		c1.15-3.43,2.71-6.72,4.21-9.84c0.44-0.92-0.69-1.67-1.19-0.82c-3.1,5.33-6.04,11.37-6.75,17.89c-0.14,1.33,1.42,1.49,1.93,0.62
		c1.55-2.61,2.88-5.39,4.24-8.14c-0.67,2.18-1.26,4.4-1.8,6.65c-0.24,1.02,0.96,1.98,1.58,1.09c0.04-0.05,0.07-0.11,0.11-0.16
		c-0.04,0.56-0.06,1.13-0.06,1.71c0.01,0.93,0.97,1.39,1.53,0.75c4.25-4.82,5.18-12.05,8.49-17.59c0.38,0.01,0.78-0.22,0.9-0.72
		c0.11-0.43,0.21-0.86,0.32-1.28C-51.34-23.46-52.64-24.44-53.3-23.52z"/>
	<path class="st1" d="M-23.26-21.31c0.15-1.07-1.01-1.77-1.53-0.76c-0.78,1.5-1.65,2.93-2.51,4.38c0.41-1.35,0.78-2.73,1.03-4.15
		c0.2-1.11-1.18-1.97-1.64-0.82c-1.71,4.2-3.63,8.35-5.87,12.22c1.53-3.97,3.15-7.9,4.67-11.88c0.24-0.63-0.44-1.43-0.88-0.8
		c-1.88,2.63-3.52,5.36-5.23,8.14c-0.48,0.78-0.99,1.54-1.5,2.29c1.81-3.6,3.94-7.05,5.19-10.97c0.24-0.76-0.76-1.22-1.09-0.54
		c-3.11,6.34-7.86,11.78-8.92,19.25c-0.16,1.16,1.2,2.07,1.73,0.86c1.44-3.27,3.47-5.99,5.24-9c0.1-0.16,0.18-0.33,0.28-0.49
		c-1.25,3.01-2.4,6.08-3.37,9.25c-0.27,0.87,0.78,1.53,1.29,0.89c1.57-1.95,2.98-4.04,4.28-6.23c-0.46,1.4-0.87,2.82-1.15,4.3
		c-0.25,1.31,1.14,1.93,1.78,0.89c0.38-0.63,0.73-1.28,1.05-1.95c-0.15,0.69-0.28,1.38-0.38,2.08c-0.14,1,1.11,1.87,1.52,0.76
		c0.14-0.37,0.28-0.74,0.41-1.11c0.1-0.27,0.09-0.52,0.02-0.73c0.69-3.01,1.71-5.96,2.98-8.67C-24.78-16.47-23.64-18.66-23.26-21.31
		z"/>
	<path class="st5" d="M3.04-22.72c-1.07,1.57-2.14,3.12-3.2,4.69c0.81-1.94,1.63-3.88,2.44-5.82c0.41-0.97-0.63-2.06-1.32-1.21
		c-0.64,0.79-1.23,1.63-1.79,2.48c0.34-0.77,0.68-1.54,0.99-2.32c0.33-0.81-0.51-1.73-1.11-1.01c-1.61,1.95-3.08,3.95-4.45,6.02
		c0.92-2.34,1.86-4.68,2.79-7.02c0.44-1.1-0.8-2.53-1.55-1.42c-0.05,0.08-0.1,0.16-0.15,0.24l0,0c0,0,0,0,0,0.01
		c-2.19,3.29-3.75,6.92-5.6,10.47c-1.49,2.86-3.51,5.54-4.04,8.92c-0.19,1.19,1.19,1.65,1.54,0.5c0.56-1.87,1.49-3.51,2.47-5.11
		c-0.78,2.18-1.52,4.38-2.19,6.62c-0.41,1.37,1.36,1.87,1.81,0.59c1.41-4.06,3.28-8.17,5.52-11.9c-0.34,0.74-0.7,1.46-1.03,2.21
		c-1.21,2.69-1.89,5.72-3.28,8.27C-9.74-6.4-8.3-5.47-7.67-6.5c0.88-1.44,1.69-2.94,2.48-4.47c-0.63,1.5-1.28,2.99-1.9,4.5
		c-0.53,1.29,1.02,2.41,1.65,1.14c2.79-5.68,6.47-10.56,10-15.59C5.44-22.18,3.9-23.98,3.04-22.72z"/>
	<path class="st3" d="M24.67-2.77c2.29-4.04,4.38-8.57,6.39-12.82c0.55-1.16-0.43-2.21-1.28-2.06c0.38-1,0.71-2,0.96-3.01
		c0.39-1.57-1.62-2.57-2.27-1.09c-0.68,1.57-1.54,3.01-2.37,4.46c0.62-1.78,1.3-3.54,2.11-5.23c0.73-1.54-1.17-2.75-2-1.34
		c-0.75,1.28-1.49,2.59-2.18,3.92c0.59-1.87,1.22-3.72,1.95-5.53c0.51-1.27-0.93-2.87-1.8-1.62c-0.08,0.12-0.16,0.24-0.23,0.35
		c0.22-0.53,0.44-1.06,0.65-1.58c0.43-1.09-0.83-1.96-1.39-0.93c-1.86,3.44-3.41,7.05-5.03,10.66c-1.16,2.57-2.43,5.09-2.92,7.97
		c-0.21,1.24,1.21,2.57,2.02,1.37c0.81-1.22,1.53-2.5,2.2-3.81c-0.77,2.13-1.61,4.37-1.39,6.63c0.11,1.09,1.1,1.66,1.78,1.05
		c-0.05,0.28-0.1,0.55-0.14,0.83c-0.17,1.33,1.14,2.52,2.06,1.39c0.22-0.28,0.44-0.56,0.64-0.85c-0.01,0.18-0.03,0.35-0.04,0.53
		C22.34-1.95,24.05-1.66,24.67-2.77z"/>
	<path class="st6" d="M57.99-23.52c-3.47,4.81-4.48,11.4-7.41,16.52c0.18-0.97,0.41-1.92,0.69-2.86c2.12-4.02,3.77-8.37,5.31-12.77
		c0.42-1.19-1.29-2.04-1.77-0.88c-0.11,0.26-0.22,0.52-0.33,0.78c0.5-1.03-0.69-2.13-1.41-1.27c-2.83,3.4-4.87,7.46-6.93,11.5
		c1.15-3.43,2.71-6.72,4.21-9.84c0.44-0.92-0.69-1.67-1.19-0.82c-3.1,5.33-6.04,11.37-6.75,17.89c-0.14,1.33,1.42,1.49,1.93,0.62
		c1.55-2.61,2.88-5.39,4.24-8.14c-0.67,2.18-1.26,4.4-1.8,6.65c-0.24,1.02,0.96,1.98,1.58,1.09c0.04-0.05,0.07-0.11,0.11-0.16
		c-0.04,0.56-0.06,1.13-0.06,1.71c0.01,0.93,0.97,1.39,1.53,0.75c4.25-4.82,5.18-12.05,8.49-17.59c0.38,0.01,0.78-0.22,0.9-0.72
		c0.11-0.43,0.21-0.86,0.32-1.28C59.95-23.46,58.65-24.44,57.99-23.52z"/>
	<path class="st1" d="M88.03-21.31c0.15-1.07-1.01-1.77-1.53-0.76c-0.78,1.5-1.65,2.93-2.51,4.38c0.41-1.35,0.78-2.73,1.03-4.15
		c0.2-1.11-1.18-1.97-1.64-0.82c-1.71,4.2-3.63,8.35-5.87,12.22c1.53-3.97,3.15-7.9,4.67-11.88c0.24-0.63-0.44-1.43-0.88-0.8
		c-1.88,2.63-3.52,5.36-5.23,8.14c-0.48,0.78-0.99,1.54-1.5,2.29c1.81-3.6,3.94-7.05,5.19-10.97c0.24-0.76-0.76-1.22-1.09-0.54
		c-3.11,6.34-7.86,11.78-8.92,19.25c-0.16,1.16,1.2,2.07,1.73,0.86c1.44-3.27,3.47-5.99,5.24-9c0.1-0.16,0.18-0.33,0.28-0.49
		c-1.25,3.01-2.4,6.08-3.37,9.25c-0.27,0.87,0.78,1.53,1.29,0.89c1.57-1.95,2.98-4.04,4.28-6.23c-0.46,1.4-0.87,2.82-1.15,4.3
		c-0.25,1.31,1.14,1.93,1.78,0.89c0.38-0.63,0.73-1.28,1.05-1.95c-0.15,0.69-0.28,1.38-0.38,2.08c-0.14,1,1.11,1.87,1.52,0.76
		c0.14-0.37,0.28-0.74,0.41-1.11c0.1-0.27,0.09-0.52,0.02-0.73c0.69-3.01,1.71-5.96,2.98-8.67C86.51-16.47,87.66-18.66,88.03-21.31z
		"/>
	<path class="st5" d="M114.33-22.72c-1.07,1.57-2.14,3.12-3.2,4.69c0.81-1.94,1.63-3.88,2.44-5.82c0.41-0.97-0.63-2.06-1.32-1.21
		c-0.64,0.79-1.23,1.63-1.79,2.48c0.34-0.77,0.68-1.54,0.99-2.32c0.33-0.81-0.51-1.73-1.11-1.01c-1.61,1.95-3.08,3.95-4.45,6.02
		c0.92-2.34,1.86-4.68,2.79-7.02c0.44-1.1-0.8-2.53-1.55-1.42c-0.05,0.08-0.1,0.16-0.15,0.24l0,0c0,0,0,0,0,0.01
		c-2.19,3.29-3.75,6.92-5.6,10.47c-1.49,2.86-3.51,5.54-4.04,8.92c-0.19,1.19,1.19,1.65,1.54,0.5c0.56-1.87,1.49-3.51,2.47-5.11
		c-0.78,2.18-1.52,4.38-2.19,6.62c-0.41,1.37,1.36,1.87,1.81,0.59c1.41-4.06,3.28-8.17,5.52-11.9c-0.34,0.74-0.7,1.46-1.03,2.21
		c-1.21,2.69-1.89,5.72-3.28,8.27c-0.6,1.11,0.84,2.04,1.47,1.01c0.88-1.44,1.69-2.94,2.48-4.47c-0.63,1.5-1.28,2.99-1.9,4.5
		c-0.53,1.29,1.02,2.41,1.65,1.14c2.79-5.68,6.47-10.56,10-15.59C116.73-22.18,115.19-23.98,114.33-22.72z"/>
	<path class="st3" d="M135.97-2.77c2.29-4.04,4.38-8.57,6.39-12.82c0.55-1.16-0.43-2.21-1.28-2.06c0.38-1,0.71-2,0.96-3.01
		c0.39-1.57-1.62-2.57-2.27-1.09c-0.68,1.57-1.54,3.01-2.37,4.46c0.62-1.78,1.3-3.54,2.11-5.23c0.73-1.54-1.17-2.75-2-1.34
		c-0.75,1.28-1.49,2.59-2.18,3.92c0.59-1.87,1.22-3.72,1.95-5.53c0.51-1.27-0.93-2.87-1.8-1.62c-0.08,0.12-0.16,0.24-0.23,0.35
		c0.22-0.53,0.44-1.06,0.65-1.58c0.43-1.09-0.83-1.96-1.39-0.93c-1.86,3.44-3.41,7.05-5.03,10.66c-1.16,2.57-2.43,5.09-2.92,7.97
		c-0.21,1.24,1.21,2.57,2.02,1.37c0.81-1.22,1.53-2.5,2.2-3.81c-0.77,2.13-1.61,4.37-1.39,6.63c0.11,1.09,1.1,1.66,1.78,1.05
		c-0.05,0.28-0.1,0.55-0.14,0.83c-0.17,1.33,1.14,2.52,2.06,1.39c0.22-0.28,0.44-0.56,0.64-0.85c-0.01,0.18-0.03,0.35-0.04,0.53
		C133.63-1.95,135.34-1.66,135.97-2.77z"/>
	<path class="st6" d="M169.28-23.52c-3.47,4.81-4.48,11.4-7.41,16.52c0.18-0.97,0.41-1.92,0.69-2.86c2.12-4.02,3.77-8.37,5.31-12.77
		c0.42-1.19-1.29-2.04-1.77-0.88c-0.11,0.26-0.22,0.52-0.33,0.78c0.5-1.03-0.69-2.13-1.41-1.27c-2.83,3.4-4.87,7.46-6.93,11.5
		c1.15-3.43,2.71-6.72,4.21-9.84c0.44-0.92-0.69-1.67-1.19-0.82c-3.1,5.33-6.04,11.37-6.75,17.89c-0.14,1.33,1.42,1.49,1.93,0.62
		c1.55-2.61,2.88-5.39,4.24-8.14c-0.67,2.18-1.26,4.4-1.8,6.65c-0.24,1.02,0.96,1.98,1.58,1.09c0.04-0.05,0.07-0.11,0.11-0.16
		c-0.04,0.56-0.06,1.13-0.06,1.71c0.01,0.93,0.97,1.39,1.53,0.75c4.25-4.82,5.18-12.05,8.49-17.59c0.38,0.01,0.78-0.22,0.9-0.72
		c0.11-0.43,0.21-0.86,0.32-1.28C171.24-23.46,169.95-24.44,169.28-23.52z"/>
	<path class="st1" d="M199.32-21.31c0.15-1.07-1.01-1.77-1.53-0.76c-0.78,1.5-1.65,2.93-2.51,4.38c0.41-1.35,0.78-2.73,1.03-4.15
		c0.2-1.11-1.18-1.97-1.64-0.82c-1.71,4.2-3.63,8.35-5.87,12.22c1.53-3.97,3.15-7.9,4.67-11.88c0.24-0.63-0.44-1.43-0.88-0.8
		c-1.88,2.63-3.52,5.36-5.23,8.14c-0.48,0.78-0.99,1.54-1.5,2.29c1.81-3.6,3.94-7.05,5.19-10.97c0.24-0.76-0.76-1.22-1.09-0.54
		c-3.11,6.34-7.86,11.78-8.92,19.25c-0.16,1.16,1.2,2.07,1.73,0.86c1.44-3.27,3.47-5.99,5.24-9c0.1-0.16,0.18-0.33,0.28-0.49
		c-1.25,3.01-2.4,6.08-3.37,9.25c-0.27,0.87,0.78,1.53,1.29,0.89c1.57-1.95,2.98-4.04,4.28-6.23c-0.46,1.4-0.87,2.82-1.15,4.3
		c-0.25,1.31,1.14,1.93,1.78,0.89c0.38-0.63,0.73-1.28,1.05-1.95c-0.15,0.69-0.28,1.38-0.38,2.08c-0.14,1,1.11,1.87,1.52,0.76
		c0.14-0.37,0.28-0.74,0.41-1.11c0.1-0.27,0.09-0.52,0.02-0.73c0.69-3.01,1.71-5.96,2.98-8.67
		C197.8-16.47,198.95-18.66,199.32-21.31z"/>
	<path class="st5" d="M225.62-22.72c-1.07,1.57-2.14,3.12-3.2,4.69c0.81-1.94,1.63-3.88,2.44-5.82c0.41-0.97-0.63-2.06-1.32-1.21
		c-0.64,0.79-1.23,1.63-1.79,2.48c0.34-0.77,0.68-1.54,0.99-2.32c0.33-0.81-0.51-1.73-1.11-1.01c-1.61,1.95-3.08,3.95-4.45,6.02
		c0.92-2.34,1.86-4.68,2.79-7.02c0.44-1.1-0.8-2.53-1.55-1.42c-0.05,0.08-0.1,0.16-0.15,0.24l0,0c0,0,0,0,0,0.01
		c-2.19,3.29-3.75,6.92-5.6,10.47c-1.49,2.86-3.51,5.54-4.04,8.92c-0.19,1.19,1.19,1.65,1.54,0.5c0.56-1.87,1.49-3.51,2.47-5.11
		c-0.78,2.18-1.52,4.38-2.19,6.62c-0.41,1.37,1.36,1.87,1.81,0.59c1.41-4.06,3.28-8.17,5.52-11.9c-0.34,0.74-0.7,1.46-1.03,2.21
		c-1.21,2.69-1.89,5.72-3.28,8.27c-0.6,1.11,0.84,2.04,1.47,1.01c0.88-1.44,1.69-2.94,2.48-4.47c-0.63,1.5-1.28,2.99-1.9,4.5
		c-0.53,1.29,1.02,2.41,1.65,1.14c2.79-5.68,6.47-10.56,10-15.59C228.02-22.18,226.48-23.98,225.62-22.72z"/>
	<path class="st3" d="M247.26-2.77c2.29-4.04,4.38-8.57,6.39-12.82c0.55-1.16-0.43-2.21-1.28-2.06c0.38-1,0.71-2,0.96-3.01
		c0.39-1.57-1.62-2.57-2.27-1.09c-0.68,1.57-1.54,3.01-2.37,4.46c0.62-1.78,1.3-3.54,2.11-5.23c0.73-1.54-1.17-2.75-2-1.34
		c-0.75,1.28-1.49,2.59-2.18,3.92c0.59-1.87,1.22-3.72,1.95-5.53c0.51-1.27-0.93-2.87-1.8-1.62c-0.08,0.12-0.16,0.24-0.23,0.35
		c0.22-0.53,0.44-1.06,0.65-1.58c0.43-1.09-0.83-1.96-1.39-0.93c-1.86,3.44-3.41,7.05-5.03,10.66c-1.15,2.57-2.43,5.09-2.92,7.97
		c-0.21,1.24,1.21,2.57,2.02,1.37c0.81-1.22,1.53-2.5,2.2-3.81c-0.77,2.13-1.61,4.37-1.39,6.63c0.11,1.09,1.1,1.66,1.78,1.05
		c-0.05,0.28-0.1,0.55-0.14,0.83c-0.17,1.33,1.14,2.52,2.06,1.39c0.22-0.28,0.44-0.56,0.64-0.85c-0.01,0.18-0.03,0.35-0.04,0.53
		C244.93-1.95,246.63-1.66,247.26-2.77z"/>
	<path class="st6" d="M280.57-23.52c-3.47,4.81-4.48,11.4-7.41,16.52c0.18-0.97,0.41-1.92,0.69-2.86c2.12-4.02,3.77-8.37,5.31-12.77
		c0.42-1.19-1.29-2.04-1.77-0.88c-0.11,0.26-0.22,0.52-0.33,0.78c0.5-1.03-0.69-2.13-1.41-1.27c-2.83,3.4-4.87,7.46-6.93,11.5
		c1.15-3.43,2.71-6.72,4.21-9.84c0.44-0.92-0.69-1.67-1.19-0.82c-3.1,5.33-6.04,11.37-6.75,17.89c-0.14,1.33,1.42,1.49,1.93,0.62
		c1.55-2.61,2.88-5.39,4.24-8.14c-0.67,2.18-1.26,4.4-1.8,6.65c-0.24,1.02,0.96,1.98,1.58,1.09c0.04-0.05,0.07-0.11,0.11-0.16
		c-0.04,0.56-0.06,1.13-0.06,1.71c0.01,0.93,0.97,1.39,1.53,0.75c4.25-4.82,5.18-12.05,8.49-17.59c0.38,0.01,0.78-0.22,0.9-0.72
		c0.11-0.43,0.21-0.86,0.32-1.28C282.53-23.46,281.24-24.44,280.57-23.52z"/>
	<path class="st1" d="M310.61-21.31c0.15-1.07-1.01-1.77-1.53-0.76c-0.78,1.5-1.65,2.93-2.51,4.38c0.41-1.35,0.78-2.73,1.03-4.15
		c0.2-1.11-1.18-1.97-1.64-0.82c-1.71,4.2-3.63,8.35-5.87,12.22c1.53-3.97,3.15-7.9,4.67-11.88c0.24-0.63-0.44-1.43-0.88-0.8
		c-1.88,2.63-3.52,5.36-5.23,8.14c-0.48,0.78-0.99,1.54-1.5,2.29c1.81-3.6,3.94-7.05,5.19-10.97c0.24-0.76-0.76-1.22-1.09-0.54
		c-3.11,6.34-7.86,11.78-8.92,19.25c-0.16,1.16,1.2,2.07,1.73,0.86c1.44-3.27,3.47-5.99,5.24-9c0.1-0.16,0.18-0.33,0.28-0.49
		c-1.25,3.01-2.4,6.08-3.37,9.25c-0.27,0.87,0.78,1.53,1.29,0.89c1.57-1.95,2.98-4.04,4.28-6.23c-0.46,1.4-0.87,2.82-1.15,4.3
		c-0.25,1.31,1.14,1.93,1.78,0.89c0.38-0.63,0.73-1.28,1.05-1.95c-0.15,0.69-0.28,1.38-0.38,2.08c-0.14,1,1.11,1.87,1.52,0.76
		c0.14-0.37,0.28-0.74,0.41-1.11c0.1-0.27,0.09-0.52,0.02-0.73c0.69-3.01,1.71-5.96,2.98-8.67
		C309.09-16.47,310.24-18.66,310.61-21.31z"/>
	<path class="st1" d="M421.91-21.31c0.15-1.07-1.01-1.77-1.53-0.76c-0.78,1.5-1.65,2.93-2.51,4.38c0.41-1.35,0.78-2.73,1.03-4.15
		c0.2-1.11-1.18-1.97-1.64-0.82c-1.71,4.2-3.63,8.35-5.87,12.22c1.53-3.97,3.15-7.9,4.67-11.88c0.24-0.63-0.44-1.43-0.88-0.8
		c-1.88,2.63-3.52,5.36-5.23,8.14c-0.48,0.78-0.99,1.54-1.5,2.29c1.81-3.6,3.94-7.05,5.19-10.97c0.24-0.76-0.76-1.22-1.09-0.54
		c-3.11,6.34-7.86,11.78-8.92,19.25c-0.16,1.16,1.2,2.07,1.73,0.86c1.44-3.27,3.47-5.99,5.24-9c0.1-0.16,0.18-0.33,0.28-0.49
		c-1.25,3.01-2.4,6.08-3.37,9.25c-0.27,0.87,0.78,1.53,1.29,0.89c1.57-1.95,2.98-4.04,4.28-6.23c-0.46,1.4-0.87,2.82-1.15,4.3
		c-0.25,1.31,1.14,1.93,1.78,0.89c0.38-0.63,0.73-1.28,1.05-1.95c-0.15,0.69-0.28,1.38-0.38,2.08c-0.14,1,1.11,1.87,1.52,0.76
		c0.14-0.37,0.28-0.74,0.41-1.11c0.1-0.27,0.09-0.52,0.02-0.73c0.69-3.01,1.71-5.96,2.98-8.67
		C420.38-16.47,421.53-18.66,421.91-21.31z"/>
	<path class="st5" d="M336.91-22.72c-1.07,1.57-2.14,3.12-3.2,4.69c0.81-1.94,1.63-3.88,2.44-5.82c0.41-0.97-0.63-2.06-1.32-1.21
		c-0.64,0.79-1.23,1.63-1.79,2.48c0.34-0.77,0.68-1.54,0.99-2.32c0.33-0.81-0.51-1.73-1.11-1.01c-1.61,1.95-3.08,3.95-4.45,6.02
		c0.92-2.34,1.86-4.68,2.79-7.02c0.44-1.1-0.8-2.53-1.55-1.42c-0.05,0.08-0.1,0.16-0.15,0.24l0,0c0,0,0,0,0,0.01
		c-2.19,3.29-3.75,6.92-5.6,10.47c-1.49,2.86-3.51,5.54-4.04,8.92c-0.19,1.19,1.19,1.65,1.54,0.5c0.56-1.87,1.49-3.51,2.47-5.11
		c-0.78,2.18-1.52,4.38-2.19,6.62c-0.41,1.37,1.36,1.87,1.81,0.59c1.41-4.06,3.28-8.17,5.52-11.9c-0.34,0.74-0.7,1.46-1.03,2.21
		c-1.21,2.69-1.89,5.72-3.28,8.27c-0.6,1.11,0.84,2.04,1.47,1.01c0.88-1.44,1.69-2.94,2.48-4.47c-0.63,1.5-1.28,2.99-1.9,4.5
		c-0.53,1.29,1.02,2.41,1.65,1.14c2.79-5.68,6.47-10.56,10-15.59C339.31-22.18,337.77-23.98,336.91-22.72z"/>
	<path class="st3" d="M358.55-2.77c2.29-4.04,4.38-8.57,6.39-12.82c0.55-1.16-0.43-2.21-1.28-2.06c0.38-1,0.71-2,0.96-3.01
		c0.39-1.57-1.62-2.57-2.27-1.09c-0.68,1.57-1.54,3.01-2.37,4.46c0.62-1.78,1.3-3.54,2.11-5.23c0.73-1.54-1.17-2.75-2-1.34
		c-0.75,1.28-1.49,2.59-2.18,3.92c0.59-1.87,1.22-3.72,1.95-5.53c0.51-1.27-0.93-2.87-1.8-1.62c-0.08,0.12-0.16,0.24-0.23,0.35
		c0.22-0.53,0.44-1.06,0.65-1.58c0.43-1.09-0.83-1.96-1.39-0.93c-1.86,3.44-3.41,7.05-5.03,10.66c-1.15,2.57-2.43,5.09-2.92,7.97
		c-0.21,1.24,1.21,2.57,2.02,1.37c0.81-1.22,1.53-2.5,2.2-3.81c-0.77,2.13-1.61,4.37-1.39,6.63c0.11,1.09,1.1,1.66,1.78,1.05
		c-0.05,0.28-0.1,0.55-0.14,0.83c-0.17,1.33,1.14,2.52,2.06,1.39c0.22-0.28,0.43-0.56,0.64-0.85c-0.01,0.18-0.03,0.35-0.04,0.53
		C356.22-1.95,357.92-1.66,358.55-2.77z"/>
	<path class="st6" d="M391.86-23.52c-3.47,4.81-4.48,11.4-7.41,16.52c0.18-0.97,0.41-1.92,0.69-2.86c2.12-4.02,3.77-8.37,5.31-12.77
		c0.42-1.19-1.29-2.04-1.77-0.88c-0.11,0.26-0.22,0.52-0.33,0.78c0.5-1.03-0.69-2.13-1.41-1.27c-2.83,3.4-4.87,7.46-6.93,11.5
		c1.15-3.43,2.71-6.72,4.21-9.84c0.44-0.92-0.69-1.67-1.19-0.82c-3.1,5.33-6.04,11.37-6.75,17.89c-0.14,1.33,1.42,1.49,1.93,0.62
		c1.55-2.61,2.88-5.39,4.24-8.14c-0.67,2.18-1.26,4.4-1.8,6.65c-0.24,1.02,0.96,1.98,1.58,1.09c0.04-0.05,0.07-0.11,0.11-0.16
		c-0.04,0.56-0.06,1.13-0.06,1.71c0.01,0.93,0.97,1.39,1.53,0.75c4.25-4.82,5.18-12.05,8.49-17.59c0.38,0.01,0.78-0.22,0.9-0.72
		c0.11-0.43,0.21-0.86,0.32-1.28C393.82-23.46,392.53-24.44,391.86-23.52z"/>
	<path class="st5" d="M448.2-22.72c-1.07,1.57-2.14,3.12-3.2,4.69c0.81-1.94,1.63-3.88,2.44-5.82c0.41-0.97-0.63-2.06-1.32-1.21
		c-0.64,0.79-1.23,1.63-1.79,2.48c0.34-0.77,0.68-1.54,0.99-2.32c0.33-0.81-0.51-1.73-1.11-1.01c-1.61,1.95-3.08,3.95-4.45,6.02
		c0.92-2.34,1.86-4.68,2.79-7.02c0.44-1.1-0.8-2.53-1.55-1.42c-0.05,0.08-0.1,0.16-0.15,0.24l0,0c0,0,0,0,0,0.01
		c-2.19,3.29-3.75,6.92-5.6,10.47c-1.49,2.86-3.51,5.54-4.04,8.92c-0.19,1.19,1.19,1.65,1.54,0.5c0.56-1.87,1.49-3.51,2.47-5.11
		c-0.78,2.18-1.52,4.38-2.19,6.62c-0.41,1.37,1.36,1.87,1.81,0.59c1.41-4.06,3.28-8.17,5.52-11.9c-0.34,0.74-0.7,1.46-1.03,2.21
		c-1.21,2.69-1.89,5.72-3.28,8.27c-0.6,1.11,0.84,2.04,1.47,1.01c0.88-1.44,1.69-2.94,2.48-4.47c-0.63,1.5-1.28,2.99-1.9,4.5
		c-0.53,1.29,1.02,2.41,1.65,1.14c2.79-5.68,6.47-10.56,10-15.59C450.6-22.18,449.06-23.98,448.2-22.72z"/>
	<path class="st3" d="M469.84-2.77c2.29-4.04,4.38-8.57,6.39-12.82c0.55-1.16-0.43-2.21-1.28-2.06c0.38-1,0.71-2,0.96-3.01
		c0.39-1.57-1.62-2.57-2.27-1.09c-0.68,1.57-1.54,3.01-2.37,4.46c0.62-1.78,1.3-3.54,2.11-5.23c0.73-1.54-1.17-2.75-2-1.34
		c-0.75,1.28-1.49,2.59-2.18,3.92c0.59-1.87,1.22-3.72,1.95-5.53c0.51-1.27-0.93-2.87-1.8-1.62c-0.08,0.12-0.16,0.24-0.23,0.35
		c0.22-0.53,0.44-1.06,0.65-1.58c0.43-1.09-0.83-1.96-1.39-0.93c-1.86,3.44-3.41,7.05-5.03,10.66c-1.15,2.57-2.43,5.09-2.92,7.97
		c-0.21,1.24,1.21,2.57,2.02,1.37c0.81-1.22,1.53-2.5,2.2-3.81c-0.77,2.13-1.61,4.37-1.39,6.63c0.11,1.09,1.1,1.66,1.78,1.05
		c-0.05,0.28-0.1,0.55-0.14,0.83c-0.17,1.33,1.14,2.52,2.06,1.39c0.22-0.28,0.44-0.56,0.64-0.85c-0.01,0.18-0.03,0.35-0.04,0.53
		C467.51-1.95,469.21-1.66,469.84-2.77z"/>
	<path class="st6" d="M503.15-23.52c-3.47,4.81-4.48,11.4-7.41,16.52c0.18-0.97,0.41-1.92,0.69-2.86c2.12-4.02,3.77-8.37,5.31-12.77
		c0.42-1.19-1.29-2.04-1.77-0.88c-0.11,0.26-0.22,0.52-0.33,0.78c0.5-1.03-0.69-2.13-1.41-1.27c-2.83,3.4-4.87,7.46-6.93,11.5
		c1.15-3.43,2.71-6.72,4.21-9.84c0.44-0.92-0.69-1.67-1.19-0.82c-3.1,5.33-6.04,11.37-6.75,17.89c-0.14,1.33,1.42,1.49,1.93,0.62
		c1.55-2.61,2.88-5.39,4.24-8.14c-0.67,2.18-1.26,4.4-1.8,6.65c-0.24,1.02,0.96,1.98,1.58,1.09c0.04-0.05,0.07-0.11,0.11-0.16
		c-0.04,0.56-0.06,1.13-0.06,1.71c0.01,0.93,0.97,1.39,1.53,0.75c4.25-4.82,5.18-12.05,8.49-17.59c0.38,0.01,0.78-0.22,0.9-0.72
		c0.11-0.43,0.21-0.86,0.32-1.28C505.11-23.46,503.82-24.44,503.15-23.52z"/>
	<path class="st1" d="M533.2-21.31c0.15-1.07-1.01-1.77-1.53-0.76c-0.78,1.5-1.65,2.93-2.51,4.38c0.41-1.35,0.78-2.73,1.03-4.15
		c0.2-1.11-1.18-1.97-1.64-0.82c-1.71,4.2-3.63,8.35-5.87,12.22c1.53-3.97,3.15-7.9,4.67-11.88c0.24-0.63-0.44-1.43-0.88-0.8
		c-1.88,2.63-3.52,5.36-5.23,8.14c-0.48,0.78-0.99,1.54-1.5,2.29c1.81-3.6,3.94-7.05,5.19-10.97c0.24-0.76-0.76-1.22-1.09-0.54
		c-3.11,6.34-7.86,11.78-8.92,19.25c-0.16,1.16,1.2,2.07,1.73,0.86c1.44-3.27,3.47-5.99,5.24-9c0.1-0.16,0.18-0.33,0.28-0.49
		c-1.25,3.01-2.4,6.08-3.37,9.25c-0.27,0.87,0.78,1.53,1.29,0.89c1.57-1.95,2.98-4.04,4.28-6.23c-0.46,1.4-0.87,2.82-1.15,4.3
		c-0.25,1.31,1.14,1.93,1.78,0.89c0.38-0.63,0.73-1.28,1.05-1.95c-0.15,0.69-0.28,1.38-0.38,2.08c-0.14,1,1.11,1.87,1.52,0.76
		c0.14-0.37,0.28-0.74,0.41-1.11c0.1-0.27,0.09-0.52,0.02-0.73c0.69-3.01,1.71-5.96,2.98-8.67
		C531.67-16.47,532.82-18.66,533.2-21.31z"/>
	<path class="st1" d="M644.49-21.31c0.15-1.07-1.01-1.77-1.53-0.76c-0.78,1.5-1.65,2.93-2.51,4.38c0.41-1.35,0.78-2.73,1.03-4.15
		c0.2-1.11-1.18-1.97-1.64-0.82c-1.71,4.2-3.63,8.35-5.87,12.22c1.53-3.97,3.15-7.9,4.67-11.88c0.24-0.63-0.44-1.43-0.88-0.8
		c-1.88,2.63-3.52,5.36-5.23,8.14c-0.48,0.78-0.99,1.54-1.5,2.29c1.81-3.6,3.94-7.05,5.19-10.97c0.24-0.76-0.76-1.22-1.09-0.54
		c-3.11,6.34-7.86,11.78-8.92,19.25c-0.16,1.16,1.2,2.07,1.73,0.86c1.44-3.27,3.47-5.99,5.24-9c0.1-0.16,0.18-0.33,0.28-0.49
		c-1.25,3.01-2.4,6.08-3.37,9.25c-0.27,0.87,0.78,1.53,1.29,0.89c1.57-1.95,2.98-4.04,4.28-6.23c-0.46,1.4-0.87,2.82-1.15,4.3
		c-0.25,1.31,1.14,1.93,1.78,0.89c0.38-0.63,0.73-1.28,1.05-1.95c-0.15,0.69-0.28,1.38-0.38,2.08c-0.14,1,1.11,1.87,1.52,0.76
		c0.14-0.37,0.28-0.74,0.41-1.11c0.1-0.27,0.09-0.52,0.02-0.73c0.69-3.01,1.71-5.96,2.98-8.67
		C642.97-16.47,644.11-18.66,644.49-21.31z"/>
	<path class="st5" d="M559.49-22.72c-1.07,1.57-2.14,3.12-3.2,4.69c0.81-1.94,1.63-3.88,2.44-5.82c0.41-0.97-0.63-2.06-1.32-1.21
		c-0.64,0.79-1.23,1.63-1.79,2.48c0.34-0.77,0.68-1.54,0.99-2.32c0.33-0.81-0.51-1.73-1.11-1.01c-1.61,1.95-3.08,3.95-4.45,6.02
		c0.92-2.34,1.86-4.68,2.79-7.02c0.44-1.1-0.8-2.53-1.55-1.42c-0.05,0.08-0.1,0.16-0.15,0.24l0,0c0,0,0,0,0,0.01
		c-2.19,3.29-3.75,6.92-5.6,10.47c-1.49,2.86-3.51,5.54-4.04,8.92c-0.19,1.19,1.19,1.65,1.54,0.5c0.56-1.87,1.49-3.51,2.47-5.11
		c-0.78,2.18-1.52,4.38-2.19,6.62c-0.41,1.37,1.36,1.87,1.81,0.59c1.41-4.06,3.28-8.17,5.52-11.9c-0.34,0.74-0.7,1.46-1.03,2.21
		c-1.21,2.69-1.89,5.72-3.28,8.27c-0.6,1.11,0.84,2.04,1.47,1.01c0.88-1.44,1.69-2.94,2.48-4.47c-0.63,1.5-1.28,2.99-1.9,4.5
		c-0.53,1.29,1.02,2.41,1.65,1.14c2.79-5.68,6.47-10.56,10-15.59C561.89-22.18,560.36-23.98,559.49-22.72z"/>
	<path class="st3" d="M581.13-2.77c2.29-4.04,4.38-8.57,6.39-12.82c0.55-1.16-0.43-2.21-1.28-2.06c0.38-1,0.71-2,0.96-3.01
		c0.39-1.57-1.62-2.57-2.27-1.09c-0.68,1.57-1.54,3.01-2.37,4.46c0.62-1.78,1.3-3.54,2.11-5.23c0.73-1.54-1.17-2.75-2-1.34
		c-0.75,1.28-1.49,2.59-2.18,3.92c0.59-1.87,1.22-3.72,1.95-5.53c0.51-1.27-0.93-2.87-1.8-1.62c-0.08,0.12-0.16,0.24-0.23,0.35
		c0.22-0.53,0.44-1.06,0.65-1.58c0.43-1.09-0.83-1.96-1.39-0.93c-1.86,3.44-3.41,7.05-5.03,10.66c-1.16,2.57-2.43,5.09-2.92,7.97
		c-0.21,1.24,1.21,2.57,2.02,1.37c0.81-1.22,1.53-2.5,2.2-3.81c-0.77,2.13-1.61,4.37-1.39,6.63c0.11,1.09,1.1,1.66,1.78,1.05
		c-0.05,0.28-0.1,0.55-0.14,0.83c-0.17,1.33,1.14,2.52,2.06,1.39c0.22-0.28,0.44-0.56,0.64-0.85c-0.01,0.18-0.03,0.35-0.04,0.53
		C578.8-1.95,580.5-1.66,581.13-2.77z"/>
	<path class="st6" d="M614.45-23.52c-3.47,4.81-4.48,11.4-7.41,16.52c0.18-0.97,0.41-1.92,0.69-2.86c2.12-4.02,3.77-8.37,5.31-12.77
		c0.42-1.19-1.29-2.04-1.77-0.88c-0.11,0.26-0.22,0.52-0.33,0.78c0.5-1.03-0.69-2.13-1.41-1.27c-2.83,3.4-4.87,7.46-6.93,11.5
		c1.15-3.43,2.71-6.72,4.21-9.84c0.44-0.92-0.69-1.67-1.19-0.82c-3.1,5.33-6.04,11.37-6.75,17.89c-0.14,1.33,1.42,1.49,1.93,0.62
		c1.55-2.61,2.88-5.39,4.24-8.14c-0.67,2.18-1.26,4.4-1.8,6.65c-0.24,1.02,0.96,1.98,1.58,1.09c0.04-0.05,0.07-0.11,0.11-0.16
		c-0.04,0.56-0.06,1.13-0.06,1.71c0.01,0.93,0.97,1.39,1.53,0.75c4.25-4.82,5.18-12.05,8.49-17.59c0.38,0.01,0.78-0.22,0.9-0.72
		c0.11-0.43,0.21-0.86,0.32-1.28C616.4-23.46,615.11-24.44,614.45-23.52z"/>
	<path class="st1" d="M755.78-21.31c0.15-1.07-1.01-1.77-1.53-0.76c-0.78,1.5-1.65,2.93-2.51,4.38c0.41-1.35,0.78-2.73,1.03-4.15
		c0.2-1.11-1.18-1.97-1.64-0.82c-1.71,4.2-3.63,8.35-5.87,12.22c1.53-3.97,3.15-7.9,4.67-11.88c0.24-0.63-0.44-1.43-0.88-0.8
		c-1.88,2.63-3.52,5.36-5.23,8.14c-0.48,0.78-0.99,1.54-1.5,2.29c1.81-3.6,3.94-7.05,5.19-10.97c0.24-0.76-0.76-1.22-1.09-0.54
		c-3.11,6.34-7.86,11.78-8.92,19.25c-0.16,1.16,1.2,2.07,1.73,0.86c1.44-3.27,3.47-5.99,5.24-9c0.1-0.16,0.18-0.33,0.28-0.49
		c-1.25,3.01-2.4,6.08-3.37,9.25c-0.27,0.87,0.78,1.53,1.29,0.89c1.57-1.95,2.98-4.04,4.28-6.23c-0.46,1.4-0.87,2.82-1.15,4.3
		c-0.25,1.31,1.14,1.93,1.78,0.89c0.38-0.63,0.73-1.28,1.05-1.95c-0.15,0.69-0.28,1.38-0.38,2.08c-0.14,1,1.11,1.87,1.52,0.76
		c0.14-0.37,0.28-0.74,0.41-1.11c0.1-0.27,0.09-0.52,0.02-0.73c0.69-3.01,1.71-5.96,2.98-8.67
		C754.26-16.47,755.41-18.66,755.78-21.31z"/>
	<path class="st5" d="M670.79-22.72c-1.07,1.57-2.14,3.12-3.2,4.69c0.81-1.94,1.63-3.88,2.44-5.82c0.41-0.97-0.63-2.06-1.32-1.21
		c-0.64,0.79-1.23,1.63-1.79,2.48c0.34-0.77,0.68-1.54,0.99-2.32c0.33-0.81-0.51-1.73-1.11-1.01c-1.61,1.95-3.08,3.95-4.45,6.02
		c0.92-2.34,1.86-4.68,2.79-7.02c0.44-1.1-0.8-2.53-1.55-1.42c-0.05,0.08-0.1,0.16-0.15,0.24l0,0c0,0,0,0,0,0.01
		c-2.19,3.29-3.75,6.92-5.6,10.47c-1.49,2.86-3.51,5.54-4.04,8.92c-0.19,1.19,1.19,1.65,1.54,0.5c0.56-1.87,1.49-3.51,2.47-5.11
		c-0.78,2.18-1.52,4.38-2.19,6.62c-0.41,1.37,1.36,1.87,1.81,0.59c1.41-4.06,3.28-8.17,5.52-11.9c-0.34,0.74-0.7,1.46-1.03,2.21
		c-1.21,2.69-1.89,5.72-3.28,8.27c-0.6,1.11,0.84,2.04,1.47,1.01c0.88-1.44,1.69-2.94,2.48-4.47c-0.63,1.5-1.28,2.99-1.9,4.5
		c-0.53,1.29,1.02,2.41,1.65,1.14c2.79-5.68,6.47-10.56,10-15.59C673.18-22.18,671.65-23.98,670.79-22.72z"/>
	<path class="st3" d="M692.42-2.77c2.29-4.04,4.38-8.57,6.39-12.82c0.55-1.16-0.43-2.21-1.28-2.06c0.38-1,0.71-2,0.96-3.01
		c0.39-1.57-1.62-2.57-2.27-1.09c-0.68,1.57-1.54,3.01-2.37,4.46c0.62-1.78,1.3-3.54,2.11-5.23c0.73-1.54-1.17-2.75-2-1.34
		c-0.75,1.28-1.49,2.59-2.18,3.92c0.59-1.87,1.22-3.72,1.95-5.53c0.51-1.27-0.93-2.87-1.8-1.62c-0.08,0.12-0.16,0.24-0.23,0.35
		c0.22-0.53,0.44-1.06,0.65-1.58c0.43-1.09-0.83-1.96-1.39-0.93c-1.86,3.44-3.41,7.05-5.03,10.66c-1.15,2.57-2.43,5.09-2.92,7.97
		c-0.21,1.24,1.21,2.57,2.02,1.37c0.81-1.22,1.53-2.5,2.2-3.81c-0.77,2.13-1.61,4.37-1.39,6.63c0.11,1.09,1.1,1.66,1.78,1.05
		c-0.05,0.28-0.1,0.55-0.14,0.83c-0.17,1.33,1.14,2.52,2.06,1.39c0.22-0.28,0.44-0.56,0.64-0.85c-0.01,0.18-0.03,0.35-0.04,0.53
		C690.09-1.95,691.79-1.66,692.42-2.77z"/>
	<path class="st6" d="M725.74-23.52c-3.47,4.81-4.48,11.4-7.41,16.52c0.18-0.97,0.41-1.92,0.69-2.86c2.12-4.02,3.77-8.37,5.31-12.77
		c0.42-1.19-1.29-2.04-1.77-0.88c-0.11,0.26-0.22,0.52-0.33,0.78c0.5-1.03-0.69-2.13-1.41-1.27c-2.83,3.4-4.87,7.46-6.93,11.5
		c1.15-3.43,2.71-6.72,4.21-9.84c0.44-0.92-0.69-1.67-1.19-0.82c-3.1,5.33-6.04,11.37-6.75,17.89c-0.14,1.33,1.42,1.49,1.93,0.62
		c1.55-2.61,2.88-5.39,4.24-8.14c-0.67,2.18-1.26,4.4-1.8,6.65c-0.24,1.02,0.96,1.98,1.58,1.09c0.04-0.05,0.07-0.11,0.11-0.16
		c-0.04,0.56-0.06,1.13-0.06,1.71c0.01,0.93,0.97,1.39,1.53,0.75c4.25-4.82,5.18-12.05,8.49-17.59c0.38,0.01,0.78-0.22,0.9-0.72
		c0.11-0.43,0.21-0.86,0.32-1.28C727.7-23.46,726.4-24.44,725.74-23.52z"/>
</g>
<g class="st0">
	<path class="st1" d="M389.5,114.46C389.5,114.46,389.5,114.46,389.5,114.46c0,0,0,0.01,0,0.01c0,0,0,0.01,0,0.02
		c0,0.15-0.03,0.29-0.08,0.42c-0.01,0.02-0.01,0.04-0.01,0.06c-0.01,0.02-0.02,0.03-0.03,0.05c-0.06,0.14-0.12,0.27-0.22,0.38
		c0,0,0,0,0,0.01c-0.01,0.01-0.02,0.01-0.02,0.02c-0.07,0.08-0.14,0.15-0.22,0.21c-0.02,0.02-0.05,0.02-0.07,0.04
		c-0.02,0.02-0.04,0.04-0.07,0.06c-0.04,0.03-0.1,0.04-0.15,0.06c-0.08,0.04-0.16,0.07-0.24,0.1c-0.03,0.01-0.06,0.03-0.09,0.03
		l-32.01,6.54c24.77,4.2,49.42,9.85,73.42,16.83l-17.19-32.98c-0.26-0.5-0.22-1.1,0.1-1.56l20.26-28.76
		c-14.36-4.2-28.94-7.93-43.39-11.11V114.46z"/>
	<path class="st7" d="M436.74,74.67c-0.16-0.46-0.53-0.81-0.99-0.95c-15.29-4.52-30.84-8.52-46.25-11.89V47.82
		c0-0.69-0.47-1.29-1.13-1.45C318.77,28.7,246.75,23.3,161.72,29.37c-27.3,1.95-58.73,7.51-96.1,16.99
		c-0.67,0.17-1.13,0.77-1.13,1.45v14.02c-15.37,3.36-30.92,7.35-46.23,11.89c-0.46,0.14-0.83,0.49-0.99,0.95
		c-0.16,0.46-0.09,0.96,0.19,1.36l20.93,29.72l-18.4,35.3c-0.28,0.53-0.21,1.18,0.17,1.65c0.29,0.35,0.72,0.55,1.16,0.55
		c0.14,0,0.29-0.02,0.43-0.06c27.54-8.18,55.97-14.59,84.49-19.06c0.04-0.01,0.08-0.03,0.12-0.04c0.09-0.02,0.17-0.05,0.26-0.09
		c0.08-0.03,0.15-0.07,0.22-0.12c0.04-0.03,0.08-0.04,0.12-0.07c0.05-0.04,0.09-0.09,0.13-0.14c0.02-0.02,0.04-0.04,0.06-0.06
		c0.1-0.12,0.17-0.24,0.23-0.38c0.01-0.03,0.02-0.06,0.03-0.09c0.05-0.14,0.08-0.28,0.09-0.42c0-0.01,0.01-0.02,0.01-0.04
		c0,0,0-0.01,0-0.01c0-0.01,0-0.02,0-0.03v-15.76c39.29-7.32,79.49-11.04,119.49-11.04c40.01,0,80.2,3.72,119.5,11.04v15.76
		c0,0.01,0,0.01,0,0.02c0,0,0,0.01,0,0.01c0,0.01,0.01,0.02,0.01,0.04c0.01,0.15,0.04,0.29,0.09,0.42c0.01,0.03,0.02,0.06,0.03,0.09
		c0.06,0.14,0.14,0.26,0.23,0.38c0.02,0.02,0.04,0.04,0.06,0.06c0.04,0.05,0.08,0.1,0.13,0.14c0.04,0.03,0.08,0.04,0.12,0.07
		c0.07,0.05,0.14,0.09,0.22,0.12c0.08,0.04,0.17,0.07,0.26,0.09c0.04,0.01,0.08,0.04,0.12,0.04c28.52,4.47,56.95,10.88,84.49,19.06
		c0.14,0.04,0.28,0.06,0.43,0.06c0.44,0,0.87-0.19,1.16-0.55c0.38-0.46,0.45-1.11,0.17-1.65l-18.4-35.3l20.94-29.72
		C436.82,75.63,436.9,75.12,436.74,74.67z M412.62,104.77c-0.32,0.46-0.36,1.06-0.1,1.56l17.19,32.98
		c-24-6.98-48.65-12.63-73.42-16.83l32.01-6.54c0.03-0.01,0.06-0.03,0.09-0.03c0.09-0.02,0.16-0.06,0.24-0.1
		c0.05-0.02,0.1-0.03,0.15-0.06c0.03-0.02,0.04-0.04,0.07-0.06c0.02-0.02,0.05-0.02,0.07-0.04c0.08-0.06,0.15-0.14,0.22-0.21
		c0.01-0.01,0.02-0.01,0.02-0.02c0,0,0,0,0-0.01c0.09-0.11,0.16-0.24,0.22-0.38c0.01-0.02,0.02-0.03,0.03-0.05
		c0.01-0.02,0.01-0.04,0.01-0.06c0.04-0.14,0.07-0.28,0.08-0.42c0-0.01,0-0.01,0-0.01c0-0.01,0-0.01,0-0.01s0-0.01,0-0.01V64.9
		c14.45,3.18,29.02,6.91,43.39,11.11L412.62,104.77z M41.47,106.32c0.26-0.5,0.22-1.1-0.1-1.56L21.11,76.01
		C35.5,71.8,50.07,68.07,64.49,64.9v49.56c0,0,0,0,0,0s0,0.01,0,0.01c0,0.1,0.03,0.19,0.05,0.28c0.01,0.07,0.01,0.15,0.04,0.22
		c0.03,0.08,0.09,0.15,0.13,0.23c0.04,0.07,0.07,0.14,0.12,0.21c0.06,0.08,0.15,0.13,0.23,0.2c0.05,0.04,0.09,0.1,0.15,0.13
		c0.14,0.09,0.31,0.15,0.48,0.19l32.01,6.54c-24.77,4.2-49.42,9.85-73.42,16.83L41.47,106.32z M104.5,120.8l-31.3-6.4l31.3-6.91
		V120.8z M105.72,104.15c-3.31,0.62-6.71,1.29-10.11,1.98c-2.41,0.49-4.83,1-7.26,1.53c-0.67,0.15-1.35,0.3-2.03,0.45
		c-1.75,0.38-3.51,0.77-5.26,1.17c-0.86,0.2-1.72,0.4-2.58,0.6c-1.57,0.37-3.15,0.73-4.72,1.11c-0.97,0.23-1.93,0.47-2.9,0.71
		c-1.13,0.28-2.25,0.54-3.38,0.83v-49.5V48.99c36.69-9.27,67.6-14.7,94.44-16.62c84.24-6.02,155.64-0.74,224.57,16.62v14.06v49.48
		c-9.4-2.36-18.85-4.5-28.12-6.39c-3.4-0.7-6.81-1.37-10.11-1.98c-39.87-7.51-80.67-11.32-121.28-11.32
		C186.39,92.84,145.59,96.65,105.72,104.15z M349.49,120.8v-13.3l31.29,6.91L349.49,120.8z"/>
	<polygon class="st5" points="349.49,107.5 349.49,120.8 380.78,114.4 	"/>
	<path class="st8" d="M358.38,106.14c9.27,1.89,18.72,4.04,28.12,6.39V63.05V48.99c-68.93-17.36-140.32-22.64-224.57-16.62
		c-26.85,1.92-57.75,7.36-94.44,16.62v14.05v49.5c1.12-0.28,2.25-0.55,3.38-0.83c0.97-0.24,1.93-0.48,2.9-0.71
		c1.57-0.38,3.15-0.74,4.72-1.11c0.86-0.2,1.72-0.41,2.58-0.6c1.76-0.4,3.51-0.79,5.26-1.17c0.68-0.15,1.35-0.3,2.03-0.45
		c2.43-0.52,4.85-1.04,7.26-1.53c3.4-0.7,6.81-1.37,10.11-1.98c39.86-7.51,80.66-11.32,121.27-11.32
		c40.61,0,81.41,3.81,121.28,11.32C351.58,104.77,354.98,105.44,358.38,106.14z"/>
	<path class="st1" d="M65.69,115.93c-0.17-0.04-0.34-0.1-0.48-0.19c-0.06-0.04-0.1-0.09-0.15-0.13c-0.08-0.06-0.16-0.12-0.23-0.2
		c-0.05-0.06-0.08-0.14-0.12-0.21c-0.05-0.08-0.1-0.15-0.13-0.23c-0.03-0.07-0.03-0.15-0.04-0.22c-0.02-0.09-0.05-0.18-0.05-0.28
		c0,0,0,0,0,0s0-0.01,0-0.01V64.9c-14.42,3.17-28.99,6.9-43.38,11.11l20.25,28.76c0.32,0.46,0.36,1.06,0.1,1.56l-17.19,32.98
		c24-6.98,48.65-12.63,73.42-16.83L65.69,115.93z"/>
	<polygon class="st5" points="73.2,114.4 104.5,120.8 104.5,107.5 	"/>
</g>
<g>
	<path class="st9" d="M356.05,78.72c3.08,3.81,14.15,17.41,25.94,30.84c12.15,0.07,22.12,0.16,29.22,0.29
		c-10.39-13.55-21.4-29.71-21.51-29.88c-0.38-0.56-0.33-1.3,0.11-1.8c0.15-0.18,14.35-16.38,23.63-26.91
		c-7.82-0.16-17.47-0.28-28.53-0.39C373.23,62.12,359.74,75.16,356.05,78.72z"/>
	<path class="st9" d="M64.85,79.74c-3.08-3.85-14.55-18.21-22.97-29.35c-11.54-0.06-21.1-0.15-28.07-0.28
		c5.68,9.35,18.71,28.46,18.86,28.67c0.36,0.53,0.34,1.22-0.04,1.73c-0.11,0.14-10.25,13.49-21.2,28.14
		c7.41,0.15,16.66,0.27,27.35,0.37C51.12,95.06,61.84,83.09,64.85,79.74z"/>
	<path class="st10" d="M418,49.25c-0.23-0.53-0.75-0.87-1.32-0.89c-7.67-0.17-17.4-0.31-28.73-0.43c2.45-2.36,4.77-4.59,6.83-6.57
		c0.43-0.41,0.57-1.05,0.35-1.61c-0.22-0.56-0.75-0.93-1.35-0.94c-59.41-1.03-121.35-0.77-181.26-0.52
		c-58.29,0.25-118.57,0.5-176.83-0.43c-0.55,0.03-1.06,0.29-1.32,0.77c-0.26,0.48-0.23,1.07,0.07,1.53c1.27,1.89,3.09,4.4,5.2,7.24
		c-12.03-0.07-21.74-0.17-28.44-0.31c-0.56,0-1.03,0.27-1.3,0.72c-0.27,0.46-0.28,1.03-0.01,1.49c4.17,7.31,16.78,25.92,19.72,30.25
		c-2.55,3.36-12.29,16.21-22.29,29.61c-0.33,0.44-0.39,1.03-0.14,1.53c0.24,0.5,0.74,0.82,1.3,0.83c7.37,0.17,16.73,0.3,27.69,0.41
		c-1.94,2.19-3.9,4.42-5.87,6.66c-0.38,0.43-0.48,1.05-0.24,1.57c0.23,0.53,0.75,0.87,1.33,0.88c56.52,0.98,118.94,0.74,179.31,0.51
		c60.34-0.23,122.74-0.47,179.21,0.51c0.01,0,0.02,0,0.03,0c0.58,0,1.11-0.34,1.35-0.87c0.24-0.54,0.14-1.17-0.26-1.61
		c-2.11-2.29-4.26-4.68-6.4-7.09c12.77,0.08,22.93,0.19,29.62,0.34c0.01,0,0.02,0,0.03,0c0.56,0,1.07-0.31,1.32-0.81
		c0.26-0.51,0.2-1.12-0.15-1.57c-9.42-12.07-19.97-27.33-22.65-31.23c3.35-3.83,17.04-19.44,24.97-28.43
		C418.14,50.39,418.23,49.78,418,49.25z M389.81,78.16c-0.44,0.51-0.49,1.25-0.11,1.8c0.12,0.17,11.13,16.33,21.51,29.88
		c-7.11-0.13-17.07-0.22-29.22-0.29c-11.79-13.43-22.86-27.02-25.94-30.84c3.69-3.56,17.18-16.6,28.86-27.85
		c11.06,0.1,20.71,0.23,28.53,0.39C404.16,61.78,389.97,77.99,389.81,78.16z M290.86,118.42c-26.67,0-53.63,0.1-80.18,0.21
		c-59.21,0.22-120.41,0.46-176.05-0.46c17.1-19.39,33.09-37.2,33.26-37.39c0.48-0.54,0.51-1.35,0.05-1.91
		c-0.22-0.28-20.92-26.03-29.41-37.99c57.4,0.88,116.66,0.63,174.01,0.38c58.69-0.25,119.33-0.5,177.61,0.46
		c-14.29,13.74-36.88,35.58-37.12,35.81c-0.55,0.53-0.6,1.39-0.13,1.99c0.18,0.23,17.5,21.78,33.62,39.56
		C355.89,118.57,323.59,118.42,290.86,118.42z M32.61,80.51c0.38-0.51,0.4-1.2,0.04-1.73c-0.14-0.21-13.18-19.32-18.86-28.67
		c6.98,0.12,16.53,0.21,28.07,0.28c8.42,11.13,19.89,25.5,22.97,29.35c-3.01,3.35-13.73,15.32-26.08,29.28
		c-10.68-0.1-19.94-0.22-27.35-0.37C22.36,94,32.51,80.65,32.61,80.51z"/>
	<path class="st11" d="M352.9,79.52c-0.48-0.6-0.42-1.46,0.13-1.99c0.24-0.23,22.83-22.08,37.12-35.81
		c-58.28-0.96-118.92-0.71-177.61-0.46c-57.35,0.24-116.61,0.49-174.01-0.38c8.49,11.95,29.18,37.71,29.41,37.99
		c0.45,0.56,0.43,1.37-0.05,1.91c-0.17,0.19-16.16,18-33.26,37.39c55.64,0.92,116.83,0.68,176.05,0.46
		c26.55-0.1,53.51-0.21,80.18-0.21c32.73,0,65.03,0.15,95.66,0.66C370.4,101.3,353.08,79.75,352.9,79.52z"/>
</g>
</svg>
